  0
SECTION
  2
HEADER
  9
$ACADVER
  1
AC1024
  9
$ACADMAINTVER
 70
     6
  9
$DWGCODEPAGE
  3
UNDEFINED
  9
$INSBASE
 10
0.0
 20
0.0
 30
0.0
  9
$EXTMIN
 10
1.000000000000000E+20
 20
1.000000000000000E+20
 30
1.000000000000000E+20
  9
$EXTMAX
 10
-1.000000000000000E+20
 20
-1.000000000000000E+20
 30
-1.000000000000000E+20
  9
$LIMMIN
 10
0.0
 20
0.0
  9
$LIMMAX
 10
12.0
 20
9.0
  9
$ORTHOMODE
 70
     0
  9
$REGENMODE
 70
     1
  9
$FILLMODE
 70
     1
  9
$QTEXTMODE
 70
     0
  9
$MIRRTEXT
 70
     1
  9
$LTSCALE
 40
1.0
  9
$ATTMODE
 70
     1
  9
$TEXTSIZE
 40
0.2
  9
$TRACEWID
 40
0.05
  9
$TEXTSTYLE
  7
Standard
  9
$CLAYER
  8
0
  9
$CELTYPE
  6
ByLayer
  9
$CECOLOR
 62
   256
  9
$CELTSCALE
 40
1.0
  9
$DISPSILH
 70
     0
  9
$DIMSCALE
 40
1.0
  9
$DIMASZ
 40
0.18
  9
$DIMEXO
 40
0.0625
  9
$DIMDLI
 40
0.38
  9
$DIMRND
 40
0.0
  9
$DIMDLE
 40
0.0
  9
$DIMEXE
 40
0.18
  9
$DIMTP
 40
0.0
  9
$DIMTM
 40
0.0
  9
$DIMTXT
 40
0.18
  9
$DIMCEN
 40
0.09
  9
$DIMTSZ
 40
0.0
  9
$DIMTOL
 70
     0
  9
$DIMLIM
 70
     0
  9
$DIMTIH
 70
     1
  9
$DIMTOH
 70
     1
  9
$DIMSE1
 70
     0
  9
$DIMSE2
 70
     0
  9
$DIMTAD
 70
     0
  9
$DIMZIN
 70
     0
  9
$DIMBLK
  1

  9
$DIMASO
 70
     1
  9
$DIMSHO
 70
     1
  9
$DIMPOST
  1

  9
$DIMAPOST
  1

  9
$DIMALT
 70
     0
  9
$DIMALTD
 70
     2
  9
$DIMALTF
 40
25.4
  9
$DIMLFAC
 40
1.0
  9
$DIMTOFL
 70
     0
  9
$DIMTVP
 40
0.0
  9
$DIMTIX
 70
     0
  9
$DIMSOXD
 70
     0
  9
$DIMSAH
 70
     0
  9
$DIMBLK1
  1

  9
$DIMBLK2
  1

  9
$DIMSTYLE
  2
Standard
  9
$DIMCLRD
 70
     0
  9
$DIMCLRE
 70
     0
  9
$DIMCLRT
 70
     0
  9
$DIMTFAC
 40
1.0
  9
$DIMGAP
 40
0.09
  9
$DIMJUST
 70
     0
  9
$DIMSD1
 70
     0
  9
$DIMSD2
 70
     0
  9
$DIMTOLJ
 70
     1
  9
$DIMTZIN
 70
     0
  9
$DIMALTZ
 70
     0
  9
$DIMALTTZ
 70
     0
  9
$DIMUPT
 70
     0
  9
$DIMDEC
 70
     4
  9
$DIMTDEC
 70
     4
  9
$DIMALTU
 70
     2
  9
$DIMALTTD
 70
     2
  9
$DIMTXSTY
  7
Standard
  9
$DIMAUNIT
 70
     0
  9
$DIMADEC
 70
     0
  9
$DIMALTRND
 40
0.0
  9
$DIMAZIN
 70
     0
  9
$DIMDSEP
 70
    46
  9
$DIMATFIT
 70
     3
  9
$DIMFRAC
 70
     0
  9
$DIMLDRBLK
  1

  9
$DIMLUNIT
 70
     2
  9
$DIMLWD
 70
    -2
  9
$DIMLWE
 70
    -2
  9
$DIMTMOVE
 70
     0
  9
$DIMFXL
 40
1.0
  9
$DIMFXLON
 70
     0
  9
$DIMJOGANG
 40
0.7853981633974483
  9
$DIMTFILL
 70
     0
  9
$DIMTFILLCLR
 70
     0
  9
$DIMARCSYM
 70
     0
  9
$DIMLTYPE
  6

  9
$DIMLTEX1
  6

  9
$DIMLTEX2
  6

  9
$DIMTXTDIRECTION
 70
     0
  9
$LUNITS
 70
     2
  9
$LUPREC
 70
     4
  9
$SKETCHINC
 40
0.1
  9
$FILLETRAD
 40
0.5
  9
$AUNITS
 70
     0
  9
$AUPREC
 70
     0
  9
$MENU
  1
.
  9
$ELEVATION
 40
0.0
  9
$PELEVATION
 40
0.0
  9
$THICKNESS
 40
0.0
  9
$LIMCHECK
 70
     0
  9
$CHAMFERA
 40
0.5
  9
$CHAMFERB
 40
0.5
  9
$CHAMFERC
 40
1.0
  9
$CHAMFERD
 40
0.0
  9
$SKPOLY
 70
     0
  9
$TDCREATE
 40
2457092.386562489
  9
$TDUCREATE
 40
2457092.344895833
  9
$TDUPDATE
 40
2457092.386562489
  9
$TDUUPDATE
 40
2457092.344895833
  9
$TDINDWG
 40
0.0000000116
  9
$TDUSRTIMER
 40
0.0000000116
  9
$USRTIMER
 70
     1
  9
$ANGBASE
 50
0.0
  9
$ANGDIR
 70
     0
  9
$PDMODE
 70
     0
  9
$PDSIZE
 40
0.0
  9
$PLINEWID
 40
0.0
  9
$SPLFRAME
 70
     0
  9
$SPLINETYPE
 70
     6
  9
$SPLINESEGS
 70
     8
  9
$HANDSEED
  5
6C
  9
$SURFTAB1
 70
     6
  9
$SURFTAB2
 70
     6
  9
$SURFTYPE
 70
     6
  9
$SURFU
 70
     6
  9
$SURFV
 70
     6
  9
$UCSBASE
  2

  9
$UCSNAME
  2

  9
$UCSORG
 10
0.0
 20
0.0
 30
0.0
  9
$UCSXDIR
 10
1.0
 20
0.0
 30
0.0
  9
$UCSYDIR
 10
0.0
 20
1.0
 30
0.0
  9
$UCSORTHOREF
  2

  9
$UCSORTHOVIEW
 70
     0
  9
$UCSORGTOP
 10
0.0
 20
0.0
 30
0.0
  9
$UCSORGBOTTOM
 10
0.0
 20
0.0
 30
0.0
  9
$UCSORGLEFT
 10
0.0
 20
0.0
 30
0.0
  9
$UCSORGRIGHT
 10
0.0
 20
0.0
 30
0.0
  9
$UCSORGFRONT
 10
0.0
 20
0.0
 30
0.0
  9
$UCSORGBACK
 10
0.0
 20
0.0
 30
0.0
  9
$PUCSBASE
  2

  9
$PUCSNAME
  2

  9
$PUCSORG
 10
0.0
 20
0.0
 30
0.0
  9
$PUCSXDIR
 10
1.0
 20
0.0
 30
0.0
  9
$PUCSYDIR
 10
0.0
 20
1.0
 30
0.0
  9
$PUCSORTHOREF
  2

  9
$PUCSORTHOVIEW
 70
     0
  9
$PUCSORGTOP
 10
0.0
 20
0.0
 30
0.0
  9
$PUCSORGBOTTOM
 10
0.0
 20
0.0
 30
0.0
  9
$PUCSORGLEFT
 10
0.0
 20
0.0
 30
0.0
  9
$PUCSORGRIGHT
 10
0.0
 20
0.0
 30
0.0
  9
$PUCSORGFRONT
 10
0.0
 20
0.0
 30
0.0
  9
$PUCSORGBACK
 10
0.0
 20
0.0
 30
0.0
  9
$USERI1
 70
     0
  9
$USERI2
 70
     0
  9
$USERI3
 70
     0
  9
$USERI4
 70
     0
  9
$USERI5
 70
     0
  9
$USERR1
 40
0.0
  9
$USERR2
 40
0.0
  9
$USERR3
 40
0.0
  9
$USERR4
 40
0.0
  9
$USERR5
 40
0.0
  9
$WORLDVIEW
 70
     1
  9
$SHADEDGE
 70
     3
  9
$SHADEDIF
 70
    70
  9
$TILEMODE
 70
     1
  9
$MAXACTVP
 70
    64
  9
$PINSBASE
 10
0.0
 20
0.0
 30
0.0
  9
$PLIMCHECK
 70
     0
  9
$PEXTMIN
 10
1.000000000000000E+20
 20
1.000000000000000E+20
 30
1.000000000000000E+20
  9
$PEXTMAX
 10
-1.000000000000000E+20
 20
-1.000000000000000E+20
 30
-1.000000000000000E+20
  9
$PLIMMIN
 10
0.0
 20
0.0
  9
$PLIMMAX
 10
12.0
 20
9.0
  9
$UNITMODE
 70
     0
  9
$VISRETAIN
 70
     1
  9
$PLINEGEN
 70
     0
  9
$PSLTSCALE
 70
     1
  9
$TREEDEPTH
 70
  3020
  9
$CMLSTYLE
  2
Standard
  9
$CMLJUST
 70
     0
  9
$CMLSCALE
 40
1.0
  9
$PROXYGRAPHICS
 70
     1
  9
$MEASUREMENT
 70
     0
  9
$CELWEIGHT
370
    -1
  9
$ENDCAPS
280
     0
  9
$JOINSTYLE
280
     0
  9
$LWDISPLAY
290
     1
  9
$INSUNITS
 70
     1
  9
$HYPERLINKBASE
  1

  9
$STYLESHEET
  1

  9
$XEDIT
290
     1
  9
$CEPSNTYPE
380
     0
  9
$PSTYLEMODE
290
     1
  9
$FINGERPRINTGUID
  2
{E1CD7CDD-716F-5FE7-0556-4E4AA8AD0E44}
  9
$VERSIONGUID
  2
{FAEB1C32-E019-11D5-929B-00C0DF256EC4}
  9
$EXTNAMES
290
     1
  9
$PSVPSCALE
 40
0.0
  9
$OLESTARTUP
290
     0
  9
$SORTENTS
280
   127
  9
$INDEXCTL
280
     0
  9
$HIDETEXT
280
     1
  9
$XCLIPFRAME
280
     2
  9
$HALOGAP
280
     0
  9
$OBSCOLOR
 70
   257
  9
$OBSLTYPE
280
     0
  9
$INTERSECTIONDISPLAY
280
     0
  9
$INTERSECTIONCOLOR
 70
   257
  9
$DIMASSOC
280
     2
  9
$PROJECTNAME
  1

  9
$CAMERADISPLAY
290
     0
  9
$LENSLENGTH
 40
50.0
  9
$CAMERAHEIGHT
 40
0.0
  9
$STEPSPERSEC
 40
2.0
  9
$STEPSIZE
 40
6.0
  9
$3DDWFPREC
 40
2.0
  9
$PSOLWIDTH
 40
0.25
  9
$PSOLHEIGHT
 40
4.0
  9
$LOFTANG1
 40
1.570796326794897
  9
$LOFTANG2
 40
1.570796326794897
  9
$LOFTMAG1
 40
0.0
  9
$LOFTMAG2
 40
0.0
  9
$LOFTPARAM
 70
     7
  9
$LOFTNORMALS
280
     1
  9
$LATITUDE
 40
37.795
  9
$LONGITUDE
 40
-122.394
  9
$NORTHDIRECTION
 40
0.0
  9
$TIMEZONE
 70
 -8000
  9
$LIGHTGLYPHDISPLAY
280
     1
  9
$TILEMODELIGHTSYNCH
280
     1
  9
$CMATERIAL
347
3C
  9
$SOLIDHIST
280
     1
  9
$SHOWHIST
280
     1
  9
$DWFFRAME
280
     2
  9
$DGNFRAME
280
     2
  9
$REALWORLDSCALE
290
     1
  9
$INTERFERECOLOR
 62
   256
  9
$CSHADOW
280
     0
  9
$SHADOWPLANELOCATION
 40
0.0
  0
ENDSEC
  0
SECTION
  2
CLASSES
  0
CLASS
  1
ACDBDICTIONARYWDFLT
  2
AcDbDictionaryWithDefault
  3
ObjectDBX Classes
 90
        0
 91
        4
280
     0
281
     0
  0
CLASS
  1
VISUALSTYLE
  2
AcDbVisualStyle
  3
ObjectDBX Classes
 90
     4095
 91
        4
280
     0
281
     0
  0
CLASS
  1
MATERIAL
  2
AcDbMaterial
  3
ObjectDBX Classes
 90
     1153
 91
        4
280
     0
281
     0
  0
CLASS
  1
SUN
  2
AcDbSun
  3
SCENEOE
 90
     1024
 91
        4
280
     0
281
     0
  0
ENDSEC
  0
SECTION
  2
TABLES
  0
TABLE
  2
VPORT
  5
8
330
0
100
AcDbSymbolTable
 70
     1
  0
VPORT
  5
29
330
8
100
AcDbSymbolTableRecord
100
AcDbViewportTableRecord
  2
*Active
 70
     0
 10
0.0
 20
0.0
 11
1.0
 21
1.0
 12
0.0
 22
0.0
 13
0.0
 23
0.0
 14
0.5
 24
0.5
 15
0.5
 25
0.5
 16
0.0
 26
0.0
 36
1.0
 17
148.5000416295416
 27
-105.0007777515277
 37
0.0
 40
210.0015555030554
 41
1.414275634995294
 42
50.0
 43
0.0
 44
0.0
 50
0.0
 51
0.0
 71
     0
 72
   100
 73
     1
 74
     3
 75
     0
 76
     0
 77
     0
 78
     0
281
     0
 65
     1
110
0.0
120
0.0
130
0.0
111
1.0
121
0.0
131
0.0
112
0.0
122
1.0
132
0.0
 79
     0
146
0.0
 60
     3
 61
     5
292
     1
282
     1
141
0.0
142
0.0
 63
   250
361
3F
  0
ENDTAB
  0
TABLE
  2
LTYPE
  5
5
330
0
100
AcDbSymbolTable
 70
     1
  0
LTYPE
  5
14
330
5
100
AcDbSymbolTableRecord
100
AcDbLinetypeTableRecord
  2
ByBlock
 70
     0
  3

 72
    65
 73
     0
 40
0.0
  0
LTYPE
  5
15
330
5
100
AcDbSymbolTableRecord
100
AcDbLinetypeTableRecord
  2
ByLayer
 70
     0
  3

 72
    65
 73
     0
 40
0.0
  0
LTYPE
  5
16
330
5
100
AcDbSymbolTableRecord
100
AcDbLinetypeTableRecord
  2
Continuous
 70
     0
  3
Solid line
 72
    65
 73
     0
 40
0.0
  0
ENDTAB
  0
TABLE
  2
LAYER
  5
2
330
0
100
AcDbSymbolTable
 70
     2
  0
LAYER
  5
10
330
2
100
AcDbSymbolTableRecord
100
AcDbLayerTableRecord
  2
0
 70
     0
 62
     7
  6
Continuous
370
    -3
390
F
347
3E
  0
LAYER
  5
40
330
2
100
AcDbSymbolTableRecord
100
AcDbLayerTableRecord
  2
Laag 1
 70
     0
 62
     7
  6
Continuous
370
    -3
390
F
347
3E
  0
ENDTAB
  0
TABLE
  2
STYLE
  5
3
330
0
100
AcDbSymbolTable
 70
     1
  0
STYLE
  5
11
330
3
100
AcDbSymbolTableRecord
100
AcDbTextStyleTableRecord
  2
Standard
 70
     0
 40
0.0
 41
1.0
 50
0.0
 71
     0
 42
0.2
  3
txt
  4

  0
ENDTAB
  0
TABLE
  2
VIEW
  5
6
330
0
100
AcDbSymbolTable
 70
     0
  0
ENDTAB
  0
TABLE
  2
UCS
  5
7
330
0
100
AcDbSymbolTable
 70
     0
  0
ENDTAB
  0
TABLE
  2
APPID
  5
9
330
0
100
AcDbSymbolTable
 70
     1
  0
APPID
  5
12
330
9
100
AcDbSymbolTableRecord
100
AcDbRegAppTableRecord
  2
ACAD
 70
     0
  0
ENDTAB
  0
TABLE
  2
DIMSTYLE
  5
A
330
0
100
AcDbSymbolTable
 70
     1
100
AcDbDimStyleTable
  0
DIMSTYLE
105
27
330
A
100
AcDbSymbolTableRecord
100
AcDbDimStyleTableRecord
  2
Standard
 70
     0
178
     0
340
11
  0
ENDTAB
  0
TABLE
  2
BLOCK_RECORD
  5
1
330
0
100
AcDbSymbolTable
 70
     1
  0
BLOCK_RECORD
  5
1F
330
1
100
AcDbSymbolTableRecord
100
AcDbBlockTableRecord
  2
*Model_Space
340
22
 70
     0
280
     1
281
     0
  0
BLOCK_RECORD
  5
1B
330
1
100
AcDbSymbolTableRecord
100
AcDbBlockTableRecord
  2
*Paper_Space
340
1E
 70
     0
280
     1
281
     0
  0
BLOCK_RECORD
  5
23
330
1
100
AcDbSymbolTableRecord
100
AcDbBlockTableRecord
  2
*Paper_Space0
340
26
 70
     0
280
     1
281
     0
  0
ENDTAB
  0
ENDSEC
  0
SECTION
  2
BLOCKS
  0
BLOCK
  5
20
330
1F
100
AcDbEntity
  8
0
100
AcDbBlockBegin
  2
*Model_Space
 70
     0
 10
0.0
 20
0.0
 30
0.0
  3
*Model_Space
  1

  0
ENDBLK
  5
21
330
1F
100
AcDbEntity
  8
0
100
AcDbBlockEnd
  0
BLOCK
  5
1C
330
1B
100
AcDbEntity
 67
     1
  8
0
100
AcDbBlockBegin
  2
*Paper_Space
 70
     0
 10
0.0
 20
0.0
 30
0.0
  3
*Paper_Space
  1

  0
ENDBLK
  5
1D
330
1B
100
AcDbEntity
 67
     1
  8
0
100
AcDbBlockEnd
  0
BLOCK
  5
24
330
23
100
AcDbEntity
  8
0
100
AcDbBlockBegin
  2
*Paper_Space0
 70
     0
 10
0.0
 20
0.0
 30
0.0
  3
*Paper_Space0
  1

  0
ENDBLK
  5
25
330
23
100
AcDbEntity
  8
0
100
AcDbBlockEnd
  0
ENDSEC
  0
SECTION
  2
ENTITIES
  0
SPLINE
  5
41
330
1F
100
AcDbEntity
  8
Laag 1
370
     0
100
AcDbSpline
210
0.0
220
0.0
230
1.0
 70
    11
 71
     3
 72
    38
 73
    34
 74
     0
 42
0.0000000001
 43
0.0000000001
 12
1.0
 22
0.0
 32
0.0
 13
1.0
 23
0.0
 33
0.0
 40
0.0
 40
0.0
 40
0.0
 40
0.0
 40
1.0
 40
1.0
 40
1.0
 40
2.0
 40
2.0
 40
2.0
 40
3.0
 40
3.0
 40
3.0
 40
4.0
 40
4.0
 40
4.0
 40
5.0
 40
5.0
 40
5.0
 40
6.0
 40
6.0
 40
6.0
 40
7.0
 40
7.0
 40
7.0
 40
8.0
 40
8.0
 40
8.0
 40
9.0
 40
9.0
 40
9.0
 40
10.0
 40
10.0
 40
10.0
 40
11.0
 40
11.0
 40
11.0
 40
11.0
 10
151.9697075357923
 20
-129.3001937509847
 30
0.0
 10
151.9025281738299
 20
-128.9153765852823
 30
0.0
 10
152.1598768065781
 20
-128.5484739161032
 30
0.0
 10
152.5446939722805
 20
-128.4816390636893
 30
0.0
 10
152.5446939722805
 20
-128.4816390636893
 30
0.0
 10
152.5446939722805
 20
-128.4816390636893
 30
0.0
 10
152.5446939722805
 20
-128.4816390636893
 30
0.0
 10
152.5446939722805
 20
-128.4816390636893
 30
0.0
 10
152.5446939722805
 20
-128.4816390636893
 30
0.0
 10
152.5446939722805
 20
-128.4816390636893
 30
0.0
 10
152.5446939722805
 20
-128.4816390636893
 30
0.0
 10
152.5446939722805
 20
-128.4816390636893
 30
0.0
 10
152.5446939722805
 20
-128.4816390636893
 30
0.0
 10
152.9291666284344
 20
-128.4144597017269
 30
0.0
 10
153.2926242021283
 20
-128.6721528440236
 30
0.0
 10
153.3629041500273
 20
-129.0566255001775
 30
0.0
 10
153.3629041500273
 20
-129.0566255001775
 30
0.0
 10
153.3629041500273
 20
-129.0566255001775
 30
0.0
 10
153.3629041500273
 20
-129.0566255001775
 30
0.0
 10
153.4266384165045
 20
-129.4410981563314
 30
0.0
 10
153.172390369693
 20
-129.8045557300253
 30
0.0
 10
152.7879177135391
 20
-129.8713905824391
 30
0.0
 10
152.7879177135391
 20
-129.8713905824391
 30
0.0
 10
152.7879177135391
 20
-129.8713905824391
 30
0.0
 10
152.7879177135391
 20
-129.8713905824391
 30
0.0
 10
152.7455430390706
 20
-129.8820703784434
 30
0.0
 10
152.7069579696358
 20
-129.8855154739286
 30
0.0
 10
152.6645832951672
 20
-129.8855154739286
 30
0.0
 10
152.6645832951672
 20
-129.8855154739286
 30
0.0
 10
152.6645832951672
 20
-129.8855154739286
 30
0.0
 10
152.6645832951672
 20
-129.8855154739286
 30
0.0
 10
152.3293755044524
 20
-129.8855154739286
 30
0.0
 10
152.0296521972357
 20
-129.64229173267
 30
0.0
 10
151.9697075357923
 20
-129.3001937509847
 30
0.0
  0
SPLINE
  5
42
330
1F
100
AcDbEntity
  8
Laag 1
370
     0
100
AcDbSpline
210
0.0
220
0.0
230
1.0
 70
    11
 71
     3
 72
    32
 73
    28
 74
     0
 42
0.0000000001
 43
0.0000000001
 12
1.0
 22
0.0
 32
0.0
 13
1.0
 23
0.0
 33
0.0
 40
0.0
 40
0.0
 40
0.0
 40
0.0
 40
1.0
 40
1.0
 40
1.0
 40
2.0
 40
2.0
 40
2.0
 40
3.0
 40
3.0
 40
3.0
 40
4.0
 40
4.0
 40
4.0
 40
5.0
 40
5.0
 40
5.0
 40
6.0
 40
6.0
 40
6.0
 40
7.0
 40
7.0
 40
7.0
 40
8.0
 40
8.0
 40
8.0
 40
9.0
 40
9.0
 40
9.0
 40
9.0
 10
144.0566677157219
 20
-129.8713905824391
 30
0.0
 10
143.6758124098276
 20
-129.8045557300253
 30
0.0
 10
143.4182915223052
 20
-129.4376530608461
 30
0.0
 10
143.4852986294933
 20
-129.0531804046923
 30
0.0
 10
143.4852986294933
 20
-129.0531804046923
 30
0.0
 10
143.4852986294933
 20
-129.0531804046923
 30
0.0
 10
143.4852986294933
 20
-129.0531804046923
 30
0.0
 10
143.5523057366814
 20
-128.6721528440236
 30
0.0
 10
143.9192084058605
 20
-128.4144597017269
 30
0.0
 10
144.3036810620144
 20
-128.4816390636893
 30
0.0
 10
144.3036810620144
 20
-128.4816390636893
 30
0.0
 10
144.3036810620144
 20
-128.4816390636893
 30
0.0
 10
144.3036810620144
 20
-128.4816390636893
 30
0.0
 10
144.684708622683
 20
-128.5484739161032
 30
0.0
 10
144.9422295102054
 20
-128.9153765852823
 30
0.0
 10
144.8752224030173
 20
-129.2964041459509
 30
0.0
 10
144.8752224030173
 20
-129.2964041459509
 30
0.0
 10
144.8752224030173
 20
-129.2964041459509
 30
0.0
 10
144.8752224030173
 20
-129.2964041459509
 30
0.0
 10
144.815277741574
 20
-129.64229173267
 30
0.0
 10
144.5188272750682
 20
-129.8820703784434
 30
0.0
 10
144.1801743888682
 20
-129.8820703784434
 30
0.0
 10
144.1801743888682
 20
-129.8820703784434
 30
0.0
 10
144.1801743888682
 20
-129.8820703784434
 30
0.0
 10
144.1801743888682
 20
-129.8820703784434
 30
0.0
 10
144.1414170646591
 20
-129.8820703784434
 30
0.0
 10
144.0990423901905
 20
-129.8786252829581
 30
0.0
 10
144.0566677157219
 20
-129.8713905824391
 30
0.0
  0
SPLINE
  5
43
330
1F
100
AcDbEntity
  8
Laag 1
370
     0
100
AcDbSpline
210
0.0
220
0.0
230
1.0
 70
    11
 71
     3
 72
    32
 73
    28
 74
     0
 42
0.0000000001
 43
0.0000000001
 12
1.0
 22
0.0
 32
0.0
 13
1.0
 23
0.0
 33
0.0
 40
0.0
 40
0.0
 40
0.0
 40
0.0
 40
1.0
 40
1.0
 40
1.0
 40
2.0
 40
2.0
 40
2.0
 40
3.0
 40
3.0
 40
3.0
 40
4.0
 40
4.0
 40
4.0
 40
5.0
 40
5.0
 40
5.0
 40
6.0
 40
6.0
 40
6.0
 40
7.0
 40
7.0
 40
7.0
 40
8.0
 40
8.0
 40
8.0
 40
9.0
 40
9.0
 40
9.0
 40
9.0
 10
156.1148464236449
 20
-128.3193750663341
 30
0.0
 10
155.9804876997202
 20
-127.9524723971549
 30
0.0
 10
156.1675563845692
 20
-127.5504297540263
 30
0.0
 10
156.5344590537483
 20
-127.4160710301015
 30
0.0
 10
156.5344590537483
 20
-127.4160710301015
 30
0.0
 10
156.5344590537483
 20
-127.4160710301015
 30
0.0
 10
156.5344590537483
 20
-127.4160710301015
 30
0.0
 10
156.9013617229274
 20
-127.2820568157253
 30
0.0
 10
157.3071939710899
 20
-127.4691255005744
 30
0.0
 10
157.4412081854661
 20
-127.8360281697535
 30
0.0
 10
157.4412081854661
 20
-127.8360281697535
 30
0.0
 10
157.4412081854661
 20
-127.8360281697535
 30
0.0
 10
157.4412081854661
 20
-127.8360281697535
 30
0.0
 10
157.5752223998423
 20
-128.2029308389326
 30
0.0
 10
157.384708619508
 20
-128.608763087095
 30
0.0
 10
157.0178059503289
 20
-128.7427773014712
 30
0.0
 10
157.0178059503289
 20
-128.7427773014712
 30
0.0
 10
157.0178059503289
 20
-128.7427773014712
 30
0.0
 10
157.0178059503289
 20
-128.7427773014712
 30
0.0
 10
156.9402913019108
 20
-128.7710270844503
 30
0.0
 10
156.8589870484589
 20
-128.7851519759398
 30
0.0
 10
156.7780273045555
 20
-128.7851519759398
 30
0.0
 10
156.7780273045555
 20
-128.7851519759398
 30
0.0
 10
156.7780273045555
 20
-128.7851519759398
 30
0.0
 10
156.7780273045555
 20
-128.7851519759398
 30
0.0
 10
156.4886392837945
 20
-128.7851519759398
 30
0.0
 10
156.2168212500083
 20
-128.6049734820613
 30
0.0
 10
156.1148464236449
 20
-128.3193750663341
 30
0.0
  0
SPLINE
  5
44
330
1F
100
AcDbEntity
  8
Laag 1
370
     0
100
AcDbSpline
210
0.0
220
0.0
230
1.0
 70
    11
 71
     3
 72
    35
 73
    31
 74
     0
 42
0.0000000001
 43
0.0000000001
 12
1.0
 22
0.0
 32
0.0
 13
1.0
 23
0.0
 33
0.0
 40
0.0
 40
0.0
 40
0.0
 40
0.0
 40
1.0
 40
1.0
 40
1.0
 40
2.0
 40
2.0
 40
2.0
 40
3.0
 40
3.0
 40
3.0
 40
4.0
 40
4.0
 40
4.0
 40
5.0
 40
5.0
 40
5.0
 40
6.0
 40
6.0
 40
6.0
 40
7.0
 40
7.0
 40
7.0
 40
8.0
 40
8.0
 40
8.0
 40
9.0
 40
9.0
 40
9.0
 40
10.0
 40
10.0
 40
10.0
 40
10.0
 10
139.8269517337065
 20
-128.7389876964375
 30
0.0
 10
139.8269517337065
 20
-128.7389876964375
 30
0.0
 10
139.8269517337065
 20
-128.7389876964375
 30
0.0
 10
139.8269517337065
 20
-128.7389876964375
 30
0.0
 10
139.4634941600126
 20
-128.6049734820613
 30
0.0
 10
139.2731526344525
 20
-128.2029308389326
 30
0.0
 10
139.4071668488288
 20
-127.8360281697535
 30
0.0
 10
139.4071668488288
 20
-127.8360281697535
 30
0.0
 10
139.4071668488288
 20
-127.8360281697535
 30
0.0
 10
139.4071668488288
 20
-127.8360281697535
 30
0.0
 10
139.541181063205
 20
-127.4691255005744
 30
0.0
 10
139.9468410565931
 20
-127.2820568157253
 30
0.0
 10
140.310298630287
 20
-127.4160710301015
 30
0.0
 10
140.310298630287
 20
-127.4160710301015
 30
0.0
 10
140.310298630287
 20
-127.4160710301015
 30
0.0
 10
140.310298630287
 20
-127.4160710301015
 30
0.0
 10
140.6772012994661
 20
-127.5466401489925
 30
0.0
 10
140.8677150798004
 20
-127.9524723971549
 30
0.0
 10
140.73352861065
 20
-128.3193750663341
 30
0.0
 10
140.73352861065
 20
-128.3193750663341
 30
0.0
 10
140.73352861065
 20
-128.3193750663341
 30
0.0
 10
140.73352861065
 20
-128.3193750663341
 30
0.0
 10
140.6277641792528
 20
-128.6049734820613
 30
0.0
 10
140.3595634957261
 20
-128.7813623709061
 30
0.0
 10
140.0703477297394
 20
-128.7813623709061
 30
0.0
 10
140.0703477297394
 20
-128.7813623709061
 30
0.0
 10
140.0703477297394
 20
-128.7813623709061
 30
0.0
 10
140.0703477297394
 20
-128.7813623709061
 30
0.0
 10
139.9892157310617
 20
-128.7813623709061
 30
0.0
 10
139.9080837323841
 20
-128.7710270844503
 30
0.0
 10
139.8269517337065
 20
-128.7389876964375
 30
0.0
  0
SPLINE
  5
45
330
1F
100
AcDbEntity
  8
Laag 1
370
     0
100
AcDbSpline
210
0.0
220
0.0
230
1.0
 70
    11
 71
     3
 72
    32
 73
    28
 74
     0
 42
0.0000000001
 43
0.0000000001
 12
1.0
 22
0.0
 32
0.0
 13
1.0
 23
0.0
 33
0.0
 40
0.0
 40
0.0
 40
0.0
 40
0.0
 40
1.0
 40
1.0
 40
1.0
 40
2.0
 40
2.0
 40
2.0
 40
3.0
 40
3.0
 40
3.0
 40
4.0
 40
4.0
 40
4.0
 40
5.0
 40
5.0
 40
5.0
 40
6.0
 40
6.0
 40
6.0
 40
7.0
 40
7.0
 40
7.0
 40
8.0
 40
8.0
 40
8.0
 40
9.0
 40
9.0
 40
9.0
 40
9.0
 10
160.0233072516608
 20
-126.629555730819
 30
0.0
 10
159.825903280356
 20
-126.2943479401042
 30
0.0
 10
159.9423475077575
 20
-125.8606104185112
 30
0.0
 10
160.2810003939575
 20
-125.6663070331432
 30
0.0
 10
160.2810003939575
 20
-125.6663070331432
 30
0.0
 10
160.2810003939575
 20
-125.6663070331432
 30
0.0
 10
160.2810003939575
 20
-125.6663070331432
 30
0.0
 10
160.6162081846723
 20
-125.4723481573236
 30
0.0
 10
161.0499457062653
 20
-125.588792384725
 30
0.0
 10
161.2439045820849
 20
-125.9240001754398
 30
0.0
 10
161.2439045820849
 20
-125.9240001754398
 30
0.0
 10
161.2439045820849
 20
-125.9240001754398
 30
0.0
 10
161.2439045820849
 20
-125.9240001754398
 30
0.0
 10
161.438207967453
 20
-126.2626530616399
 30
0.0
 10
161.3252088355368
 20
-126.6929454877476
 30
0.0
 10
160.9865559493367
 20
-126.8869043635672
 30
0.0
 10
160.9865559493367
 20
-126.8869043635672
 30
0.0
 10
160.9865559493367
 20
-126.8906939686009
 30
0.0
 10
160.9865559493367
 20
-126.8906939686009
 30
0.0
 10
160.8735568174205
 20
-126.9540837255295
 30
0.0
 10
160.7536674945338
 20
-126.9823335085086
 30
0.0
 10
160.6337781716471
 20
-126.9823335085086
 30
0.0
 10
160.6337781716471
 20
-126.9823335085086
 30
0.0
 10
160.6337781716471
 20
-126.9823335085086
 30
0.0
 10
160.6337781716471
 20
-126.9823335085086
 30
0.0
 10
160.39020992084
 20
-126.9823335085086
 30
0.0
 10
160.1538763705518
 20
-126.8552094851029
 30
0.0
 10
160.0233072516608
 20
-126.629555730819
 30
0.0
  0
SPLINE
  5
46
330
1F
100
AcDbEntity
  8
Laag 1
370
     0
100
AcDbSpline
210
0.0
220
0.0
230
1.0
 70
    11
 71
     3
 72
    35
 73
    31
 74
     0
 42
0.0000000001
 43
0.0000000001
 12
1.0
 22
0.0
 32
0.0
 13
1.0
 23
0.0
 33
0.0
 40
0.0
 40
0.0
 40
0.0
 40
0.0
 40
1.0
 40
1.0
 40
1.0
 40
2.0
 40
2.0
 40
2.0
 40
3.0
 40
3.0
 40
3.0
 40
4.0
 40
4.0
 40
4.0
 40
5.0
 40
5.0
 40
5.0
 40
6.0
 40
6.0
 40
6.0
 40
7.0
 40
7.0
 40
7.0
 40
8.0
 40
8.0
 40
8.0
 40
9.0
 40
9.0
 40
9.0
 40
10.0
 40
10.0
 40
10.0
 40
10.0
 10
135.8616468301839
 20
-126.8869043635672
 30
0.0
 10
135.8616468301839
 20
-126.8869043635672
 30
0.0
 10
135.8616468301839
 20
-126.8869043635672
 30
0.0
 10
135.8616468301839
 20
-126.8869043635672
 30
0.0
 10
135.5266112942434
 20
-126.6929454877476
 30
0.0
 10
135.4101670668419
 20
-126.2592079661546
 30
0.0
 10
135.6041259426615
 20
-125.9240001754398
 30
0.0
 10
135.6041259426615
 20
-125.9240001754398
 30
0.0
 10
135.6041259426615
 20
-125.9240001754398
 30
0.0
 10
135.6041259426615
 20
-125.9240001754398
 30
0.0
 10
135.8017021687405
 20
-125.5853472892398
 30
0.0
 10
136.2321668496225
 20
-125.4723481573236
 30
0.0
 10
136.5708197358226
 20
-125.6663070331432
 30
0.0
 10
136.5708197358226
 20
-125.6663070331432
 30
0.0
 10
136.5708197358226
 20
-125.6663070331432
 30
0.0
 10
136.5708197358226
 20
-125.6663070331432
 30
0.0
 10
136.9058552717631
 20
-125.8606104185112
 30
0.0
 10
137.0222994991646
 20
-126.2943479401042
 30
0.0
 10
136.8247232730855
 20
-126.629555730819
 30
0.0
 10
136.8247232730855
 20
-126.629555730819
 30
0.0
 10
136.8247232730855
 20
-126.629555730819
 30
0.0
 10
136.8247232730855
 20
-126.629555730819
 30
0.0
 10
136.6943264089688
 20
-126.8552094851029
 30
0.0
 10
136.4579928586807
 20
-126.9823335085086
 30
0.0
 10
136.2144246078735
 20
-126.9823335085086
 30
0.0
 10
136.2144246078735
 20
-126.9823335085086
 30
0.0
 10
136.2144246078735
 20
-126.9823335085086
 30
0.0
 10
136.2144246078735
 20
-126.9823335085086
 30
0.0
 10
136.0945352849868
 20
-126.9823335085086
 30
0.0
 10
135.9746459621001
 20
-126.9506386300443
 30
0.0
 10
135.8616468301839
 20
-126.8869043635672
 30
0.0
  0
SPLINE
  5
47
330
1F
100
AcDbEntity
  8
Laag 1
370
     0
100
AcDbSpline
210
0.0
220
0.0
230
1.0
 70
    11
 71
     3
 72
    38
 73
    34
 74
     0
 42
0.0000000001
 43
0.0000000001
 12
1.0
 22
0.0
 32
0.0
 13
1.0
 23
0.0
 33
0.0
 40
0.0
 40
0.0
 40
0.0
 40
0.0
 40
1.0
 40
1.0
 40
1.0
 40
2.0
 40
2.0
 40
2.0
 40
3.0
 40
3.0
 40
3.0
 40
4.0
 40
4.0
 40
4.0
 40
5.0
 40
5.0
 40
5.0
 40
6.0
 40
6.0
 40
6.0
 40
7.0
 40
7.0
 40
7.0
 40
8.0
 40
8.0
 40
8.0
 40
9.0
 40
9.0
 40
9.0
 40
10.0
 40
10.0
 40
10.0
 40
11.0
 40
11.0
 40
11.0
 40
11.0
 10
163.5758897160505
 20
-124.2872353103976
 30
0.0
 10
163.3254312742728
 20
-123.9906125891176
 30
0.0
 10
163.3643608532561
 20
-123.5427501760352
 30
0.0
 10
163.6640841604729
 20
-123.2957368297427
 30
0.0
 10
163.6640841604729
 20
-123.2957368297427
 30
0.0
 10
163.6640841604729
 20
-123.2957368297427
 30
0.0
 10
163.6640841604729
 20
-123.2957368297427
 30
0.0
 10
163.6640841604729
 20
-123.2957368297427
 30
0.0
 10
163.6640841604729
 20
-123.2957368297427
 30
0.0
 10
163.6640841604729
 20
-123.2922917342575
 30
0.0
 10
163.6640841604729
 20
-123.2922917342575
 30
0.0
 10
163.6640841604729
 20
-123.2922917342575
 30
0.0
 10
163.6640841604729
 20
-123.2922917342575
 30
0.0
 10
163.9603623722044
 20
-123.0418332924798
 30
0.0
 10
164.4051241993501
 20
-123.0804183619146
 30
0.0
 10
164.659027736613
 20
-123.3804861786799
 30
0.0
 10
164.659027736613
 20
-123.3804861786799
 30
0.0
 10
164.659027736613
 20
-123.3804861786799
 30
0.0
 10
164.659027736613
 20
-123.3804861786799
 30
0.0
 10
164.9094861783907
 20
-123.6802094858966
 30
0.0
 10
164.8705565994074
 20
-124.1246268034939
 30
0.0
 10
164.5708332921906
 20
-124.37542975482
 30
0.0
 10
164.5708332921906
 20
-124.37542975482
 30
0.0
 10
164.5708332921906
 20
-124.37542975482
 30
0.0
 10
164.5708332921906
 20
-124.37542975482
 30
0.0
 10
164.4402641732997
 20
-124.4846392817025
 30
0.0
 10
164.2780001759444
 20
-124.5411388476606
 30
0.0
 10
164.1157361785891
 20
-124.5411388476606
 30
0.0
 10
164.1157361785891
 20
-124.5411388476606
 30
0.0
 10
164.1157361785891
 20
-124.5411388476606
 30
0.0
 10
164.1157361785891
 20
-124.5411388476606
 30
0.0
 10
163.9145426022505
 20
-124.5411388476606
 30
0.0
 10
163.7171386309457
 20
-124.4529444032382
 30
0.0
 10
163.5758897160505
 20
-124.2872353103976
 30
0.0
  0
SPLINE
  5
48
330
1F
100
AcDbEntity
  8
Laag 1
370
     0
100
AcDbSpline
210
0.0
220
0.0
230
1.0
 70
    11
 71
     3
 72
    35
 73
    31
 74
     0
 42
0.0000000001
 43
0.0000000001
 12
1.0
 22
0.0
 32
0.0
 13
1.0
 23
0.0
 33
0.0
 40
0.0
 40
0.0
 40
0.0
 40
0.0
 40
1.0
 40
1.0
 40
1.0
 40
2.0
 40
2.0
 40
2.0
 40
3.0
 40
3.0
 40
3.0
 40
4.0
 40
4.0
 40
4.0
 40
5.0
 40
5.0
 40
5.0
 40
6.0
 40
6.0
 40
6.0
 40
7.0
 40
7.0
 40
7.0
 40
8.0
 40
8.0
 40
8.0
 40
9.0
 40
9.0
 40
9.0
 40
10.0
 40
10.0
 40
10.0
 40
10.0
 10
132.2809868375895
 20
-124.3716401497863
 30
0.0
 10
132.2809868375895
 20
-124.3716401497863
 30
0.0
 10
132.2775417421042
 20
-124.3716401497863
 30
0.0
 10
132.2775417421042
 20
-124.3716401497863
 30
0.0
 10
131.9810912755985
 20
-124.1211817080086
 30
0.0
 10
131.9423339513894
 20
-123.6767643904114
 30
0.0
 10
132.1927923931671
 20
-123.3804861786799
 30
0.0
 10
132.1927923931671
 20
-123.3804861786799
 30
0.0
 10
132.1927923931671
 20
-123.3804861786799
 30
0.0
 10
132.1927923931671
 20
-123.3804861786799
 30
0.0
 10
132.4432508349448
 20
-123.0804183619146
 30
0.0
 10
132.8878404073162
 20
-123.0418332924798
 30
0.0
 10
133.1877359693072
 20
-123.2922917342575
 30
0.0
 10
133.1877359693072
 20
-123.2922917342575
 30
0.0
 10
133.1877359693072
 20
-123.2922917342575
 30
0.0
 10
133.1877359693072
 20
-123.2922917342575
 30
0.0
 10
133.4840141810387
 20
-123.5427501760352
 30
0.0
 10
133.5227715052478
 20
-123.9871674936324
 30
0.0
 10
133.2723130634701
 20
-124.2872353103976
 30
0.0
 10
133.2723130634701
 20
-124.2872353103976
 30
0.0
 10
133.2723130634701
 20
-124.2872353103976
 30
0.0
 10
133.2723130634701
 20
-124.2872353103976
 30
0.0
 10
133.1346814988344
 20
-124.4529444032382
 30
0.0
 10
132.9336601772701
 20
-124.5376937521753
 30
0.0
 10
132.7326388557057
 20
-124.5376937521753
 30
0.0
 10
132.7326388557057
 20
-124.5376937521753
 30
0.0
 10
132.7326388557057
 20
-124.5376937521753
 30
0.0
 10
132.7326388557057
 20
-124.5376937521753
 30
0.0
 10
132.5738199538357
 20
-124.5376937521753
 30
0.0
 10
132.4115559564804
 20
-124.4846392817025
 30
0.0
 10
132.2809868375895
 20
-124.3716401497863
 30
0.0
  0
SPLINE
  5
49
330
1F
100
AcDbEntity
  8
Laag 1
370
     0
100
AcDbSpline
210
0.0
220
0.0
230
1.0
 70
    11
 71
     3
 72
    32
 73
    28
 74
     0
 42
0.0000000001
 43
0.0000000001
 12
1.0
 22
0.0
 32
0.0
 13
1.0
 23
0.0
 33
0.0
 40
0.0
 40
0.0
 40
0.0
 40
0.0
 40
1.0
 40
1.0
 40
1.0
 40
2.0
 40
2.0
 40
2.0
 40
3.0
 40
3.0
 40
3.0
 40
4.0
 40
4.0
 40
4.0
 40
5.0
 40
5.0
 40
5.0
 40
6.0
 40
6.0
 40
6.0
 40
7.0
 40
7.0
 40
7.0
 40
8.0
 40
8.0
 40
8.0
 40
9.0
 40
9.0
 40
9.0
 40
9.0
 10
166.6733750668386
 20
-121.3661388484543
 30
0.0
 10
166.3733072500733
 20
-121.1156804066766
 30
0.0
 10
166.3347221806386
 20
-120.6674734840456
 30
0.0
 10
166.5851806224162
 20
-120.3711952723142
 30
0.0
 10
166.5851806224162
 20
-120.3711952723142
 30
0.0
 10
166.5851806224162
 20
-120.3711952723142
 30
0.0
 10
166.5851806224162
 20
-120.3711952723142
 30
0.0
 10
166.8356390641939
 20
-120.0714719650974
 30
0.0
 10
167.2800563817911
 20
-120.0359874815993
 30
0.0
 10
167.5801241985564
 20
-120.286445923377
 30
0.0
 10
167.5801241985564
 20
-120.286445923377
 30
0.0
 10
167.5801241985564
 20
-120.286445923377
 30
0.0
 10
167.5801241985564
 20
-120.286445923377
 30
0.0
 10
167.8764024102879
 20
-120.5369043651547
 30
0.0
 10
167.9187770847564
 20
-120.9816661923004
 30
0.0
 10
167.664529037945
 20
-121.2779444040319
 30
0.0
 10
167.664529037945
 20
-121.2779444040319
 30
0.0
 10
167.664529037945
 20
-121.2779444040319
 30
0.0
 10
167.664529037945
 20
-121.2779444040319
 30
0.0
 10
167.5270697280835
 20
-121.4470985923577
 30
0.0
 10
167.3258761517449
 20
-121.5318479412948
 30
0.0
 10
167.1250270849549
 20
-121.5318479412948
 30
0.0
 10
167.1250270849549
 20
-121.5318479412948
 30
0.0
 10
167.1250270849549
 20
-121.5318479412948
 30
0.0
 10
167.1250270849549
 20
-121.5318479412948
 30
0.0
 10
166.9662081830848
 20
-121.5318479412948
 30
0.0
 10
166.8039441857296
 20
-121.4753483753367
 30
0.0
 10
166.6733750668386
 20
-121.3661388484543
 30
0.0
  0
SPLINE
  5
4A
330
1F
100
AcDbEntity
  8
Laag 1
370
     0
100
AcDbSpline
210
0.0
220
0.0
230
1.0
 70
    11
 71
     3
 72
    41
 73
    37
 74
     0
 42
0.0000000001
 43
0.0000000001
 12
1.0
 22
0.0
 32
0.0
 13
1.0
 23
0.0
 33
0.0
 40
0.0
 40
0.0
 40
0.0
 40
0.0
 40
1.0
 40
1.0
 40
1.0
 40
2.0
 40
2.0
 40
2.0
 40
3.0
 40
3.0
 40
3.0
 40
4.0
 40
4.0
 40
4.0
 40
5.0
 40
5.0
 40
5.0
 40
6.0
 40
6.0
 40
6.0
 40
7.0
 40
7.0
 40
7.0
 40
8.0
 40
8.0
 40
8.0
 40
9.0
 40
9.0
 40
9.0
 40
10.0
 40
10.0
 40
10.0
 40
11.0
 40
11.0
 40
11.0
 40
12.0
 40
12.0
 40
12.0
 40
12.0
 10
129.1836737415756
 20
-121.2779444040319
 30
0.0
 10
129.1836737415756
 20
-121.2779444040319
 30
0.0
 10
129.1836737415756
 20
-121.2779444040319
 30
0.0
 10
129.1836737415756
 20
-121.2779444040319
 30
0.0
 10
128.933215299798
 20
-120.9778765872666
 30
0.0
 10
128.971972624007
 20
-120.5334592696694
 30
0.0
 10
129.271868185998
 20
-120.2830008278918
 30
0.0
 10
129.271868185998
 20
-120.2830008278918
 30
0.0
 10
129.271868185998
 20
-120.2830008278918
 30
0.0
 10
129.271868185998
 20
-120.2830008278918
 30
0.0
 10
129.5681463977295
 20
-120.0325423861141
 30
0.0
 10
130.012735970101
 20
-120.0714719650974
 30
0.0
 10
130.2631944118787
 20
-120.3711952723142
 30
0.0
 10
130.2631944118787
 20
-120.3711952723142
 30
0.0
 10
130.2631944118787
 20
-120.3711952723142
 30
0.0
 10
130.2631944118787
 20
-120.3711952723142
 30
0.0
 10
130.2631944118787
 20
-120.3711952723142
 30
0.0
 10
130.2631944118787
 20
-120.3711952723142
 30
0.0
 10
130.2631944118787
 20
-120.3711952723142
 30
0.0
 10
130.2631944118787
 20
-120.3711952723142
 30
0.0
 10
130.2631944118787
 20
-120.3711952723142
 30
0.0
 10
130.2631944118787
 20
-120.3711952723142
 30
0.0
 10
130.5136528536563
 20
-120.6674734840456
 30
0.0
 10
130.474723274673
 20
-121.1122353111914
 30
0.0
 10
130.1784450629415
 20
-121.3626937529691
 30
0.0
 10
130.1784450629415
 20
-121.3626937529691
 30
0.0
 10
130.1784450629415
 20
-121.3626937529691
 30
0.0
 10
130.1784450629415
 20
-121.3626937529691
 30
0.0
 10
130.0444308485653
 20
-121.4753483753367
 30
0.0
 10
129.8856119466953
 20
-121.5284028458096
 30
0.0
 10
129.72334794934
 20
-121.5284028458096
 30
0.0
 10
129.72334794934
 20
-121.5284028458096
 30
0.0
 10
129.72334794934
 20
-121.5284028458096
 30
0.0
 10
129.72334794934
 20
-121.5284028458096
 30
0.0
 10
129.5223266277757
 20
-121.5284028458096
 30
0.0
 10
129.3247504016966
 20
-121.4436534968724
 30
0.0
 10
129.1836737415756
 20
-121.2779444040319
 30
0.0
  0
SPLINE
  5
4B
330
1F
100
AcDbEntity
  8
Laag 1
370
     0
100
AcDbSpline
210
0.0
220
0.0
230
1.0
 70
    11
 71
     3
 72
    32
 73
    28
 74
     0
 42
0.0000000001
 43
0.0000000001
 12
1.0
 22
0.0
 32
0.0
 13
1.0
 23
0.0
 33
0.0
 40
0.0
 40
0.0
 40
0.0
 40
0.0
 40
1.0
 40
1.0
 40
1.0
 40
2.0
 40
2.0
 40
2.0
 40
3.0
 40
3.0
 40
3.0
 40
4.0
 40
4.0
 40
4.0
 40
5.0
 40
5.0
 40
5.0
 40
6.0
 40
6.0
 40
6.0
 40
7.0
 40
7.0
 40
7.0
 40
8.0
 40
8.0
 40
8.0
 40
9.0
 40
9.0
 40
9.0
 40
9.0
 10
169.2168890635986
 20
-117.9510156939261
 30
0.0
 10
168.8782361773985
 20
-117.7570568181066
 30
0.0
 10
168.7652370454823
 20
-117.3267643919989
 30
0.0
 10
168.9591959213019
 20
-116.9881115057988
 30
0.0
 10
168.9591959213019
 20
-116.9881115057988
 30
0.0
 10
168.9591959213019
 20
-116.9881115057988
 30
0.0
 10
168.9591959213019
 20
-116.9881115057988
 30
0.0
 10
169.15349930667
 20
-116.6494586195988
 30
0.0
 10
169.5837917327777
 20
-116.5364594876826
 30
0.0
 10
169.9224446189777
 20
-116.7304183635021
 30
0.0
 10
169.9224446189777
 20
-116.7304183635021
 30
0.0
 10
169.9224446189777
 20
-116.7304183635021
 30
0.0
 10
169.9224446189777
 20
-116.7304183635021
 30
0.0
 10
170.2610975051778
 20
-116.9281668443555
 30
0.0
 10
170.374096637094
 20
-117.3584592704632
 30
0.0
 10
170.1797932517259
 20
-117.6971121566632
 30
0.0
 10
170.1797932517259
 20
-117.6971121566632
 30
0.0
 10
170.1797932517259
 20
-117.6971121566632
 30
0.0
 10
170.1797932517259
 20
-117.6971121566632
 30
0.0
 10
170.0495686423835
 20
-117.9231104204956
 30
0.0
 10
169.8128905825468
 20
-118.0464448388676
 30
0.0
 10
169.5696668412882
 20
-118.0464448388676
 30
0.0
 10
169.5696668412882
 20
-118.0464448388676
 30
0.0
 10
169.5696668412882
 20
-118.0464448388676
 30
0.0
 10
169.5696668412882
 20
-118.0464448388676
 30
0.0
 10
169.4497775184014
 20
-118.0464448388676
 30
0.0
 10
169.326098590481
 20
-118.0181950558885
 30
0.0
 10
169.2168890635986
 20
-117.9510156939261
 30
0.0
  0
SPLINE
  5
4C
330
1F
100
AcDbEntity
  8
Laag 1
370
     0
100
AcDbSpline
210
0.0
220
0.0
230
1.0
 70
    11
 71
     3
 72
    32
 73
    28
 74
     0
 42
0.0000000001
 43
0.0000000001
 12
1.0
 22
0.0
 32
0.0
 13
1.0
 23
0.0
 33
0.0
 40
0.0
 40
0.0
 40
0.0
 40
0.0
 40
1.0
 40
1.0
 40
1.0
 40
2.0
 40
2.0
 40
2.0
 40
3.0
 40
3.0
 40
3.0
 40
4.0
 40
4.0
 40
4.0
 40
5.0
 40
5.0
 40
5.0
 40
6.0
 40
6.0
 40
6.0
 40
7.0
 40
7.0
 40
7.0
 40
8.0
 40
8.0
 40
8.0
 40
9.0
 40
9.0
 40
9.0
 40
9.0
 10
126.6684095277947
 20
-117.693667061178
 30
0.0
 10
126.4742783972009
 20
-117.3550141749779
 30
0.0
 10
126.5907226246023
 20
-116.9247217488702
 30
0.0
 10
126.9259304153171
 20
-116.7304183635021
 30
0.0
 10
126.9259304153171
 20
-116.7304183635021
 30
0.0
 10
126.9259304153171
 20
-116.7304183635021
 30
0.0
 10
126.9259304153171
 20
-116.7304183635021
 30
0.0
 10
127.2645833015172
 20
-116.5330143921973
 30
0.0
 10
127.6948757276249
 20
-116.6494586195988
 30
0.0
 10
127.892451953704
 20
-116.9881115057988
 30
0.0
 10
127.892451953704
 20
-116.9881115057988
 30
0.0
 10
127.892451953704
 20
-116.9881115057988
 30
0.0
 10
127.892451953704
 20
-116.9881115057988
 30
0.0
 10
128.0864108295235
 20
-117.3233192965136
 30
0.0
 10
127.9701388568964
 20
-117.7536117226213
 30
0.0
 10
127.6349310661816
 20
-117.9510156939261
 30
0.0
 10
127.6349310661816
 20
-117.9510156939261
 30
0.0
 10
127.6349310661816
 20
-117.9510156939261
 30
0.0
 10
127.6349310661816
 20
-117.9510156939261
 30
0.0
 10
127.5221041890396
 20
-118.0147499604033
 30
0.0
 10
127.4020426113787
 20
-118.0464448388676
 30
0.0
 10
127.282153288492
 20
-118.0464448388676
 30
0.0
 10
127.282153288492
 20
-118.0464448388676
 30
0.0
 10
127.282153288492
 20
-118.0464448388676
 30
0.0
 10
127.282153288492
 20
-118.0464448388676
 30
0.0
 10
127.0387572924591
 20
-118.0464448388676
 30
0.0
 10
126.7988063919114
 20
-117.9193208154618
 30
0.0
 10
126.6684095277947
 20
-117.693667061178
 30
0.0
  0
SPLINE
  5
4D
330
1F
100
AcDbEntity
  8
Laag 1
370
     0
100
AcDbSpline
210
0.0
220
0.0
230
1.0
 70
    11
 71
     3
 72
    32
 73
    28
 74
     0
 42
0.0000000001
 43
0.0000000001
 12
1.0
 22
0.0
 32
0.0
 13
1.0
 23
0.0
 33
0.0
 40
0.0
 40
0.0
 40
0.0
 40
0.0
 40
1.0
 40
1.0
 40
1.0
 40
2.0
 40
2.0
 40
2.0
 40
3.0
 40
3.0
 40
3.0
 40
4.0
 40
4.0
 40
4.0
 40
5.0
 40
5.0
 40
5.0
 40
6.0
 40
6.0
 40
6.0
 40
7.0
 40
7.0
 40
7.0
 40
8.0
 40
8.0
 40
8.0
 40
9.0
 40
9.0
 40
9.0
 40
9.0
 10
171.1289170579122
 20
-114.1517643927926
 30
0.0
 10
170.7620143887331
 20
-114.0177501784164
 30
0.0
 10
170.5749457038841
 20
-113.611917930254
 30
0.0
 10
170.7089599182603
 20
-113.2450152610749
 30
0.0
 10
170.7089599182603
 20
-113.2450152610749
 30
0.0
 10
170.7089599182603
 20
-113.2450152610749
 30
0.0
 10
170.7089599182603
 20
-113.2450152610749
 30
0.0
 10
170.8395290371512
 20
-112.8819021969295
 30
0.0
 10
171.2453612853137
 20
-112.6913884165952
 30
0.0
 10
171.6122639544928
 20
-112.8254026309714
 30
0.0
 10
171.6122639544928
 20
-112.8254026309714
 30
0.0
 10
171.6122639544928
 20
-112.8254026309714
 30
0.0
 10
171.6122639544928
 20
-112.8254026309714
 30
0.0
 10
171.9791666236719
 20
-112.9594168453476
 30
0.0
 10
172.166235308521
 20
-113.3614594884763
 30
0.0
 10
172.0318765845962
 20
-113.7283621576554
 30
0.0
 10
172.0318765845962
 20
-113.7283621576554
 30
0.0
 10
172.0318765845962
 20
-113.7283621576554
 30
0.0
 10
172.0318765845962
 20
-113.7283621576554
 30
0.0
 10
171.9295572486843
 20
-114.0177501784164
 30
0.0
 10
171.6580837244466
 20
-114.1941390672612
 30
0.0
 10
171.3724853087194
 20
-114.1941390672612
 30
0.0
 10
171.3724853087194
 20
-114.1941390672612
 30
0.0
 10
171.3724853087194
 20
-114.1941390672612
 30
0.0
 10
171.3724853087194
 20
-114.1941390672612
 30
0.0
 10
171.2911810552675
 20
-114.1941390672612
 30
0.0
 10
171.2098768018156
 20
-114.1800141757717
 30
0.0
 10
171.1289170579122
 20
-114.1517643927926
 30
0.0
  0
SPLINE
  5
4E
330
1F
100
AcDbEntity
  8
Laag 1
370
     0
100
AcDbSpline
210
0.0
220
0.0
230
1.0
 70
    11
 71
     3
 72
    32
 73
    28
 74
     0
 42
0.0000000001
 43
0.0000000001
 12
1.0
 22
0.0
 32
0.0
 13
1.0
 23
0.0
 33
0.0
 40
0.0
 40
0.0
 40
0.0
 40
0.0
 40
1.0
 40
1.0
 40
1.0
 40
2.0
 40
2.0
 40
2.0
 40
3.0
 40
3.0
 40
3.0
 40
4.0
 40
4.0
 40
4.0
 40
5.0
 40
5.0
 40
5.0
 40
6.0
 40
6.0
 40
6.0
 40
7.0
 40
7.0
 40
7.0
 40
8.0
 40
8.0
 40
8.0
 40
9.0
 40
9.0
 40
9.0
 40
9.0
 10
124.8163261949244
 20
-113.7249170621702
 30
0.0
 10
124.6821397257739
 20
-113.3580143929911
 30
0.0
 10
124.8726535061082
 20
-112.9521821448286
 30
0.0
 10
125.2395561752873
 20
-112.8219575354862
 30
0.0
 10
125.2395561752873
 20
-112.8219575354862
 30
0.0
 10
125.2395561752873
 20
-112.8219575354862
 30
0.0
 10
125.2395561752873
 20
-112.8219575354862
 30
0.0
 10
125.6030137489812
 20
-112.6875988115614
 30
0.0
 10
126.0086737423694
 20
-112.8781125918958
 30
0.0
 10
126.1426879567456
 20
-113.2415701655896
 30
0.0
 10
126.1426879567456
 20
-113.2415701655896
 30
0.0
 10
126.1426879567456
 20
-113.2415701655896
 30
0.0
 10
126.1426879567456
 20
-113.2415701655896
 30
0.0
 10
126.2767021711218
 20
-113.6084728347687
 30
0.0
 10
126.0861883907875
 20
-114.0143050829312
 30
0.0
 10
125.7192857216084
 20
-114.1483192973074
 30
0.0
 10
125.7192857216084
 20
-114.1483192973074
 30
0.0
 10
125.7192857216084
 20
-114.1483192973074
 30
0.0
 10
125.7192857216084
 20
-114.1483192973074
 30
0.0
 10
125.6417710731903
 20
-114.1765690802864
 30
0.0
 10
125.5606390745126
 20
-114.1906939717759
 30
0.0
 10
125.479507075835
 20
-114.1906939717759
 30
0.0
 10
125.479507075835
 20
-114.1906939717759
 30
0.0
 10
125.479507075835
 20
-114.1906939717759
 30
0.0
 10
125.479507075835
 20
-114.1906939717759
 30
0.0
 10
125.190119055074
 20
-114.1906939717759
 30
0.0
 10
124.9220906263216
 20
-114.0105154778974
 30
0.0
 10
124.8163261949244
 20
-113.7249170621702
 30
0.0
  0
SPLINE
  5
4F
330
1F
100
AcDbEntity
  8
Laag 1
370
     0
100
AcDbSpline
210
0.0
220
0.0
230
1.0
 70
    11
 71
     3
 72
    38
 73
    34
 74
     0
 42
0.0000000001
 43
0.0000000001
 12
1.0
 22
0.0
 32
0.0
 13
1.0
 23
0.0
 33
0.0
 40
0.0
 40
0.0
 40
0.0
 40
0.0
 40
1.0
 40
1.0
 40
1.0
 40
2.0
 40
2.0
 40
2.0
 40
3.0
 40
3.0
 40
3.0
 40
4.0
 40
4.0
 40
4.0
 40
5.0
 40
5.0
 40
5.0
 40
6.0
 40
6.0
 40
6.0
 40
7.0
 40
7.0
 40
7.0
 40
8.0
 40
8.0
 40
8.0
 40
9.0
 40
9.0
 40
9.0
 40
10.0
 40
10.0
 40
10.0
 40
11.0
 40
11.0
 40
11.0
 40
11.0
 10
172.3495143883362
 20
-110.0738048669024
 30
0.0
 10
171.9650417321824
 20
-110.00662550494
 30
0.0
 10
171.7073485898857
 20
-109.6397228357609
 30
0.0
 10
171.774527951848
 20
-109.255250179607
 30
0.0
 10
171.774527951848
 20
-109.255250179607
 30
0.0
 10
171.774527951848
 20
-109.255250179607
 30
0.0
 10
171.774527951848
 20
-109.255250179607
 30
0.0
 10
171.774527951848
 20
-109.255250179607
 30
0.0
 10
171.774527951848
 20
-109.255250179607
 30
0.0
 10
171.774527951848
 20
-109.255250179607
 30
0.0
 10
171.774527951848
 20
-109.255250179607
 30
0.0
 10
171.774527951848
 20
-109.255250179607
 30
0.0
 10
171.774527951848
 20
-109.255250179607
 30
0.0
 10
171.8413628042619
 20
-108.8707775234531
 30
0.0
 10
172.208265473441
 20
-108.6130843811565
 30
0.0
 10
172.5892930341096
 20
-108.6837088386041
 30
0.0
 10
172.5892930341096
 20
-108.6837088386041
 30
0.0
 10
172.5892930341096
 20
-108.6837088386041
 30
0.0
 10
172.5892930341096
 20
-108.6837088386041
 30
0.0
 10
172.9737656902635
 20
-108.7508882005665
 30
0.0
 10
173.2314588325602
 20
-109.1140012647118
 30
0.0
 10
173.1642794705978
 20
-109.4984739208657
 30
0.0
 10
173.1642794705978
 20
-109.4984739208657
 30
0.0
 10
173.1642794705978
 20
-109.4984739208657
 30
0.0
 10
173.1642794705978
 20
-109.4984739208657
 30
0.0
 10
173.1043348091545
 20
-109.8409164120995
 30
0.0
 10
172.8046115019378
 20
-110.0841401533581
 30
0.0
 10
172.4694037112229
 20
-110.0841401533581
 30
0.0
 10
172.4694037112229
 20
-110.0841401533581
 30
0.0
 10
172.4694037112229
 20
-110.0841401533581
 30
0.0
 10
172.4694037112229
 20
-110.0841401533581
 30
0.0
 10
172.4308186417881
 20
-110.0841401533581
 30
0.0
 10
172.3884439673196
 20
-110.0806950578729
 30
0.0
 10
172.3495143883362
 20
-110.0738048669024
 30
0.0
  0
SPLINE
  5
50
330
1F
100
AcDbEntity
  8
Laag 1
370
     0
100
AcDbSpline
210
0.0
220
0.0
230
1.0
 70
    11
 71
     3
 72
    41
 73
    37
 74
     0
 42
0.0000000001
 43
0.0000000001
 12
1.0
 22
0.0
 32
0.0
 13
1.0
 23
0.0
 33
0.0
 40
0.0
 40
0.0
 40
0.0
 40
0.0
 40
1.0
 40
1.0
 40
1.0
 40
2.0
 40
2.0
 40
2.0
 40
3.0
 40
3.0
 40
3.0
 40
4.0
 40
4.0
 40
4.0
 40
5.0
 40
5.0
 40
5.0
 40
6.0
 40
6.0
 40
6.0
 40
7.0
 40
7.0
 40
7.0
 40
8.0
 40
8.0
 40
8.0
 40
9.0
 40
9.0
 40
9.0
 40
10.0
 40
10.0
 40
10.0
 40
11.0
 40
11.0
 40
11.0
 40
12.0
 40
12.0
 40
12.0
 40
12.0
 10
123.6837510541485
 20
-109.4950288253804
 30
0.0
 10
123.6837510541485
 20
-109.4950288253804
 30
0.0
 10
123.687368404408
 20
-109.4950288253804
 30
0.0
 10
123.687368404408
 20
-109.4950288253804
 30
0.0
 10
123.6167439469604
 20
-109.1105561692265
 30
0.0
 10
123.8742648344828
 20
-108.7470985955327
 30
0.0
 10
124.258909745411
 20
-108.6768186476336
 30
0.0
 10
124.258909745411
 20
-108.6768186476336
 30
0.0
 10
124.258909745411
 20
-108.6768186476336
 30
0.0
 10
124.258909745411
 20
-108.6768186476336
 30
0.0
 10
124.6433824015648
 20
-108.6096392856712
 30
0.0
 10
125.0066677204844
 20
-108.8669879184194
 30
0.0
 10
125.0772921779321
 20
-109.2518050841218
 30
0.0
 10
125.0772921779321
 20
-109.2518050841218
 30
0.0
 10
125.0772921779321
 20
-109.2518050841218
 30
0.0
 10
125.0772921779321
 20
-109.2518050841218
 30
0.0
 10
125.0772921779321
 20
-109.2518050841218
 30
0.0
 10
125.0772921779321
 20
-109.2518050841218
 30
0.0
 10
125.0772921779321
 20
-109.2518050841218
 30
0.0
 10
125.0772921779321
 20
-109.2518050841218
 30
0.0
 10
125.0772921779321
 20
-109.2518050841218
 30
0.0
 10
125.0772921779321
 20
-109.2518050841218
 30
0.0
 10
125.1442992851202
 20
-109.6362777402757
 30
0.0
 10
124.8867783975978
 20
-109.9997353139695
 30
0.0
 10
124.5023057414439
 20
-110.0665701663834
 30
0.0
 10
124.5023057414439
 20
-110.0665701663834
 30
0.0
 10
124.5023057414439
 20
-110.0665701663834
 30
0.0
 10
124.5023057414439
 20
-110.0665701663834
 30
0.0
 10
124.4599310669753
 20
-110.0738048669024
 30
0.0
 10
124.4211737427662
 20
-110.0772499623876
 30
0.0
 10
124.3787990682977
 20
-110.0772499623876
 30
0.0
 10
124.3787990682977
 20
-110.0772499623876
 30
0.0
 10
124.3787990682977
 20
-110.0772499623876
 30
0.0
 10
124.3787990682977
 20
-110.0772499623876
 30
0.0
 10
124.0435912775829
 20
-110.0772499623876
 30
0.0
 10
123.7473130658514
 20
-109.8371268070657
 30
0.0
 10
123.6837510541485
 20
-109.4950288253804
 30
0.0
  0
SPLINE
  5
51
330
1F
100
AcDbEntity
  8
Laag 1
370
     0
100
AcDbSpline
210
0.0
220
0.0
230
1.0
 70
    11
 71
     3
 72
    38
 73
    34
 74
     0
 42
0.0000000001
 43
0.0000000001
 12
1.0
 22
0.0
 32
0.0
 13
1.0
 23
0.0
 33
0.0
 40
0.0
 40
0.0
 40
0.0
 40
0.0
 40
1.0
 40
1.0
 40
1.0
 40
2.0
 40
2.0
 40
2.0
 40
3.0
 40
3.0
 40
3.0
 40
4.0
 40
4.0
 40
4.0
 40
5.0
 40
5.0
 40
5.0
 40
6.0
 40
6.0
 40
6.0
 40
7.0
 40
7.0
 40
7.0
 40
8.0
 40
8.0
 40
8.0
 40
9.0
 40
9.0
 40
9.0
 40
10.0
 40
10.0
 40
10.0
 40
11.0
 40
11.0
 40
11.0
 40
11.0
 10
171.774527951848
 20
-101.0144095241152
 30
0.0
 10
171.774527951848
 20
-101.0144095241152
 30
0.0
 10
171.774527951848
 20
-101.0144095241152
 30
0.0
 10
171.774527951848
 20
-101.0144095241152
 30
0.0
 10
171.774527951848
 20
-101.0144095241152
 30
0.0
 10
171.774527951848
 20
-101.0144095241152
 30
0.0
 10
171.774527951848
 20
-101.0144095241152
 30
0.0
 10
171.7073485898857
 20
-100.629764613187
 30
0.0
 10
171.9650417321824
 20
-100.2664792942674
 30
0.0
 10
172.3495143883362
 20
-100.1994721870793
 30
0.0
 10
172.3495143883362
 20
-100.1994721870793
 30
0.0
 10
172.3495143883362
 20
-100.1994721870793
 30
0.0
 10
172.3495143883362
 20
-100.1994721870793
 30
0.0
 10
172.7339870444901
 20
-100.1288477296317
 30
0.0
 10
173.097444618184
 20
-100.3863686171541
 30
0.0
 10
173.1642794705978
 20
-100.770841273308
 30
0.0
 10
173.1642794705978
 20
-100.770841273308
 30
0.0
 10
173.1680690756316
 20
-100.770841273308
 30
0.0
 10
173.1680690756316
 20
-100.770841273308
 30
0.0
 10
173.2314588325602
 20
-101.1554861842361
 30
0.0
 10
172.9775552952973
 20
-101.5223888534152
 30
0.0
 10
172.5930826391434
 20
-101.5893959606034
 30
0.0
 10
172.5930826391434
 20
-101.5893959606034
 30
0.0
 10
172.5930826391434
 20
-101.5893959606034
 30
0.0
 10
172.5930826391434
 20
-101.5893959606034
 30
0.0
 10
172.5507079646748
 20
-101.5964584063481
 30
0.0
 10
172.5083332902063
 20
-101.5999035018334
 30
0.0
 10
172.4694037112229
 20
-101.5999035018334
 30
0.0
 10
172.4694037112229
 20
-101.5999035018334
 30
0.0
 10
172.4694037112229
 20
-101.5999035018334
 30
0.0
 10
172.4694037112229
 20
-101.5999035018334
 30
0.0
 10
172.1341959205081
 20
-101.5999035018334
 30
0.0
 10
171.8344726132914
 20
-101.3565075058005
 30
0.0
 10
171.774527951848
 20
-101.0144095241152
 30
0.0
  0
SPLINE
  5
52
330
1F
100
AcDbEntity
  8
Laag 1
370
     0
100
AcDbSpline
210
0.0
220
0.0
230
1.0
 70
    11
 71
     3
 72
    32
 73
    28
 74
     0
 42
0.0000000001
 43
0.0000000001
 12
1.0
 22
0.0
 32
0.0
 13
1.0
 23
0.0
 33
0.0
 40
0.0
 40
0.0
 40
0.0
 40
0.0
 40
1.0
 40
1.0
 40
1.0
 40
2.0
 40
2.0
 40
2.0
 40
3.0
 40
3.0
 40
3.0
 40
4.0
 40
4.0
 40
4.0
 40
5.0
 40
5.0
 40
5.0
 40
6.0
 40
6.0
 40
6.0
 40
7.0
 40
7.0
 40
7.0
 40
8.0
 40
8.0
 40
8.0
 40
9.0
 40
9.0
 40
9.0
 40
9.0
 10
124.258909745411
 20
-101.5823335148586
 30
0.0
 10
123.8742648344828
 20
-101.5153264076705
 30
0.0
 10
123.6203612972199
 20
-101.1484237384914
 30
0.0
 10
123.687368404408
 20
-100.7673961778227
 30
0.0
 10
123.687368404408
 20
-100.7673961778227
 30
0.0
 10
123.687368404408
 20
-100.7673961778227
 30
0.0
 10
123.687368404408
 20
-100.7673961778227
 30
0.0
 10
123.7543755115961
 20
-100.3829235216689
 30
0.0
 10
124.1212781807752
 20
-100.1254026341464
 30
0.0
 10
124.5023057414439
 20
-100.1924097413345
 30
0.0
 10
124.5023057414439
 20
-100.1924097413345
 30
0.0
 10
124.5023057414439
 20
-100.1924097413345
 30
0.0
 10
124.5023057414439
 20
-100.1924097413345
 30
0.0
 10
124.8867783975978
 20
-100.2594168485226
 30
0.0
 10
125.1442992851202
 20
-100.6263195177018
 30
0.0
 10
125.0772921779321
 20
-101.0107921738556
 30
0.0
 10
125.0772921779321
 20
-101.0107921738556
 30
0.0
 10
125.0772921779321
 20
-101.0107921738556
 30
0.0
 10
125.0772921779321
 20
-101.0107921738556
 30
0.0
 10
125.0173475164887
 20
-101.3530624103152
 30
0.0
 10
124.7174519544977
 20
-101.5928410560886
 30
0.0
 10
124.3822441637829
 20
-101.5928410560886
 30
0.0
 10
124.3822441637829
 20
-101.5928410560886
 30
0.0
 10
124.3822441637829
 20
-101.5928410560886
 30
0.0
 10
124.3822441637829
 20
-101.5928410560886
 30
0.0
 10
124.3434868395739
 20
-101.5928410560886
 30
0.0
 10
124.3011121651053
 20
-101.5893959606034
 30
0.0
 10
124.258909745411
 20
-101.5823335148586
 30
0.0
  0
SPLINE
  5
53
330
1F
100
AcDbEntity
  8
Laag 1
370
     0
100
AcDbSpline
210
0.0
220
0.0
230
1.0
 70
    11
 71
     3
 72
    38
 73
    34
 74
     0
 42
0.0000000001
 43
0.0000000001
 12
1.0
 22
0.0
 32
0.0
 13
1.0
 23
0.0
 33
0.0
 40
0.0
 40
0.0
 40
0.0
 40
0.0
 40
1.0
 40
1.0
 40
1.0
 40
2.0
 40
2.0
 40
2.0
 40
3.0
 40
3.0
 40
3.0
 40
4.0
 40
4.0
 40
4.0
 40
5.0
 40
5.0
 40
5.0
 40
6.0
 40
6.0
 40
6.0
 40
7.0
 40
7.0
 40
7.0
 40
8.0
 40
8.0
 40
8.0
 40
9.0
 40
9.0
 40
9.0
 40
10.0
 40
10.0
 40
10.0
 40
11.0
 40
11.0
 40
11.0
 40
11.0
 10
170.7089599182603
 20
-97.02447218787306
 30
0.0
 10
170.7089599182603
 20
-97.02447218787306
 30
0.0
 10
170.7089599182603
 20
-97.02447218787306
 30
0.0
 10
170.7089599182603
 20
-97.02447218787306
 30
0.0
 10
170.7089599182603
 20
-97.02447218787306
 30
0.0
 10
170.7089599182603
 20
-97.02447218787306
 30
0.0
 10
170.7089599182603
 20
-97.02447218787306
 30
0.0
 10
170.5749457038841
 20
-96.65756951869395
 30
0.0
 10
170.7654594842184
 20
-96.25190952530578
 30
0.0
 10
171.1289170579122
 20
-96.1177230561553
 30
0.0
 10
171.1289170579122
 20
-96.1177230561553
 30
0.0
 10
171.1289170579122
 20
-96.1177230561553
 30
0.0
 10
171.1289170579122
 20
-96.1177230561553
 30
0.0
 10
171.4958197270913
 20
-95.98370884177908
 30
0.0
 10
171.9016519752538
 20
-96.17422262211339
 30
0.0
 10
172.03566618963
 20
-96.5411252912925
 30
0.0
 10
172.03566618963
 20
-96.5411252912925
 30
0.0
 10
172.03566618963
 20
-96.5411252912925
 30
0.0
 10
172.03566618963
 20
-96.5411252912925
 30
0.0
 10
172.166235308521
 20
-96.90802796047161
 30
0.0
 10
171.9791666236719
 20
-97.31024285837454
 30
0.0
 10
171.6122639544928
 20
-97.44425707275074
 30
0.0
 10
171.6122639544928
 20
-97.44425707275074
 30
0.0
 10
171.6122639544928
 20
-97.44425707275074
 30
0.0
 10
171.6122639544928
 20
-97.44425707275074
 30
0.0
 10
171.5347493060746
 20
-97.47250685572979
 30
0.0
 10
171.4534450526228
 20
-97.48663174721932
 30
0.0
 10
171.3724853087194
 20
-97.48663174721932
 30
0.0
 10
171.3724853087194
 20
-97.48663174721932
 30
0.0
 10
171.3724853087194
 20
-97.48663174721932
 30
0.0
 10
171.3724853087194
 20
-97.48663174721932
 30
0.0
 10
171.0830972879584
 20
-97.48663174721932
 30
0.0
 10
170.8112792541722
 20
-97.31024285837454
 30
0.0
 10
170.7089599182603
 20
-97.02447218787306
 30
0.0
  0
SPLINE
  5
54
330
1F
100
AcDbEntity
  8
Laag 1
370
     0
100
AcDbSpline
210
0.0
220
0.0
230
1.0
 70
    11
 71
     3
 72
    32
 73
    28
 74
     0
 42
0.0000000001
 43
0.0000000001
 12
1.0
 22
0.0
 32
0.0
 13
1.0
 23
0.0
 33
0.0
 40
0.0
 40
0.0
 40
0.0
 40
0.0
 40
1.0
 40
1.0
 40
1.0
 40
2.0
 40
2.0
 40
2.0
 40
3.0
 40
3.0
 40
3.0
 40
4.0
 40
4.0
 40
4.0
 40
5.0
 40
5.0
 40
5.0
 40
6.0
 40
6.0
 40
6.0
 40
7.0
 40
7.0
 40
7.0
 40
8.0
 40
8.0
 40
8.0
 40
9.0
 40
9.0
 40
9.0
 40
9.0
 10
125.2395561752873
 20
-97.44063972249124
 30
0.0
 10
124.8726535061082
 20
-97.30662550811502
 30
0.0
 10
124.6857570760334
 20
-96.90096551472685
 30
0.0
 10
124.8197712904096
 20
-96.53750794103298
 30
0.0
 10
124.8197712904096
 20
-96.53750794103298
 30
0.0
 10
124.8197712904096
 20
-96.53750794103298
 30
0.0
 10
124.8197712904096
 20
-96.53750794103298
 30
0.0
 10
124.9503404093006
 20
-96.17060527185389
 30
0.0
 10
125.3560004026888
 20
-95.98026374629383
 30
0.0
 10
125.7229030718679
 20
-96.11427796067005
 30
0.0
 10
125.7229030718679
 20
-96.11427796067005
 30
0.0
 10
125.7229030718679
 20
-96.11427796067005
 30
0.0
 10
125.7229030718679
 20
-96.11427796067005
 30
0.0
 10
126.089805741047
 20
-96.24829217504627
 30
0.0
 10
126.2767021711218
 20
-96.65395216843443
 30
0.0
 10
126.1461330522308
 20
-97.0174097421283
 30
0.0
 10
126.1461330522308
 20
-97.0174097421283
 30
0.0
 10
126.1461330522308
 20
-97.0174097421283
 30
0.0
 10
126.1461330522308
 20
-97.0174097421283
 30
0.0
 10
126.0403686208337
 20
-97.30662550811502
 30
0.0
 10
125.7687228418217
 20
-97.4830143969598
 30
0.0
 10
125.479507075835
 20
-97.4830143969598
 30
0.0
 10
125.479507075835
 20
-97.4830143969598
 30
0.0
 10
125.479507075835
 20
-97.4830143969598
 30
0.0
 10
125.479507075835
 20
-97.4830143969598
 30
0.0
 10
125.4018201726426
 20
-97.4830143969598
 30
0.0
 10
125.320688173965
 20
-97.46888950547029
 30
0.0
 10
125.2395561752873
 20
-97.44063972249124
 30
0.0
  0
SPLINE
  5
55
330
1F
100
AcDbEntity
  8
Laag 1
370
     0
100
AcDbSpline
210
0.0
220
0.0
230
1.0
 70
    11
 71
     3
 72
    32
 73
    28
 74
     0
 42
0.0000000001
 43
0.0000000001
 12
1.0
 22
0.0
 32
0.0
 13
1.0
 23
0.0
 33
0.0
 40
0.0
 40
0.0
 40
0.0
 40
0.0
 40
1.0
 40
1.0
 40
1.0
 40
2.0
 40
2.0
 40
2.0
 40
3.0
 40
3.0
 40
3.0
 40
4.0
 40
4.0
 40
4.0
 40
5.0
 40
5.0
 40
5.0
 40
6.0
 40
6.0
 40
6.0
 40
7.0
 40
7.0
 40
7.0
 40
8.0
 40
8.0
 40
8.0
 40
9.0
 40
9.0
 40
9.0
 40
9.0
 10
168.9591959213019
 20
-93.27793084766385
 30
0.0
 10
168.7652370454823
 20
-92.94272305694905
 30
0.0
 10
168.8816812728838
 20
-92.50881328058183
 30
0.0
 10
169.2168890635986
 20
-92.31485440476227
 30
0.0
 10
169.2168890635986
 20
-92.31485440476227
 30
0.0
 10
169.2168890635986
 20
-92.31485440476227
 30
0.0
 10
169.2168890635986
 20
-92.31485440476227
 30
0.0
 10
169.5555419497986
 20
-92.12072327416844
 30
0.0
 10
169.9858343759063
 20
-92.23372240608464
 30
0.0
 10
170.1797932517259
 20
-92.57237529228469
 30
0.0
 10
170.1797932517259
 20
-92.57237529228469
 30
0.0
 10
170.1797932517259
 20
-92.57237529228469
 30
0.0
 10
170.1797932517259
 20
-92.57237529228469
 30
0.0
 10
170.3775417325792
 20
-92.91102817848476
 30
0.0
 10
170.2610975051778
 20
-93.34149285936671
 30
0.0
 10
169.9224446189777
 20
-93.53545173518629
 30
0.0
 10
169.9224446189777
 20
-93.53545173518629
 30
0.0
 10
169.9224446189777
 20
-93.53545173518629
 30
0.0
 10
169.9224446189777
 20
-93.53545173518629
 30
0.0
 10
169.8128905825468
 20
-93.60245884237439
 30
0.0
 10
169.6930012596601
 20
-93.63070862535344
 30
0.0
 10
169.5731119367734
 20
-93.63070862535344
 30
0.0
 10
169.5731119367734
 20
-93.63070862535344
 30
0.0
 10
169.5731119367734
 20
-93.63070862535344
 30
0.0
 10
169.5731119367734
 20
-93.63070862535344
 30
0.0
 10
169.326098590481
 20
-93.63070862535344
 30
0.0
 10
169.0897650401928
 20
-93.50375685672198
 30
0.0
 10
168.9591959213019
 20
-93.27793084766385
 30
0.0
  0
SPLINE
  5
56
330
1F
100
AcDbEntity
  8
Laag 1
370
     0
100
AcDbSpline
210
0.0
220
0.0
230
1.0
 70
    11
 71
     3
 72
    38
 73
    34
 74
     0
 42
0.0000000001
 43
0.0000000001
 12
1.0
 22
0.0
 32
0.0
 13
1.0
 23
0.0
 33
0.0
 40
0.0
 40
0.0
 40
0.0
 40
0.0
 40
1.0
 40
1.0
 40
1.0
 40
2.0
 40
2.0
 40
2.0
 40
3.0
 40
3.0
 40
3.0
 40
4.0
 40
4.0
 40
4.0
 40
5.0
 40
5.0
 40
5.0
 40
6.0
 40
6.0
 40
6.0
 40
7.0
 40
7.0
 40
7.0
 40
8.0
 40
8.0
 40
8.0
 40
9.0
 40
9.0
 40
9.0
 40
10.0
 40
10.0
 40
10.0
 40
11.0
 40
11.0
 40
11.0
 40
11.0
 10
126.9293755108024
 20
-93.53545173518629
 30
0.0
 10
126.5907226246023
 20
-93.3378755091072
 30
0.0
 10
126.4742783972009
 20
-92.90741082822524
 30
0.0
 10
126.67185462328
 20
-92.56875794202517
 30
0.0
 10
126.67185462328
 20
-92.56875794202517
 30
0.0
 10
126.67185462328
 20
-92.56875794202517
 30
0.0
 10
126.67185462328
 20
-92.56875794202517
 30
0.0
 10
126.8658134990995
 20
-92.23372240608464
 30
0.0
 10
127.2997232754667
 20
-92.1172781786832
 30
0.0
 10
127.6349310661816
 20
-92.31123705450275
 30
0.0
 10
127.6349310661816
 20
-92.31123705450275
 30
0.0
 10
127.6349310661816
 20
-92.31123705450275
 30
0.0
 10
127.6349310661816
 20
-92.31123705450275
 30
0.0
 10
127.9735839523816
 20
-92.50881328058183
 30
0.0
 10
128.0864108295235
 20
-92.9392779614638
 30
0.0
 10
127.892451953704
 20
-93.27793084766385
 30
0.0
 10
127.892451953704
 20
-93.27793084766385
 30
0.0
 10
127.892451953704
 20
-93.27793084766385
 30
0.0
 10
127.892451953704
 20
-93.27793084766385
 30
0.0
 10
127.892451953704
 20
-93.27793084766385
 30
0.0
 10
127.892451953704
 20
-93.27793084766385
 30
0.0
 10
127.892451953704
 20
-93.27793084766385
 30
0.0
 10
127.892451953704
 20
-93.27793084766385
 30
0.0
 10
127.892451953704
 20
-93.27793084766385
 30
0.0
 10
127.892451953704
 20
-93.27793084766385
 30
0.0
 10
127.761882834813
 20
-93.50375685672198
 30
0.0
 10
127.5255492845249
 20
-93.63070862535344
 30
0.0
 10
127.282153288492
 20
-93.63070862535344
 30
0.0
 10
127.282153288492
 20
-93.63070862535344
 30
0.0
 10
127.282153288492
 20
-93.63070862535344
 30
0.0
 10
127.282153288492
 20
-93.63070862535344
 30
0.0
 10
127.1622639656053
 20
-93.63070862535344
 30
0.0
 10
127.0387572924591
 20
-93.59901374688914
 30
0.0
 10
126.9293755108024
 20
-93.53545173518629
 30
0.0
  0
SPLINE
  5
57
330
1F
100
AcDbEntity
  8
Laag 1
370
     0
100
AcDbSpline
210
0.0
220
0.0
230
1.0
 70
    11
 71
     3
 72
    38
 73
    34
 74
     0
 42
0.0000000001
 43
0.0000000001
 12
1.0
 22
0.0
 32
0.0
 13
1.0
 23
0.0
 33
0.0
 40
0.0
 40
0.0
 40
0.0
 40
0.0
 40
1.0
 40
1.0
 40
1.0
 40
2.0
 40
2.0
 40
2.0
 40
3.0
 40
3.0
 40
3.0
 40
4.0
 40
4.0
 40
4.0
 40
5.0
 40
5.0
 40
5.0
 40
6.0
 40
6.0
 40
6.0
 40
7.0
 40
7.0
 40
7.0
 40
8.0
 40
8.0
 40
8.0
 40
9.0
 40
9.0
 40
9.0
 40
10.0
 40
10.0
 40
10.0
 40
11.0
 40
11.0
 40
11.0
 40
11.0
 10
166.5886257179015
 20
-89.89484708114851
 30
0.0
 10
166.5886257179015
 20
-89.89484708114851
 30
0.0
 10
166.5886257179015
 20
-89.89484708114851
 30
0.0
 10
166.5886257179015
 20
-89.89484708114851
 30
0.0
 10
166.5886257179015
 20
-89.89484708114851
 30
0.0
 10
166.5886257179015
 20
-89.89484708114851
 30
0.0
 10
166.5886257179015
 20
-89.89484708114851
 30
0.0
 10
166.3347221806386
 20
-89.59495151915752
 30
0.0
 10
166.3733072500733
 20
-89.15036194678602
 30
0.0
 10
166.6733750668386
 20
-88.89990350500837
 30
0.0
 10
166.6733750668386
 20
-88.89990350500837
 30
0.0
 10
166.6733750668386
 20
-88.89990350500837
 30
0.0
 10
166.6733750668386
 20
-88.89990350500837
 30
0.0
 10
166.9730983740554
 20
-88.6494450632307
 30
0.0
 10
167.4175156916526
 20
-88.68820238743976
 30
0.0
 10
167.6683186429788
 20
-88.98809794943077
 30
0.0
 10
167.6683186429788
 20
-88.98809794943077
 30
0.0
 10
167.6683186429788
 20
-88.98809794943077
 30
0.0
 10
167.6683186429788
 20
-88.98809794943077
 30
0.0
 10
167.9187770847564
 20
-89.28454841593651
 30
0.0
 10
167.8798475057731
 20
-89.73241082901899
 30
0.0
 10
167.5801241985564
 20
-89.98304152557091
 30
0.0
 10
167.5801241985564
 20
-89.98304152557091
 30
0.0
 10
167.5801241985564
 20
-89.98304152557091
 30
0.0
 10
167.5801241985564
 20
-89.98304152557091
 30
0.0
 10
167.4495550796654
 20
-90.09225105245334
 30
0.0
 10
167.2872910823101
 20
-90.14530552292618
 30
0.0
 10
167.1284721804401
 20
-90.14530552292618
 30
0.0
 10
167.1284721804401
 20
-90.14530552292618
 30
0.0
 10
167.1284721804401
 20
-90.14530552292618
 30
0.0
 10
167.1284721804401
 20
-90.14530552292618
 30
0.0
 10
166.9272786041015
 20
-90.14530552292618
 30
0.0
 10
166.7260850277629
 20
-90.06055617398903
 30
0.0
 10
166.5886257179015
 20
-89.89484708114851
 30
0.0
  0
SPLINE
  5
58
330
1F
100
AcDbEntity
  8
Laag 1
370
     0
100
AcDbSpline
210
0.0
220
0.0
230
1.0
 70
    11
 71
     3
 72
    32
 73
    28
 74
     0
 42
0.0000000001
 43
0.0000000001
 12
1.0
 22
0.0
 32
0.0
 13
1.0
 23
0.0
 33
0.0
 40
0.0
 40
0.0
 40
0.0
 40
0.0
 40
1.0
 40
1.0
 40
1.0
 40
2.0
 40
2.0
 40
2.0
 40
3.0
 40
3.0
 40
3.0
 40
4.0
 40
4.0
 40
4.0
 40
5.0
 40
5.0
 40
5.0
 40
6.0
 40
6.0
 40
6.0
 40
7.0
 40
7.0
 40
7.0
 40
8.0
 40
8.0
 40
8.0
 40
9.0
 40
9.0
 40
9.0
 40
9.0
 10
129.271868185998
 20
-89.9794241753114
 30
0.0
 10
128.971972624007
 20
-89.72896573353374
 30
0.0
 10
128.933215299798
 20
-89.28454841593651
 30
0.0
 10
129.1871188370609
 20
-88.9846528539455
 30
0.0
 10
129.1871188370609
 20
-88.9846528539455
 30
0.0
 10
129.1871188370609
 20
-88.9846528539455
 30
0.0
 10
129.1871188370609
 20
-88.9846528539455
 30
0.0
 10
129.4341321833533
 20
-88.68820238743976
 30
0.0
 10
129.88216685121
 20
-88.6494450632307
 30
0.0
 10
130.1784450629415
 20
-88.89990350500837
 30
0.0
 10
130.1784450629415
 20
-88.89990350500837
 30
0.0
 10
130.1784450629415
 20
-88.89990350500837
 30
0.0
 10
130.1784450629415
 20
-88.89990350500837
 30
0.0
 10
130.4783406249325
 20
-89.15036194678602
 30
0.0
 10
130.5170979491416
 20
-89.59495151915752
 30
0.0
 10
130.2666395073639
 20
-89.89484708114851
 30
0.0
 10
130.2666395073639
 20
-89.89484708114851
 30
0.0
 10
130.2666395073639
 20
-89.89484708114851
 30
0.0
 10
130.2666395073639
 20
-89.89484708114851
 30
0.0
 10
130.1255628472429
 20
-90.06055617398903
 30
0.0
 10
129.9279866211639
 20
-90.14530552292618
 30
0.0
 10
129.7269652995995
 20
-90.14530552292618
 30
0.0
 10
129.7269652995995
 20
-90.14530552292618
 30
0.0
 10
129.7269652995995
 20
-90.14530552292618
 30
0.0
 10
129.7269652995995
 20
-90.14530552292618
 30
0.0
 10
129.5647013022443
 20
-90.14530552292618
 30
0.0
 10
129.402437304889
 20
-90.09225105245334
 30
0.0
 10
129.271868185998
 20
-89.9794241753114
 30
0.0
  0
SPLINE
  5
59
330
1F
100
AcDbEntity
  8
Laag 1
370
     0
100
AcDbSpline
210
0.0
220
0.0
230
1.0
 70
    11
 71
     3
 72
    38
 73
    34
 74
     0
 42
0.0000000001
 43
0.0000000001
 12
1.0
 22
0.0
 32
0.0
 13
1.0
 23
0.0
 33
0.0
 40
0.0
 40
0.0
 40
0.0
 40
0.0
 40
1.0
 40
1.0
 40
1.0
 40
2.0
 40
2.0
 40
2.0
 40
3.0
 40
3.0
 40
3.0
 40
4.0
 40
4.0
 40
4.0
 40
5.0
 40
5.0
 40
5.0
 40
6.0
 40
6.0
 40
6.0
 40
7.0
 40
7.0
 40
7.0
 40
8.0
 40
8.0
 40
8.0
 40
9.0
 40
9.0
 40
9.0
 40
10.0
 40
10.0
 40
10.0
 40
11.0
 40
11.0
 40
11.0
 40
11.0
 10
163.6640841604729
 20
-86.97375061920518
 30
0.0
 10
163.6640841604729
 20
-86.97375061920518
 30
0.0
 10
163.6640841604729
 20
-86.97375061920518
 30
0.0
 10
163.6640841604729
 20
-86.97375061920518
 30
0.0
 10
163.6640841604729
 20
-86.97375061920518
 30
0.0
 10
163.6640841604729
 20
-86.97375061920518
 30
0.0
 10
163.6640841604729
 20
-86.97375061920518
 30
0.0
 10
163.3678059487414
 20
-86.72329217742751
 30
0.0
 10
163.3288763697581
 20
-86.27887485983028
 30
0.0
 10
163.5793348115357
 20
-85.97897929783929
 30
0.0
 10
163.5793348115357
 20
-85.97897929783929
 30
0.0
 10
163.5793348115357
 20
-85.97897929783929
 30
0.0
 10
163.5793348115357
 20
-85.97897929783929
 30
0.0
 10
163.8297932533134
 20
-85.6790837358483
 30
0.0
 10
164.2745550804592
 20
-85.64032641163924
 30
0.0
 10
164.5742783876759
 20
-85.89078485341689
 30
0.0
 10
164.5742783876759
 20
-85.89078485341689
 30
0.0
 10
164.5742783876759
 20
-85.89422994890214
 30
0.0
 10
164.5742783876759
 20
-85.89422994890214
 30
0.0
 10
164.8705565994074
 20
-86.14124329519456
 30
0.0
 10
164.9094861783907
 20
-86.5892779630513
 30
0.0
 10
164.659027736613
 20
-86.88555617478278
 30
0.0
 10
164.659027736613
 20
-86.88555617478278
 30
0.0
 10
164.659027736613
 20
-86.88555617478278
 30
0.0
 10
164.659027736613
 20
-86.88555617478278
 30
0.0
 10
164.5177788217178
 20
-87.05143752239756
 30
0.0
 10
164.320374850413
 20
-87.13963196681996
 30
0.0
 10
164.1191812740744
 20
-87.13963196681996
 30
0.0
 10
164.1191812740744
 20
-87.13963196681996
 30
0.0
 10
164.1191812740744
 20
-87.13963196681996
 30
0.0
 10
164.1191812740744
 20
-87.13963196681996
 30
0.0
 10
163.9569172767191
 20
-87.13963196681996
 30
0.0
 10
163.7980983748491
 20
-87.08313240086186
 30
0.0
 10
163.6640841604729
 20
-86.97375061920518
 30
0.0
  0
SPLINE
  5
5A
330
1F
100
AcDbEntity
  8
Laag 1
370
     0
100
AcDbSpline
210
0.0
220
0.0
230
1.0
 70
    11
 71
     3
 72
    32
 73
    28
 74
     0
 42
0.0000000001
 43
0.0000000001
 12
1.0
 22
0.0
 32
0.0
 13
1.0
 23
0.0
 33
0.0
 40
0.0
 40
0.0
 40
0.0
 40
0.0
 40
1.0
 40
1.0
 40
1.0
 40
2.0
 40
2.0
 40
2.0
 40
3.0
 40
3.0
 40
3.0
 40
4.0
 40
4.0
 40
4.0
 40
5.0
 40
5.0
 40
5.0
 40
6.0
 40
6.0
 40
6.0
 40
7.0
 40
7.0
 40
7.0
 40
8.0
 40
8.0
 40
8.0
 40
9.0
 40
9.0
 40
9.0
 40
9.0
 10
132.1927923931671
 20
-86.88555617478278
 30
0.0
 10
131.9423339513894
 20
-86.58566061279178
 30
0.0
 10
131.9810912755985
 20
-86.14124329519456
 30
0.0
 10
132.2809868375895
 20
-85.89078485341689
 30
0.0
 10
132.2809868375895
 20
-85.89078485341689
 30
0.0
 10
132.2809868375895
 20
-85.89078485341689
 30
0.0
 10
132.2809868375895
 20
-85.89078485341689
 30
0.0
 10
132.5774373040952
 20
-85.64032641163924
 30
0.0
 10
133.0252997171777
 20
-85.6790837358483
 30
0.0
 10
133.2759304137296
 20
-85.97897929783929
 30
0.0
 10
133.2759304137296
 20
-85.97897929783929
 30
0.0
 10
133.2759304137296
 20
-85.97897929783929
 30
0.0
 10
133.2759304137296
 20
-85.97897929783929
 30
0.0
 10
133.5263888555073
 20
-86.27525750957078
 30
0.0
 10
133.487459276524
 20
-86.71984708194226
 30
0.0
 10
133.1877359693072
 20
-86.97030552371993
 30
0.0
 10
133.1877359693072
 20
-86.97030552371993
 30
0.0
 10
133.1877359693072
 20
-86.97030552371993
 30
0.0
 10
133.1877359693072
 20
-86.97030552371993
 30
0.0
 10
133.0571668504163
 20
-87.08313240086186
 30
0.0
 10
132.894902853061
 20
-87.13601461656044
 30
0.0
 10
132.736083951191
 20
-87.13601461656044
 30
0.0
 10
132.736083951191
 20
-87.13601461656044
 30
0.0
 10
132.736083951191
 20
-87.13601461656044
 30
0.0
 10
132.736083951191
 20
-87.13601461656044
 30
0.0
 10
132.5350626296267
 20
-87.13601461656044
 30
0.0
 10
132.3338690532881
 20
-87.05143752239756
 30
0.0
 10
132.1927923931671
 20
-86.88555617478278
 30
0.0
  0
SPLINE
  5
5B
330
1F
100
AcDbEntity
  8
Laag 1
370
     0
100
AcDbSpline
210
0.0
220
0.0
230
1.0
 70
    11
 71
     3
 72
    32
 73
    28
 74
     0
 42
0.0000000001
 43
0.0000000001
 12
1.0
 22
0.0
 32
0.0
 13
1.0
 23
0.0
 33
0.0
 40
0.0
 40
0.0
 40
0.0
 40
0.0
 40
1.0
 40
1.0
 40
1.0
 40
2.0
 40
2.0
 40
2.0
 40
3.0
 40
3.0
 40
3.0
 40
4.0
 40
4.0
 40
4.0
 40
5.0
 40
5.0
 40
5.0
 40
6.0
 40
6.0
 40
6.0
 40
7.0
 40
7.0
 40
7.0
 40
8.0
 40
8.0
 40
8.0
 40
9.0
 40
9.0
 40
9.0
 40
9.0
 10
160.2810003939575
 20
-84.59956306554525
 30
0.0
 10
159.9457926032427
 20
-84.4056041897257
 30
0.0
 10
159.8293483758413
 20
-83.97169441335848
 30
0.0
 10
160.0233072516608
 20
-83.63648662264366
 30
0.0
 10
160.0233072516608
 20
-83.63648662264366
 30
0.0
 10
160.0233072516608
 20
-83.63648662264366
 30
0.0
 10
160.0233072516608
 20
-83.63648662264366
 30
0.0
 10
160.2210557325142
 20
-83.29783373644361
 30
0.0
 10
160.6513481586219
 20
-83.18138950904216
 30
0.0
 10
160.990001044822
 20
-83.37896573512124
 30
0.0
 10
160.990001044822
 20
-83.37896573512124
 30
0.0
 10
160.990001044822
 20
-83.37896573512124
 30
0.0
 10
160.990001044822
 20
-83.37896573512124
 30
0.0
 10
161.3252088355368
 20
-83.5729246109408
 30
0.0
 10
161.4416530629382
 20
-84.00338929182277
 30
0.0
 10
161.2476941871186
 20
-84.34204217802282
 30
0.0
 10
161.2476941871186
 20
-84.34204217802282
 30
0.0
 10
161.2476941871186
 20
-84.34204217802282
 30
0.0
 10
161.2476941871186
 20
-84.34204217802282
 30
0.0
 10
161.1136799727424
 20
-84.56786818708096
 30
0.0
 10
160.8773464224543
 20
-84.69481995571242
 30
0.0
 10
160.6337781716471
 20
-84.69481995571242
 30
0.0
 10
160.6337781716471
 20
-84.69481995571242
 30
0.0
 10
160.6337781716471
 20
-84.69481995571242
 30
0.0
 10
160.6337781716471
 20
-84.69481995571242
 30
0.0
 10
160.5138888487604
 20
-84.69481995571242
 30
0.0
 10
160.3939995258737
 20
-84.66312507724811
 30
0.0
 10
160.2810003939575
 20
-84.59956306554525
 30
0.0
  0
SPLINE
  5
5C
330
1F
100
AcDbEntity
  8
Laag 1
370
     0
100
AcDbSpline
210
0.0
220
0.0
230
1.0
 70
    11
 71
     3
 72
    32
 73
    28
 74
     0
 42
0.0000000001
 43
0.0000000001
 12
1.0
 22
0.0
 32
0.0
 13
1.0
 23
0.0
 33
0.0
 40
0.0
 40
0.0
 40
0.0
 40
0.0
 40
1.0
 40
1.0
 40
1.0
 40
2.0
 40
2.0
 40
2.0
 40
3.0
 40
3.0
 40
3.0
 40
4.0
 40
4.0
 40
4.0
 40
5.0
 40
5.0
 40
5.0
 40
6.0
 40
6.0
 40
6.0
 40
7.0
 40
7.0
 40
7.0
 40
8.0
 40
8.0
 40
8.0
 40
9.0
 40
9.0
 40
9.0
 40
9.0
 10
135.607743292921
 20
-84.34204217802282
 30
0.0
 10
135.4136121623272
 20
-84.00338929182277
 30
0.0
 10
135.5266112942434
 20
-83.5729246109408
 30
0.0
 10
135.8652641804434
 20
-83.375520639636
 30
0.0
 10
135.8652641804434
 20
-83.375520639636
 30
0.0
 10
135.8652641804434
 20
-83.37896573512124
 30
0.0
 10
135.8652641804434
 20
-83.37896573512124
 30
0.0
 10
136.200299716384
 20
-83.18138950904216
 30
0.0
 10
136.6343817475255
 20
-83.29783373644361
 30
0.0
 10
136.828340623345
 20
-83.63304152715841
 30
0.0
 10
136.828340623345
 20
-83.63304152715841
 30
0.0
 10
136.828340623345
 20
-83.63304152715841
 30
0.0
 10
136.828340623345
 20
-83.63304152715841
 30
0.0
 10
137.0259168494241
 20
-83.97169441335848
 30
0.0
 10
136.9094726220226
 20
-84.40198683946618
 30
0.0
 10
136.5708197358226
 20
-84.59956306554525
 30
0.0
 10
136.5708197358226
 20
-84.59956306554525
 30
0.0
 10
136.5708197358226
 20
-84.59956306554525
 30
0.0
 10
136.5708197358226
 20
-84.59956306554525
 30
0.0
 10
136.4614379541659
 20
-84.66312507724811
 30
0.0
 10
136.3379312810197
 20
-84.69481995571242
 30
0.0
 10
136.218041958133
 20
-84.69481995571242
 30
0.0
 10
136.218041958133
 20
-84.69481995571242
 30
0.0
 10
136.218041958133
 20
-84.69481995571242
 30
0.0
 10
136.218041958133
 20
-84.69481995571242
 30
0.0
 10
135.9746459621001
 20
-84.69481995571242
 30
0.0
 10
135.738312411812
 20
-84.56786818708096
 30
0.0
 10
135.607743292921
 20
-84.34204217802282
 30
0.0
  0
SPLINE
  5
5D
330
1F
100
AcDbEntity
  8
Laag 1
370
     0
100
AcDbSpline
210
0.0
220
0.0
230
1.0
 70
    11
 71
     3
 72
    38
 73
    34
 74
     0
 42
0.0000000001
 43
0.0000000001
 12
1.0
 22
0.0
 32
0.0
 13
1.0
 23
0.0
 33
0.0
 40
0.0
 40
0.0
 40
0.0
 40
0.0
 40
1.0
 40
1.0
 40
1.0
 40
2.0
 40
2.0
 40
2.0
 40
3.0
 40
3.0
 40
3.0
 40
4.0
 40
4.0
 40
4.0
 40
5.0
 40
5.0
 40
5.0
 40
6.0
 40
6.0
 40
6.0
 40
7.0
 40
7.0
 40
7.0
 40
8.0
 40
8.0
 40
8.0
 40
9.0
 40
9.0
 40
9.0
 40
10.0
 40
10.0
 40
10.0
 40
11.0
 40
11.0
 40
11.0
 40
11.0
 10
156.5379041492336
 20
-82.84979906858686
 30
0.0
 10
156.5379041492336
 20
-82.84979906858686
 30
0.0
 10
156.5379041492336
 20
-82.84979906858686
 30
0.0
 10
156.5379041492336
 20
-82.84979906858686
 30
0.0
 10
156.5379041492336
 20
-82.84979906858686
 30
0.0
 10
156.5379041492336
 20
-82.84979906858686
 30
0.0
 10
156.5379041492336
 20
-82.84979906858686
 30
0.0
 10
156.1747910850883
 20
-82.71578485421064
 30
0.0
 10
155.9842773047539
 20
-82.31356995630773
 30
0.0
 10
156.1182915191302
 20
-81.94666728712862
 30
0.0
 10
156.1182915191302
 20
-81.94666728712862
 30
0.0
 10
156.1182915191302
 20
-81.94666728712862
 30
0.0
 10
156.1182915191302
 20
-81.94666728712862
 30
0.0
 10
156.2523057335064
 20
-81.57976461794951
 30
0.0
 10
156.6577934721203
 20
-81.39286818787471
 30
0.0
 10
157.0212510458141
 20
-81.52343730676567
 30
0.0
 10
157.0212510458141
 20
-81.52343730676567
 30
0.0
 10
157.0212510458141
 20
-81.52343730676567
 30
0.0
 10
157.0212510458141
 20
-81.52343730676567
 30
0.0
 10
157.3881537149933
 20
-81.6574515211419
 30
0.0
 10
157.5786674953276
 20
-82.06311151453006
 30
0.0
 10
157.4446532809513
 20
-82.43001418370918
 30
0.0
 10
157.4446532809513
 20
-82.43001418370918
 30
0.0
 10
157.4446532809513
 20
-82.43001418370918
 30
0.0
 10
157.4446532809513
 20
-82.43001418370918
 30
0.0
 10
157.3388888495542
 20
-82.71578485421064
 30
0.0
 10
157.0670708157679
 20
-82.89561883854068
 30
0.0
 10
156.7814724000407
 20
-82.89561883854068
 30
0.0
 10
156.7814724000407
 20
-82.89561883854068
 30
0.0
 10
156.7814724000407
 20
-82.89561883854068
 30
0.0
 10
156.7814724000407
 20
-82.89561883854068
 30
0.0
 10
156.7001681465889
 20
-82.89561883854068
 30
0.0
 10
156.6192084026855
 20
-82.88149394705115
 30
0.0
 10
156.5379041492336
 20
-82.84979906858686
 30
0.0
  0
SPLINE
  5
5E
330
1F
100
AcDbEntity
  8
Laag 1
370
     0
100
AcDbSpline
210
0.0
220
0.0
230
1.0
 70
    11
 71
     3
 72
    32
 73
    28
 74
     0
 42
0.0000000001
 43
0.0000000001
 12
1.0
 22
0.0
 32
0.0
 13
1.0
 23
0.0
 33
0.0
 40
0.0
 40
0.0
 40
0.0
 40
0.0
 40
1.0
 40
1.0
 40
1.0
 40
2.0
 40
2.0
 40
2.0
 40
3.0
 40
3.0
 40
3.0
 40
4.0
 40
4.0
 40
4.0
 40
5.0
 40
5.0
 40
5.0
 40
6.0
 40
6.0
 40
6.0
 40
7.0
 40
7.0
 40
7.0
 40
8.0
 40
8.0
 40
8.0
 40
9.0
 40
9.0
 40
9.0
 40
9.0
 10
139.410611944314
 20
-82.43001418370918
 30
0.0
 10
139.2765977299378
 20
-82.06311151453006
 30
0.0
 10
139.4671115102721
 20
-81.6574515211419
 30
0.0
 10
139.8340141794512
 20
-81.52343730676567
 30
0.0
 10
139.8340141794512
 20
-81.52343730676567
 30
0.0
 10
139.8340141794512
 20
-81.52343730676567
 30
0.0
 10
139.8340141794512
 20
-81.52343730676567
 30
0.0
 10
140.1972994983708
 20
-81.3892508376152
 30
0.0
 10
140.6031317465333
 20
-81.57976461794951
 30
0.0
 10
140.7371459609095
 20
-81.94666728712862
 30
0.0
 10
140.7371459609095
 20
-81.94666728712862
 30
0.0
 10
140.7371459609095
 20
-81.94666728712862
 30
0.0
 10
140.7371459609095
 20
-81.94666728712862
 30
0.0
 10
140.8711601752857
 20
-82.31012486082247
 30
0.0
 10
140.6806463949514
 20
-82.71578485421064
 30
0.0
 10
140.3173610760318
 20
-82.84979906858686
 30
0.0
 10
140.3173610760318
 20
-82.84979906858686
 30
0.0
 10
140.3173610760318
 20
-82.84979906858686
 30
0.0
 10
140.3173610760318
 20
-82.84979906858686
 30
0.0
 10
140.2362290773542
 20
-82.87804885156591
 30
0.0
 10
140.1550970786765
 20
-82.89217374305544
 30
0.0
 10
140.0739650799989
 20
-82.89217374305544
 30
0.0
 10
140.0739650799989
 20
-82.89217374305544
 30
0.0
 10
140.0739650799989
 20
-82.89217374305544
 30
0.0
 10
140.0739650799989
 20
-82.89217374305544
 30
0.0
 10
139.7845770592379
 20
-82.89217374305544
 30
0.0
 10
139.5165486304855
 20
-82.71578485421064
 30
0.0
 10
139.410611944314
 20
-82.43001418370918
 30
0.0
  0
SPLINE
  5
5F
330
1F
100
AcDbEntity
  8
Laag 1
370
     0
100
AcDbSpline
210
0.0
220
0.0
230
1.0
 70
    11
 71
     3
 72
    38
 73
    34
 74
     0
 42
0.0000000001
 43
0.0000000001
 12
1.0
 22
0.0
 32
0.0
 13
1.0
 23
0.0
 33
0.0
 40
0.0
 40
0.0
 40
0.0
 40
0.0
 40
1.0
 40
1.0
 40
1.0
 40
2.0
 40
2.0
 40
2.0
 40
3.0
 40
3.0
 40
3.0
 40
4.0
 40
4.0
 40
4.0
 40
5.0
 40
5.0
 40
5.0
 40
6.0
 40
6.0
 40
6.0
 40
7.0
 40
7.0
 40
7.0
 40
8.0
 40
8.0
 40
8.0
 40
9.0
 40
9.0
 40
9.0
 40
10.0
 40
10.0
 40
10.0
 40
11.0
 40
11.0
 40
11.0
 40
11.0
 10
152.5481390677658
 20
-81.78440328977335
 30
0.0
 10
152.5481390677658
 20
-81.78440328977335
 30
0.0
 10
152.5481390677658
 20
-81.78440328977335
 30
0.0
 10
152.5481390677658
 20
-81.78440328977335
 30
0.0
 10
152.5481390677658
 20
-81.78440328977335
 30
0.0
 10
152.5481390677658
 20
-81.78440328977335
 30
0.0
 10
152.5481390677658
 20
-81.78440328977335
 30
0.0
 10
152.1636664116119
 20
-81.71739618258525
 30
0.0
 10
151.9094183648004
 20
-81.35049351340614
 30
0.0
 10
151.9765977267628
 20
-80.96602085725225
 30
0.0
 10
151.9765977267628
 20
-80.96602085725225
 30
0.0
 10
151.9765977267628
 20
-80.96602085725225
 30
0.0
 10
151.9765977267628
 20
-80.96602085725225
 30
0.0
 10
152.0437770887252
 20
-80.5813759463241
 30
0.0
 10
152.4068901528705
 20
-80.32747240906119
 30
0.0
 10
152.7913628090244
 20
-80.3944795162493
 30
0.0
 10
152.7913628090244
 20
-80.3944795162493
 30
0.0
 10
152.7913628090244
 20
-80.3944795162493
 30
0.0
 10
152.7913628090244
 20
-80.3944795162493
 30
0.0
 10
153.1761799747268
 20
-80.46148662343741
 30
0.0
 10
153.433528607475
 20
-80.82838929261652
 30
0.0
 10
153.3666937550611
 20
-81.20941685328515
 30
0.0
 10
153.3666937550611
 20
-81.20941685328515
 30
0.0
 10
153.3666937550611
 20
-81.20941685328515
 30
0.0
 10
153.3666937550611
 20
-81.20941685328515
 30
0.0
 10
153.3064045840692
 20
-81.55151483497046
 30
0.0
 10
153.0066812768525
 20
-81.79491083100336
 30
0.0
 10
152.6714734861377
 20
-81.79491083100336
 30
0.0
 10
152.6714734861377
 20
-81.79491083100336
 30
0.0
 10
152.6714734861377
 20
-81.79491083100336
 30
0.0
 10
152.6714734861377
 20
-81.79491083100336
 30
0.0
 10
152.6328884167029
 20
-81.79491083100336
 30
0.0
 10
152.5905137422343
 20
-81.79146573551812
 30
0.0
 10
152.5481390677658
 20
-81.78440328977335
 30
0.0
  0
SPLINE
  5
60
330
1F
100
AcDbEntity
  8
Laag 1
370
     0
100
AcDbSpline
210
0.0
220
0.0
230
1.0
 70
    11
 71
     3
 72
    38
 73
    34
 74
     0
 42
0.0000000001
 43
0.0000000001
 12
1.0
 22
0.0
 32
0.0
 13
1.0
 23
0.0
 33
0.0
 40
0.0
 40
0.0
 40
0.0
 40
0.0
 40
1.0
 40
1.0
 40
1.0
 40
2.0
 40
2.0
 40
2.0
 40
3.0
 40
3.0
 40
3.0
 40
4.0
 40
4.0
 40
4.0
 40
5.0
 40
5.0
 40
5.0
 40
6.0
 40
6.0
 40
6.0
 40
7.0
 40
7.0
 40
7.0
 40
8.0
 40
8.0
 40
8.0
 40
9.0
 40
9.0
 40
9.0
 40
10.0
 40
10.0
 40
10.0
 40
11.0
 40
11.0
 40
11.0
 40
11.0
 10
143.492361075238
 20
-81.20941685328515
 30
0.0
 10
143.4253539680499
 20
-80.824771942357
 30
0.0
 10
143.6792575053128
 20
-80.46148662343741
 30
0.0
 10
144.0637301614667
 20
-80.3944795162493
 30
0.0
 10
144.0637301614667
 20
-80.3944795162493
 30
0.0
 10
144.0637301614667
 20
-80.3944795162493
 30
0.0
 10
144.0637301614667
 20
-80.3944795162493
 30
0.0
 10
144.4483750723949
 20
-80.32747240906119
 30
0.0
 10
144.815277741574
 20
-80.5813759463241
 30
0.0
 10
144.8822848487621
 20
-80.96602085725225
 30
0.0
 10
144.8822848487621
 20
-80.96602085725225
 30
0.0
 10
144.8822848487621
 20
-80.96602085725225
 30
0.0
 10
144.8822848487621
 20
-80.96602085725225
 30
0.0
 10
144.9456746056907
 20
-81.35049351340614
 30
0.0
 10
144.6917710684278
 20
-81.71739618258525
 30
0.0
 10
144.3072984122739
 20
-81.7809581942881
 30
0.0
 10
144.3072984122739
 20
-81.7809581942881
 30
0.0
 10
144.3072984122739
 20
-81.7809581942881
 30
0.0
 10
144.3072984122739
 20
-81.7809581942881
 30
0.0
 10
144.3072984122739
 20
-81.7809581942881
 30
0.0
 10
144.3072984122739
 20
-81.7809581942881
 30
0.0
 10
144.3072984122739
 20
-81.78440328977335
 30
0.0
 10
144.3072984122739
 20
-81.78440328977335
 30
0.0
 10
144.3072984122739
 20
-81.78440328977335
 30
0.0
 10
144.3072984122739
 20
-81.78440328977335
 30
0.0
 10
144.2649237378053
 20
-81.79146573551812
 30
0.0
 10
144.225994158822
 20
-81.79491083100336
 30
0.0
 10
144.1872368346129
 20
-81.79491083100336
 30
0.0
 10
144.1872368346129
 20
-81.79491083100336
 30
0.0
 10
144.1872368346129
 20
-81.79491083100336
 30
0.0
 10
144.1872368346129
 20
-81.79491083100336
 30
0.0
 10
143.8485839484129
 20
-81.79491083100336
 30
0.0
 10
143.5523057366814
 20
-81.55151483497046
 30
0.0
 10
143.492361075238
 20
-81.20941685328515
 30
0.0
  0
HATCH
  5
61
330
1F
100
AcDbEntity
  8
Laag 1
 62
   179
420
  1907995
100
AcDbHatch
 10
0.0
 20
0.0
 30
0.0
210
0.0
220
0.0
230
1.0
  2
SOLID
 70
     1
 71
     0
 91
       32
 92
        1
 93
        1
 72
     4
 94
        3
 73
     0
 74
     1
 95
       38
 96
       34
 40
0.0
 40
0.0
 40
0.0
 40
0.0
 40
1.0
 40
1.0
 40
1.0
 40
2.0
 40
2.0
 40
2.0
 40
3.0
 40
3.0
 40
3.0
 40
4.0
 40
4.0
 40
4.0
 40
5.0
 40
5.0
 40
5.0
 40
6.0
 40
6.0
 40
6.0
 40
7.0
 40
7.0
 40
7.0
 40
8.0
 40
8.0
 40
8.0
 40
9.0
 40
9.0
 40
9.0
 40
10.0
 40
10.0
 40
10.0
 40
11.0
 40
11.0
 40
11.0
 40
11.0
 10
151.9697075357923
 20
-129.3001937509847
 10
151.9025281738299
 20
-128.9153765852823
 10
152.1598768065781
 20
-128.5484739161032
 10
152.5446939722805
 20
-128.4816390636893
 10
152.5446939722805
 20
-128.4816390636893
 10
152.5446939722805
 20
-128.4816390636893
 10
152.5446939722805
 20
-128.4816390636893
 10
152.5446939722805
 20
-128.4816390636893
 10
152.5446939722805
 20
-128.4816390636893
 10
152.5446939722805
 20
-128.4816390636893
 10
152.5446939722805
 20
-128.4816390636893
 10
152.5446939722805
 20
-128.4816390636893
 10
152.5446939722805
 20
-128.4816390636893
 10
152.9291666284344
 20
-128.4144597017269
 10
153.2926242021283
 20
-128.6721528440236
 10
153.3629041500273
 20
-129.0566255001775
 10
153.3629041500273
 20
-129.0566255001775
 10
153.3629041500273
 20
-129.0566255001775
 10
153.3629041500273
 20
-129.0566255001775
 10
153.4266384165045
 20
-129.4410981563314
 10
153.172390369693
 20
-129.8045557300253
 10
152.7879177135391
 20
-129.8713905824391
 10
152.7879177135391
 20
-129.8713905824391
 10
152.7879177135391
 20
-129.8713905824391
 10
152.7879177135391
 20
-129.8713905824391
 10
152.7455430390706
 20
-129.8820703784434
 10
152.7069579696358
 20
-129.8855154739286
 10
152.6645832951672
 20
-129.8855154739286
 10
152.6645832951672
 20
-129.8855154739286
 10
152.6645832951672
 20
-129.8855154739286
 10
152.6645832951672
 20
-129.8855154739286
 10
152.3293755044524
 20
-129.8855154739286
 10
152.0296521972357
 20
-129.64229173267
 10
151.9697075357923
 20
-129.3001937509847
 97
        0
 97
        0
 92
        1
 93
        1
 72
     4
 94
        3
 73
     0
 74
     1
 95
       32
 96
       28
 40
0.0
 40
0.0
 40
0.0
 40
0.0
 40
1.0
 40
1.0
 40
1.0
 40
2.0
 40
2.0
 40
2.0
 40
3.0
 40
3.0
 40
3.0
 40
4.0
 40
4.0
 40
4.0
 40
5.0
 40
5.0
 40
5.0
 40
6.0
 40
6.0
 40
6.0
 40
7.0
 40
7.0
 40
7.0
 40
8.0
 40
8.0
 40
8.0
 40
9.0
 40
9.0
 40
9.0
 40
9.0
 10
144.0566677157219
 20
-129.8713905824391
 10
143.6758124098276
 20
-129.8045557300253
 10
143.4182915223052
 20
-129.4376530608461
 10
143.4852986294933
 20
-129.0531804046923
 10
143.4852986294933
 20
-129.0531804046923
 10
143.4852986294933
 20
-129.0531804046923
 10
143.4852986294933
 20
-129.0531804046923
 10
143.5523057366814
 20
-128.6721528440236
 10
143.9192084058605
 20
-128.4144597017269
 10
144.3036810620144
 20
-128.4816390636893
 10
144.3036810620144
 20
-128.4816390636893
 10
144.3036810620144
 20
-128.4816390636893
 10
144.3036810620144
 20
-128.4816390636893
 10
144.684708622683
 20
-128.5484739161032
 10
144.9422295102054
 20
-128.9153765852823
 10
144.8752224030173
 20
-129.2964041459509
 10
144.8752224030173
 20
-129.2964041459509
 10
144.8752224030173
 20
-129.2964041459509
 10
144.8752224030173
 20
-129.2964041459509
 10
144.815277741574
 20
-129.64229173267
 10
144.5188272750682
 20
-129.8820703784434
 10
144.1801743888682
 20
-129.8820703784434
 10
144.1801743888682
 20
-129.8820703784434
 10
144.1801743888682
 20
-129.8820703784434
 10
144.1801743888682
 20
-129.8820703784434
 10
144.1414170646591
 20
-129.8820703784434
 10
144.0990423901905
 20
-129.8786252829581
 10
144.0566677157219
 20
-129.8713905824391
 97
        0
 97
        0
 92
        1
 93
        1
 72
     4
 94
        3
 73
     0
 74
     1
 95
       32
 96
       28
 40
0.0
 40
0.0
 40
0.0
 40
0.0
 40
1.0
 40
1.0
 40
1.0
 40
2.0
 40
2.0
 40
2.0
 40
3.0
 40
3.0
 40
3.0
 40
4.0
 40
4.0
 40
4.0
 40
5.0
 40
5.0
 40
5.0
 40
6.0
 40
6.0
 40
6.0
 40
7.0
 40
7.0
 40
7.0
 40
8.0
 40
8.0
 40
8.0
 40
9.0
 40
9.0
 40
9.0
 40
9.0
 10
156.1148464236449
 20
-128.3193750663341
 10
155.9804876997202
 20
-127.9524723971549
 10
156.1675563845692
 20
-127.5504297540263
 10
156.5344590537483
 20
-127.4160710301015
 10
156.5344590537483
 20
-127.4160710301015
 10
156.5344590537483
 20
-127.4160710301015
 10
156.5344590537483
 20
-127.4160710301015
 10
156.9013617229274
 20
-127.2820568157253
 10
157.3071939710899
 20
-127.4691255005744
 10
157.4412081854661
 20
-127.8360281697535
 10
157.4412081854661
 20
-127.8360281697535
 10
157.4412081854661
 20
-127.8360281697535
 10
157.4412081854661
 20
-127.8360281697535
 10
157.5752223998423
 20
-128.2029308389326
 10
157.384708619508
 20
-128.608763087095
 10
157.0178059503289
 20
-128.7427773014712
 10
157.0178059503289
 20
-128.7427773014712
 10
157.0178059503289
 20
-128.7427773014712
 10
157.0178059503289
 20
-128.7427773014712
 10
156.9402913019108
 20
-128.7710270844503
 10
156.8589870484589
 20
-128.7851519759398
 10
156.7780273045555
 20
-128.7851519759398
 10
156.7780273045555
 20
-128.7851519759398
 10
156.7780273045555
 20
-128.7851519759398
 10
156.7780273045555
 20
-128.7851519759398
 10
156.4886392837945
 20
-128.7851519759398
 10
156.2168212500083
 20
-128.6049734820613
 10
156.1148464236449
 20
-128.3193750663341
 97
        0
 97
        0
 92
        1
 93
        1
 72
     4
 94
        3
 73
     0
 74
     1
 95
       35
 96
       31
 40
0.0
 40
0.0
 40
0.0
 40
0.0
 40
1.0
 40
1.0
 40
1.0
 40
2.0
 40
2.0
 40
2.0
 40
3.0
 40
3.0
 40
3.0
 40
4.0
 40
4.0
 40
4.0
 40
5.0
 40
5.0
 40
5.0
 40
6.0
 40
6.0
 40
6.0
 40
7.0
 40
7.0
 40
7.0
 40
8.0
 40
8.0
 40
8.0
 40
9.0
 40
9.0
 40
9.0
 40
10.0
 40
10.0
 40
10.0
 40
10.0
 10
139.8269517337065
 20
-128.7389876964375
 10
139.8269517337065
 20
-128.7389876964375
 10
139.8269517337065
 20
-128.7389876964375
 10
139.8269517337065
 20
-128.7389876964375
 10
139.4634941600126
 20
-128.6049734820613
 10
139.2731526344525
 20
-128.2029308389326
 10
139.4071668488288
 20
-127.8360281697535
 10
139.4071668488288
 20
-127.8360281697535
 10
139.4071668488288
 20
-127.8360281697535
 10
139.4071668488288
 20
-127.8360281697535
 10
139.541181063205
 20
-127.4691255005744
 10
139.9468410565931
 20
-127.2820568157253
 10
140.310298630287
 20
-127.4160710301015
 10
140.310298630287
 20
-127.4160710301015
 10
140.310298630287
 20
-127.4160710301015
 10
140.310298630287
 20
-127.4160710301015
 10
140.6772012994661
 20
-127.5466401489925
 10
140.8677150798004
 20
-127.9524723971549
 10
140.73352861065
 20
-128.3193750663341
 10
140.73352861065
 20
-128.3193750663341
 10
140.73352861065
 20
-128.3193750663341
 10
140.73352861065
 20
-128.3193750663341
 10
140.6277641792528
 20
-128.6049734820613
 10
140.3595634957261
 20
-128.7813623709061
 10
140.0703477297394
 20
-128.7813623709061
 10
140.0703477297394
 20
-128.7813623709061
 10
140.0703477297394
 20
-128.7813623709061
 10
140.0703477297394
 20
-128.7813623709061
 10
139.9892157310617
 20
-128.7813623709061
 10
139.9080837323841
 20
-128.7710270844503
 10
139.8269517337065
 20
-128.7389876964375
 97
        0
 97
        0
 92
        1
 93
        1
 72
     4
 94
        3
 73
     0
 74
     1
 95
       32
 96
       28
 40
0.0
 40
0.0
 40
0.0
 40
0.0
 40
1.0
 40
1.0
 40
1.0
 40
2.0
 40
2.0
 40
2.0
 40
3.0
 40
3.0
 40
3.0
 40
4.0
 40
4.0
 40
4.0
 40
5.0
 40
5.0
 40
5.0
 40
6.0
 40
6.0
 40
6.0
 40
7.0
 40
7.0
 40
7.0
 40
8.0
 40
8.0
 40
8.0
 40
9.0
 40
9.0
 40
9.0
 40
9.0
 10
160.0233072516608
 20
-126.629555730819
 10
159.825903280356
 20
-126.2943479401042
 10
159.9423475077575
 20
-125.8606104185112
 10
160.2810003939575
 20
-125.6663070331432
 10
160.2810003939575
 20
-125.6663070331432
 10
160.2810003939575
 20
-125.6663070331432
 10
160.2810003939575
 20
-125.6663070331432
 10
160.6162081846723
 20
-125.4723481573236
 10
161.0499457062653
 20
-125.588792384725
 10
161.2439045820849
 20
-125.9240001754398
 10
161.2439045820849
 20
-125.9240001754398
 10
161.2439045820849
 20
-125.9240001754398
 10
161.2439045820849
 20
-125.9240001754398
 10
161.438207967453
 20
-126.2626530616399
 10
161.3252088355368
 20
-126.6929454877476
 10
160.9865559493367
 20
-126.8869043635672
 10
160.9865559493367
 20
-126.8869043635672
 10
160.9865559493367
 20
-126.8906939686009
 10
160.9865559493367
 20
-126.8906939686009
 10
160.8735568174205
 20
-126.9540837255295
 10
160.7536674945338
 20
-126.9823335085086
 10
160.6337781716471
 20
-126.9823335085086
 10
160.6337781716471
 20
-126.9823335085086
 10
160.6337781716471
 20
-126.9823335085086
 10
160.6337781716471
 20
-126.9823335085086
 10
160.39020992084
 20
-126.9823335085086
 10
160.1538763705518
 20
-126.8552094851029
 10
160.0233072516608
 20
-126.629555730819
 97
        0
 97
        0
 92
        1
 93
        1
 72
     4
 94
        3
 73
     0
 74
     1
 95
       35
 96
       31
 40
0.0
 40
0.0
 40
0.0
 40
0.0
 40
1.0
 40
1.0
 40
1.0
 40
2.0
 40
2.0
 40
2.0
 40
3.0
 40
3.0
 40
3.0
 40
4.0
 40
4.0
 40
4.0
 40
5.0
 40
5.0
 40
5.0
 40
6.0
 40
6.0
 40
6.0
 40
7.0
 40
7.0
 40
7.0
 40
8.0
 40
8.0
 40
8.0
 40
9.0
 40
9.0
 40
9.0
 40
10.0
 40
10.0
 40
10.0
 40
10.0
 10
135.8616468301839
 20
-126.8869043635672
 10
135.8616468301839
 20
-126.8869043635672
 10
135.8616468301839
 20
-126.8869043635672
 10
135.8616468301839
 20
-126.8869043635672
 10
135.5266112942434
 20
-126.6929454877476
 10
135.4101670668419
 20
-126.2592079661546
 10
135.6041259426615
 20
-125.9240001754398
 10
135.6041259426615
 20
-125.9240001754398
 10
135.6041259426615
 20
-125.9240001754398
 10
135.6041259426615
 20
-125.9240001754398
 10
135.8017021687405
 20
-125.5853472892398
 10
136.2321668496225
 20
-125.4723481573236
 10
136.5708197358226
 20
-125.6663070331432
 10
136.5708197358226
 20
-125.6663070331432
 10
136.5708197358226
 20
-125.6663070331432
 10
136.5708197358226
 20
-125.6663070331432
 10
136.9058552717631
 20
-125.8606104185112
 10
137.0222994991646
 20
-126.2943479401042
 10
136.8247232730855
 20
-126.629555730819
 10
136.8247232730855
 20
-126.629555730819
 10
136.8247232730855
 20
-126.629555730819
 10
136.8247232730855
 20
-126.629555730819
 10
136.6943264089688
 20
-126.8552094851029
 10
136.4579928586807
 20
-126.9823335085086
 10
136.2144246078735
 20
-126.9823335085086
 10
136.2144246078735
 20
-126.9823335085086
 10
136.2144246078735
 20
-126.9823335085086
 10
136.2144246078735
 20
-126.9823335085086
 10
136.0945352849868
 20
-126.9823335085086
 10
135.9746459621001
 20
-126.9506386300443
 10
135.8616468301839
 20
-126.8869043635672
 97
        0
 97
        0
 92
        1
 93
        1
 72
     4
 94
        3
 73
     0
 74
     1
 95
       38
 96
       34
 40
0.0
 40
0.0
 40
0.0
 40
0.0
 40
1.0
 40
1.0
 40
1.0
 40
2.0
 40
2.0
 40
2.0
 40
3.0
 40
3.0
 40
3.0
 40
4.0
 40
4.0
 40
4.0
 40
5.0
 40
5.0
 40
5.0
 40
6.0
 40
6.0
 40
6.0
 40
7.0
 40
7.0
 40
7.0
 40
8.0
 40
8.0
 40
8.0
 40
9.0
 40
9.0
 40
9.0
 40
10.0
 40
10.0
 40
10.0
 40
11.0
 40
11.0
 40
11.0
 40
11.0
 10
163.5758897160505
 20
-124.2872353103976
 10
163.3254312742728
 20
-123.9906125891176
 10
163.3643608532561
 20
-123.5427501760352
 10
163.6640841604729
 20
-123.2957368297427
 10
163.6640841604729
 20
-123.2957368297427
 10
163.6640841604729
 20
-123.2957368297427
 10
163.6640841604729
 20
-123.2957368297427
 10
163.6640841604729
 20
-123.2957368297427
 10
163.6640841604729
 20
-123.2957368297427
 10
163.6640841604729
 20
-123.2922917342575
 10
163.6640841604729
 20
-123.2922917342575
 10
163.6640841604729
 20
-123.2922917342575
 10
163.6640841604729
 20
-123.2922917342575
 10
163.9603623722044
 20
-123.0418332924798
 10
164.4051241993501
 20
-123.0804183619146
 10
164.659027736613
 20
-123.3804861786799
 10
164.659027736613
 20
-123.3804861786799
 10
164.659027736613
 20
-123.3804861786799
 10
164.659027736613
 20
-123.3804861786799
 10
164.9094861783907
 20
-123.6802094858966
 10
164.8705565994074
 20
-124.1246268034939
 10
164.5708332921906
 20
-124.37542975482
 10
164.5708332921906
 20
-124.37542975482
 10
164.5708332921906
 20
-124.37542975482
 10
164.5708332921906
 20
-124.37542975482
 10
164.4402641732997
 20
-124.4846392817025
 10
164.2780001759444
 20
-124.5411388476606
 10
164.1157361785891
 20
-124.5411388476606
 10
164.1157361785891
 20
-124.5411388476606
 10
164.1157361785891
 20
-124.5411388476606
 10
164.1157361785891
 20
-124.5411388476606
 10
163.9145426022505
 20
-124.5411388476606
 10
163.7171386309457
 20
-124.4529444032382
 10
163.5758897160505
 20
-124.2872353103976
 97
        0
 97
        0
 92
        1
 93
        1
 72
     4
 94
        3
 73
     0
 74
     1
 95
       35
 96
       31
 40
0.0
 40
0.0
 40
0.0
 40
0.0
 40
1.0
 40
1.0
 40
1.0
 40
2.0
 40
2.0
 40
2.0
 40
3.0
 40
3.0
 40
3.0
 40
4.0
 40
4.0
 40
4.0
 40
5.0
 40
5.0
 40
5.0
 40
6.0
 40
6.0
 40
6.0
 40
7.0
 40
7.0
 40
7.0
 40
8.0
 40
8.0
 40
8.0
 40
9.0
 40
9.0
 40
9.0
 40
10.0
 40
10.0
 40
10.0
 40
10.0
 10
132.2809868375895
 20
-124.3716401497863
 10
132.2809868375895
 20
-124.3716401497863
 10
132.2775417421042
 20
-124.3716401497863
 10
132.2775417421042
 20
-124.3716401497863
 10
131.9810912755985
 20
-124.1211817080086
 10
131.9423339513894
 20
-123.6767643904114
 10
132.1927923931671
 20
-123.3804861786799
 10
132.1927923931671
 20
-123.3804861786799
 10
132.1927923931671
 20
-123.3804861786799
 10
132.1927923931671
 20
-123.3804861786799
 10
132.4432508349448
 20
-123.0804183619146
 10
132.8878404073162
 20
-123.0418332924798
 10
133.1877359693072
 20
-123.2922917342575
 10
133.1877359693072
 20
-123.2922917342575
 10
133.1877359693072
 20
-123.2922917342575
 10
133.1877359693072
 20
-123.2922917342575
 10
133.4840141810387
 20
-123.5427501760352
 10
133.5227715052478
 20
-123.9871674936324
 10
133.2723130634701
 20
-124.2872353103976
 10
133.2723130634701
 20
-124.2872353103976
 10
133.2723130634701
 20
-124.2872353103976
 10
133.2723130634701
 20
-124.2872353103976
 10
133.1346814988344
 20
-124.4529444032382
 10
132.9336601772701
 20
-124.5376937521753
 10
132.7326388557057
 20
-124.5376937521753
 10
132.7326388557057
 20
-124.5376937521753
 10
132.7326388557057
 20
-124.5376937521753
 10
132.7326388557057
 20
-124.5376937521753
 10
132.5738199538357
 20
-124.5376937521753
 10
132.4115559564804
 20
-124.4846392817025
 10
132.2809868375895
 20
-124.3716401497863
 97
        0
 97
        0
 92
        1
 93
        1
 72
     4
 94
        3
 73
     0
 74
     1
 95
       32
 96
       28
 40
0.0
 40
0.0
 40
0.0
 40
0.0
 40
1.0
 40
1.0
 40
1.0
 40
2.0
 40
2.0
 40
2.0
 40
3.0
 40
3.0
 40
3.0
 40
4.0
 40
4.0
 40
4.0
 40
5.0
 40
5.0
 40
5.0
 40
6.0
 40
6.0
 40
6.0
 40
7.0
 40
7.0
 40
7.0
 40
8.0
 40
8.0
 40
8.0
 40
9.0
 40
9.0
 40
9.0
 40
9.0
 10
166.6733750668386
 20
-121.3661388484543
 10
166.3733072500733
 20
-121.1156804066766
 10
166.3347221806386
 20
-120.6674734840456
 10
166.5851806224162
 20
-120.3711952723142
 10
166.5851806224162
 20
-120.3711952723142
 10
166.5851806224162
 20
-120.3711952723142
 10
166.5851806224162
 20
-120.3711952723142
 10
166.8356390641939
 20
-120.0714719650974
 10
167.2800563817911
 20
-120.0359874815993
 10
167.5801241985564
 20
-120.286445923377
 10
167.5801241985564
 20
-120.286445923377
 10
167.5801241985564
 20
-120.286445923377
 10
167.5801241985564
 20
-120.286445923377
 10
167.8764024102879
 20
-120.5369043651547
 10
167.9187770847564
 20
-120.9816661923004
 10
167.664529037945
 20
-121.2779444040319
 10
167.664529037945
 20
-121.2779444040319
 10
167.664529037945
 20
-121.2779444040319
 10
167.664529037945
 20
-121.2779444040319
 10
167.5270697280835
 20
-121.4470985923577
 10
167.3258761517449
 20
-121.5318479412948
 10
167.1250270849549
 20
-121.5318479412948
 10
167.1250270849549
 20
-121.5318479412948
 10
167.1250270849549
 20
-121.5318479412948
 10
167.1250270849549
 20
-121.5318479412948
 10
166.9662081830848
 20
-121.5318479412948
 10
166.8039441857296
 20
-121.4753483753367
 10
166.6733750668386
 20
-121.3661388484543
 97
        0
 97
        0
 92
        1
 93
        1
 72
     4
 94
        3
 73
     0
 74
     1
 95
       41
 96
       37
 40
0.0
 40
0.0
 40
0.0
 40
0.0
 40
1.0
 40
1.0
 40
1.0
 40
2.0
 40
2.0
 40
2.0
 40
3.0
 40
3.0
 40
3.0
 40
4.0
 40
4.0
 40
4.0
 40
5.0
 40
5.0
 40
5.0
 40
6.0
 40
6.0
 40
6.0
 40
7.0
 40
7.0
 40
7.0
 40
8.0
 40
8.0
 40
8.0
 40
9.0
 40
9.0
 40
9.0
 40
10.0
 40
10.0
 40
10.0
 40
11.0
 40
11.0
 40
11.0
 40
12.0
 40
12.0
 40
12.0
 40
12.0
 10
129.1836737415756
 20
-121.2779444040319
 10
129.1836737415756
 20
-121.2779444040319
 10
129.1836737415756
 20
-121.2779444040319
 10
129.1836737415756
 20
-121.2779444040319
 10
128.933215299798
 20
-120.9778765872666
 10
128.971972624007
 20
-120.5334592696694
 10
129.271868185998
 20
-120.2830008278918
 10
129.271868185998
 20
-120.2830008278918
 10
129.271868185998
 20
-120.2830008278918
 10
129.271868185998
 20
-120.2830008278918
 10
129.5681463977295
 20
-120.0325423861141
 10
130.012735970101
 20
-120.0714719650974
 10
130.2631944118787
 20
-120.3711952723142
 10
130.2631944118787
 20
-120.3711952723142
 10
130.2631944118787
 20
-120.3711952723142
 10
130.2631944118787
 20
-120.3711952723142
 10
130.2631944118787
 20
-120.3711952723142
 10
130.2631944118787
 20
-120.3711952723142
 10
130.2631944118787
 20
-120.3711952723142
 10
130.2631944118787
 20
-120.3711952723142
 10
130.2631944118787
 20
-120.3711952723142
 10
130.2631944118787
 20
-120.3711952723142
 10
130.5136528536563
 20
-120.6674734840456
 10
130.474723274673
 20
-121.1122353111914
 10
130.1784450629415
 20
-121.3626937529691
 10
130.1784450629415
 20
-121.3626937529691
 10
130.1784450629415
 20
-121.3626937529691
 10
130.1784450629415
 20
-121.3626937529691
 10
130.0444308485653
 20
-121.4753483753367
 10
129.8856119466953
 20
-121.5284028458096
 10
129.72334794934
 20
-121.5284028458096
 10
129.72334794934
 20
-121.5284028458096
 10
129.72334794934
 20
-121.5284028458096
 10
129.72334794934
 20
-121.5284028458096
 10
129.5223266277757
 20
-121.5284028458096
 10
129.3247504016966
 20
-121.4436534968724
 10
129.1836737415756
 20
-121.2779444040319
 97
        0
 97
        0
 92
        1
 93
        1
 72
     4
 94
        3
 73
     0
 74
     1
 95
       32
 96
       28
 40
0.0
 40
0.0
 40
0.0
 40
0.0
 40
1.0
 40
1.0
 40
1.0
 40
2.0
 40
2.0
 40
2.0
 40
3.0
 40
3.0
 40
3.0
 40
4.0
 40
4.0
 40
4.0
 40
5.0
 40
5.0
 40
5.0
 40
6.0
 40
6.0
 40
6.0
 40
7.0
 40
7.0
 40
7.0
 40
8.0
 40
8.0
 40
8.0
 40
9.0
 40
9.0
 40
9.0
 40
9.0
 10
169.2168890635986
 20
-117.9510156939261
 10
168.8782361773985
 20
-117.7570568181066
 10
168.7652370454823
 20
-117.3267643919989
 10
168.9591959213019
 20
-116.9881115057988
 10
168.9591959213019
 20
-116.9881115057988
 10
168.9591959213019
 20
-116.9881115057988
 10
168.9591959213019
 20
-116.9881115057988
 10
169.15349930667
 20
-116.6494586195988
 10
169.5837917327777
 20
-116.5364594876826
 10
169.9224446189777
 20
-116.7304183635021
 10
169.9224446189777
 20
-116.7304183635021
 10
169.9224446189777
 20
-116.7304183635021
 10
169.9224446189777
 20
-116.7304183635021
 10
170.2610975051778
 20
-116.9281668443555
 10
170.374096637094
 20
-117.3584592704632
 10
170.1797932517259
 20
-117.6971121566632
 10
170.1797932517259
 20
-117.6971121566632
 10
170.1797932517259
 20
-117.6971121566632
 10
170.1797932517259
 20
-117.6971121566632
 10
170.0495686423835
 20
-117.9231104204956
 10
169.8128905825468
 20
-118.0464448388676
 10
169.5696668412882
 20
-118.0464448388676
 10
169.5696668412882
 20
-118.0464448388676
 10
169.5696668412882
 20
-118.0464448388676
 10
169.5696668412882
 20
-118.0464448388676
 10
169.4497775184014
 20
-118.0464448388676
 10
169.326098590481
 20
-118.0181950558885
 10
169.2168890635986
 20
-117.9510156939261
 97
        0
 97
        0
 92
        1
 93
        1
 72
     4
 94
        3
 73
     0
 74
     1
 95
       32
 96
       28
 40
0.0
 40
0.0
 40
0.0
 40
0.0
 40
1.0
 40
1.0
 40
1.0
 40
2.0
 40
2.0
 40
2.0
 40
3.0
 40
3.0
 40
3.0
 40
4.0
 40
4.0
 40
4.0
 40
5.0
 40
5.0
 40
5.0
 40
6.0
 40
6.0
 40
6.0
 40
7.0
 40
7.0
 40
7.0
 40
8.0
 40
8.0
 40
8.0
 40
9.0
 40
9.0
 40
9.0
 40
9.0
 10
126.6684095277947
 20
-117.693667061178
 10
126.4742783972009
 20
-117.3550141749779
 10
126.5907226246023
 20
-116.9247217488702
 10
126.9259304153171
 20
-116.7304183635021
 10
126.9259304153171
 20
-116.7304183635021
 10
126.9259304153171
 20
-116.7304183635021
 10
126.9259304153171
 20
-116.7304183635021
 10
127.2645833015172
 20
-116.5330143921973
 10
127.6948757276249
 20
-116.6494586195988
 10
127.892451953704
 20
-116.9881115057988
 10
127.892451953704
 20
-116.9881115057988
 10
127.892451953704
 20
-116.9881115057988
 10
127.892451953704
 20
-116.9881115057988
 10
128.0864108295235
 20
-117.3233192965136
 10
127.9701388568964
 20
-117.7536117226213
 10
127.6349310661816
 20
-117.9510156939261
 10
127.6349310661816
 20
-117.9510156939261
 10
127.6349310661816
 20
-117.9510156939261
 10
127.6349310661816
 20
-117.9510156939261
 10
127.5221041890396
 20
-118.0147499604033
 10
127.4020426113787
 20
-118.0464448388676
 10
127.282153288492
 20
-118.0464448388676
 10
127.282153288492
 20
-118.0464448388676
 10
127.282153288492
 20
-118.0464448388676
 10
127.282153288492
 20
-118.0464448388676
 10
127.0387572924591
 20
-118.0464448388676
 10
126.7988063919114
 20
-117.9193208154618
 10
126.6684095277947
 20
-117.693667061178
 97
        0
 97
        0
 92
        1
 93
        1
 72
     4
 94
        3
 73
     0
 74
     1
 95
       32
 96
       28
 40
0.0
 40
0.0
 40
0.0
 40
0.0
 40
1.0
 40
1.0
 40
1.0
 40
2.0
 40
2.0
 40
2.0
 40
3.0
 40
3.0
 40
3.0
 40
4.0
 40
4.0
 40
4.0
 40
5.0
 40
5.0
 40
5.0
 40
6.0
 40
6.0
 40
6.0
 40
7.0
 40
7.0
 40
7.0
 40
8.0
 40
8.0
 40
8.0
 40
9.0
 40
9.0
 40
9.0
 40
9.0
 10
171.1289170579122
 20
-114.1517643927926
 10
170.7620143887331
 20
-114.0177501784164
 10
170.5749457038841
 20
-113.611917930254
 10
170.7089599182603
 20
-113.2450152610749
 10
170.7089599182603
 20
-113.2450152610749
 10
170.7089599182603
 20
-113.2450152610749
 10
170.7089599182603
 20
-113.2450152610749
 10
170.8395290371512
 20
-112.8819021969295
 10
171.2453612853137
 20
-112.6913884165952
 10
171.6122639544928
 20
-112.8254026309714
 10
171.6122639544928
 20
-112.8254026309714
 10
171.6122639544928
 20
-112.8254026309714
 10
171.6122639544928
 20
-112.8254026309714
 10
171.9791666236719
 20
-112.9594168453476
 10
172.166235308521
 20
-113.3614594884763
 10
172.0318765845962
 20
-113.7283621576554
 10
172.0318765845962
 20
-113.7283621576554
 10
172.0318765845962
 20
-113.7283621576554
 10
172.0318765845962
 20
-113.7283621576554
 10
171.9295572486843
 20
-114.0177501784164
 10
171.6580837244466
 20
-114.1941390672612
 10
171.3724853087194
 20
-114.1941390672612
 10
171.3724853087194
 20
-114.1941390672612
 10
171.3724853087194
 20
-114.1941390672612
 10
171.3724853087194
 20
-114.1941390672612
 10
171.2911810552675
 20
-114.1941390672612
 10
171.2098768018156
 20
-114.1800141757717
 10
171.1289170579122
 20
-114.1517643927926
 97
        0
 97
        0
 92
        1
 93
        1
 72
     4
 94
        3
 73
     0
 74
     1
 95
       32
 96
       28
 40
0.0
 40
0.0
 40
0.0
 40
0.0
 40
1.0
 40
1.0
 40
1.0
 40
2.0
 40
2.0
 40
2.0
 40
3.0
 40
3.0
 40
3.0
 40
4.0
 40
4.0
 40
4.0
 40
5.0
 40
5.0
 40
5.0
 40
6.0
 40
6.0
 40
6.0
 40
7.0
 40
7.0
 40
7.0
 40
8.0
 40
8.0
 40
8.0
 40
9.0
 40
9.0
 40
9.0
 40
9.0
 10
124.8163261949244
 20
-113.7249170621702
 10
124.6821397257739
 20
-113.3580143929911
 10
124.8726535061082
 20
-112.9521821448286
 10
125.2395561752873
 20
-112.8219575354862
 10
125.2395561752873
 20
-112.8219575354862
 10
125.2395561752873
 20
-112.8219575354862
 10
125.2395561752873
 20
-112.8219575354862
 10
125.6030137489812
 20
-112.6875988115614
 10
126.0086737423694
 20
-112.8781125918958
 10
126.1426879567456
 20
-113.2415701655896
 10
126.1426879567456
 20
-113.2415701655896
 10
126.1426879567456
 20
-113.2415701655896
 10
126.1426879567456
 20
-113.2415701655896
 10
126.2767021711218
 20
-113.6084728347687
 10
126.0861883907875
 20
-114.0143050829312
 10
125.7192857216084
 20
-114.1483192973074
 10
125.7192857216084
 20
-114.1483192973074
 10
125.7192857216084
 20
-114.1483192973074
 10
125.7192857216084
 20
-114.1483192973074
 10
125.6417710731903
 20
-114.1765690802864
 10
125.5606390745126
 20
-114.1906939717759
 10
125.479507075835
 20
-114.1906939717759
 10
125.479507075835
 20
-114.1906939717759
 10
125.479507075835
 20
-114.1906939717759
 10
125.479507075835
 20
-114.1906939717759
 10
125.190119055074
 20
-114.1906939717759
 10
124.9220906263216
 20
-114.0105154778974
 10
124.8163261949244
 20
-113.7249170621702
 97
        0
 97
        0
 92
        1
 93
        1
 72
     4
 94
        3
 73
     0
 74
     1
 95
       38
 96
       34
 40
0.0
 40
0.0
 40
0.0
 40
0.0
 40
1.0
 40
1.0
 40
1.0
 40
2.0
 40
2.0
 40
2.0
 40
3.0
 40
3.0
 40
3.0
 40
4.0
 40
4.0
 40
4.0
 40
5.0
 40
5.0
 40
5.0
 40
6.0
 40
6.0
 40
6.0
 40
7.0
 40
7.0
 40
7.0
 40
8.0
 40
8.0
 40
8.0
 40
9.0
 40
9.0
 40
9.0
 40
10.0
 40
10.0
 40
10.0
 40
11.0
 40
11.0
 40
11.0
 40
11.0
 10
172.3495143883362
 20
-110.0738048669024
 10
171.9650417321824
 20
-110.00662550494
 10
171.7073485898857
 20
-109.6397228357609
 10
171.774527951848
 20
-109.255250179607
 10
171.774527951848
 20
-109.255250179607
 10
171.774527951848
 20
-109.255250179607
 10
171.774527951848
 20
-109.255250179607
 10
171.774527951848
 20
-109.255250179607
 10
171.774527951848
 20
-109.255250179607
 10
171.774527951848
 20
-109.255250179607
 10
171.774527951848
 20
-109.255250179607
 10
171.774527951848
 20
-109.255250179607
 10
171.774527951848
 20
-109.255250179607
 10
171.8413628042619
 20
-108.8707775234531
 10
172.208265473441
 20
-108.6130843811565
 10
172.5892930341096
 20
-108.6837088386041
 10
172.5892930341096
 20
-108.6837088386041
 10
172.5892930341096
 20
-108.6837088386041
 10
172.5892930341096
 20
-108.6837088386041
 10
172.9737656902635
 20
-108.7508882005665
 10
173.2314588325602
 20
-109.1140012647118
 10
173.1642794705978
 20
-109.4984739208657
 10
173.1642794705978
 20
-109.4984739208657
 10
173.1642794705978
 20
-109.4984739208657
 10
173.1642794705978
 20
-109.4984739208657
 10
173.1043348091545
 20
-109.8409164120995
 10
172.8046115019378
 20
-110.0841401533581
 10
172.4694037112229
 20
-110.0841401533581
 10
172.4694037112229
 20
-110.0841401533581
 10
172.4694037112229
 20
-110.0841401533581
 10
172.4694037112229
 20
-110.0841401533581
 10
172.4308186417881
 20
-110.0841401533581
 10
172.3884439673196
 20
-110.0806950578729
 10
172.3495143883362
 20
-110.0738048669024
 97
        0
 97
        0
 92
        1
 93
        1
 72
     4
 94
        3
 73
     0
 74
     1
 95
       41
 96
       37
 40
0.0
 40
0.0
 40
0.0
 40
0.0
 40
1.0
 40
1.0
 40
1.0
 40
2.0
 40
2.0
 40
2.0
 40
3.0
 40
3.0
 40
3.0
 40
4.0
 40
4.0
 40
4.0
 40
5.0
 40
5.0
 40
5.0
 40
6.0
 40
6.0
 40
6.0
 40
7.0
 40
7.0
 40
7.0
 40
8.0
 40
8.0
 40
8.0
 40
9.0
 40
9.0
 40
9.0
 40
10.0
 40
10.0
 40
10.0
 40
11.0
 40
11.0
 40
11.0
 40
12.0
 40
12.0
 40
12.0
 40
12.0
 10
123.6837510541485
 20
-109.4950288253804
 10
123.6837510541485
 20
-109.4950288253804
 10
123.687368404408
 20
-109.4950288253804
 10
123.687368404408
 20
-109.4950288253804
 10
123.6167439469604
 20
-109.1105561692265
 10
123.8742648344828
 20
-108.7470985955327
 10
124.258909745411
 20
-108.6768186476336
 10
124.258909745411
 20
-108.6768186476336
 10
124.258909745411
 20
-108.6768186476336
 10
124.258909745411
 20
-108.6768186476336
 10
124.6433824015648
 20
-108.6096392856712
 10
125.0066677204844
 20
-108.8669879184194
 10
125.0772921779321
 20
-109.2518050841218
 10
125.0772921779321
 20
-109.2518050841218
 10
125.0772921779321
 20
-109.2518050841218
 10
125.0772921779321
 20
-109.2518050841218
 10
125.0772921779321
 20
-109.2518050841218
 10
125.0772921779321
 20
-109.2518050841218
 10
125.0772921779321
 20
-109.2518050841218
 10
125.0772921779321
 20
-109.2518050841218
 10
125.0772921779321
 20
-109.2518050841218
 10
125.0772921779321
 20
-109.2518050841218
 10
125.1442992851202
 20
-109.6362777402757
 10
124.8867783975978
 20
-109.9997353139695
 10
124.5023057414439
 20
-110.0665701663834
 10
124.5023057414439
 20
-110.0665701663834
 10
124.5023057414439
 20
-110.0665701663834
 10
124.5023057414439
 20
-110.0665701663834
 10
124.4599310669753
 20
-110.0738048669024
 10
124.4211737427662
 20
-110.0772499623876
 10
124.3787990682977
 20
-110.0772499623876
 10
124.3787990682977
 20
-110.0772499623876
 10
124.3787990682977
 20
-110.0772499623876
 10
124.3787990682977
 20
-110.0772499623876
 10
124.0435912775829
 20
-110.0772499623876
 10
123.7473130658514
 20
-109.8371268070657
 10
123.6837510541485
 20
-109.4950288253804
 97
        0
 97
        0
 92
        1
 93
        1
 72
     4
 94
        3
 73
     0
 74
     1
 95
       38
 96
       34
 40
0.0
 40
0.0
 40
0.0
 40
0.0
 40
1.0
 40
1.0
 40
1.0
 40
2.0
 40
2.0
 40
2.0
 40
3.0
 40
3.0
 40
3.0
 40
4.0
 40
4.0
 40
4.0
 40
5.0
 40
5.0
 40
5.0
 40
6.0
 40
6.0
 40
6.0
 40
7.0
 40
7.0
 40
7.0
 40
8.0
 40
8.0
 40
8.0
 40
9.0
 40
9.0
 40
9.0
 40
10.0
 40
10.0
 40
10.0
 40
11.0
 40
11.0
 40
11.0
 40
11.0
 10
171.774527951848
 20
-101.0144095241152
 10
171.774527951848
 20
-101.0144095241152
 10
171.774527951848
 20
-101.0144095241152
 10
171.774527951848
 20
-101.0144095241152
 10
171.774527951848
 20
-101.0144095241152
 10
171.774527951848
 20
-101.0144095241152
 10
171.774527951848
 20
-101.0144095241152
 10
171.7073485898857
 20
-100.629764613187
 10
171.9650417321824
 20
-100.2664792942674
 10
172.3495143883362
 20
-100.1994721870793
 10
172.3495143883362
 20
-100.1994721870793
 10
172.3495143883362
 20
-100.1994721870793
 10
172.3495143883362
 20
-100.1994721870793
 10
172.7339870444901
 20
-100.1288477296317
 10
173.097444618184
 20
-100.3863686171541
 10
173.1642794705978
 20
-100.770841273308
 10
173.1642794705978
 20
-100.770841273308
 10
173.1680690756316
 20
-100.770841273308
 10
173.1680690756316
 20
-100.770841273308
 10
173.2314588325602
 20
-101.1554861842361
 10
172.9775552952973
 20
-101.5223888534152
 10
172.5930826391434
 20
-101.5893959606034
 10
172.5930826391434
 20
-101.5893959606034
 10
172.5930826391434
 20
-101.5893959606034
 10
172.5930826391434
 20
-101.5893959606034
 10
172.5507079646748
 20
-101.5964584063481
 10
172.5083332902063
 20
-101.5999035018334
 10
172.4694037112229
 20
-101.5999035018334
 10
172.4694037112229
 20
-101.5999035018334
 10
172.4694037112229
 20
-101.5999035018334
 10
172.4694037112229
 20
-101.5999035018334
 10
172.1341959205081
 20
-101.5999035018334
 10
171.8344726132914
 20
-101.3565075058005
 10
171.774527951848
 20
-101.0144095241152
 97
        0
 97
        0
 92
        1
 93
        1
 72
     4
 94
        3
 73
     0
 74
     1
 95
       32
 96
       28
 40
0.0
 40
0.0
 40
0.0
 40
0.0
 40
1.0
 40
1.0
 40
1.0
 40
2.0
 40
2.0
 40
2.0
 40
3.0
 40
3.0
 40
3.0
 40
4.0
 40
4.0
 40
4.0
 40
5.0
 40
5.0
 40
5.0
 40
6.0
 40
6.0
 40
6.0
 40
7.0
 40
7.0
 40
7.0
 40
8.0
 40
8.0
 40
8.0
 40
9.0
 40
9.0
 40
9.0
 40
9.0
 10
124.258909745411
 20
-101.5823335148586
 10
123.8742648344828
 20
-101.5153264076705
 10
123.6203612972199
 20
-101.1484237384914
 10
123.687368404408
 20
-100.7673961778227
 10
123.687368404408
 20
-100.7673961778227
 10
123.687368404408
 20
-100.7673961778227
 10
123.687368404408
 20
-100.7673961778227
 10
123.7543755115961
 20
-100.3829235216689
 10
124.1212781807752
 20
-100.1254026341464
 10
124.5023057414439
 20
-100.1924097413345
 10
124.5023057414439
 20
-100.1924097413345
 10
124.5023057414439
 20
-100.1924097413345
 10
124.5023057414439
 20
-100.1924097413345
 10
124.8867783975978
 20
-100.2594168485226
 10
125.1442992851202
 20
-100.6263195177018
 10
125.0772921779321
 20
-101.0107921738556
 10
125.0772921779321
 20
-101.0107921738556
 10
125.0772921779321
 20
-101.0107921738556
 10
125.0772921779321
 20
-101.0107921738556
 10
125.0173475164887
 20
-101.3530624103152
 10
124.7174519544977
 20
-101.5928410560886
 10
124.3822441637829
 20
-101.5928410560886
 10
124.3822441637829
 20
-101.5928410560886
 10
124.3822441637829
 20
-101.5928410560886
 10
124.3822441637829
 20
-101.5928410560886
 10
124.3434868395739
 20
-101.5928410560886
 10
124.3011121651053
 20
-101.5893959606034
 10
124.258909745411
 20
-101.5823335148586
 97
        0
 97
        0
 92
        1
 93
        1
 72
     4
 94
        3
 73
     0
 74
     1
 95
       38
 96
       34
 40
0.0
 40
0.0
 40
0.0
 40
0.0
 40
1.0
 40
1.0
 40
1.0
 40
2.0
 40
2.0
 40
2.0
 40
3.0
 40
3.0
 40
3.0
 40
4.0
 40
4.0
 40
4.0
 40
5.0
 40
5.0
 40
5.0
 40
6.0
 40
6.0
 40
6.0
 40
7.0
 40
7.0
 40
7.0
 40
8.0
 40
8.0
 40
8.0
 40
9.0
 40
9.0
 40
9.0
 40
10.0
 40
10.0
 40
10.0
 40
11.0
 40
11.0
 40
11.0
 40
11.0
 10
170.7089599182603
 20
-97.02447218787306
 10
170.7089599182603
 20
-97.02447218787306
 10
170.7089599182603
 20
-97.02447218787306
 10
170.7089599182603
 20
-97.02447218787306
 10
170.7089599182603
 20
-97.02447218787306
 10
170.7089599182603
 20
-97.02447218787306
 10
170.7089599182603
 20
-97.02447218787306
 10
170.5749457038841
 20
-96.65756951869395
 10
170.7654594842184
 20
-96.25190952530578
 10
171.1289170579122
 20
-96.1177230561553
 10
171.1289170579122
 20
-96.1177230561553
 10
171.1289170579122
 20
-96.1177230561553
 10
171.1289170579122
 20
-96.1177230561553
 10
171.4958197270913
 20
-95.98370884177908
 10
171.9016519752538
 20
-96.17422262211339
 10
172.03566618963
 20
-96.5411252912925
 10
172.03566618963
 20
-96.5411252912925
 10
172.03566618963
 20
-96.5411252912925
 10
172.03566618963
 20
-96.5411252912925
 10
172.166235308521
 20
-96.90802796047161
 10
171.9791666236719
 20
-97.31024285837454
 10
171.6122639544928
 20
-97.44425707275074
 10
171.6122639544928
 20
-97.44425707275074
 10
171.6122639544928
 20
-97.44425707275074
 10
171.6122639544928
 20
-97.44425707275074
 10
171.5347493060746
 20
-97.47250685572979
 10
171.4534450526228
 20
-97.48663174721932
 10
171.3724853087194
 20
-97.48663174721932
 10
171.3724853087194
 20
-97.48663174721932
 10
171.3724853087194
 20
-97.48663174721932
 10
171.3724853087194
 20
-97.48663174721932
 10
171.0830972879584
 20
-97.48663174721932
 10
170.8112792541722
 20
-97.31024285837454
 10
170.7089599182603
 20
-97.02447218787306
 97
        0
 97
        0
 92
        1
 93
        1
 72
     4
 94
        3
 73
     0
 74
     1
 95
       32
 96
       28
 40
0.0
 40
0.0
 40
0.0
 40
0.0
 40
1.0
 40
1.0
 40
1.0
 40
2.0
 40
2.0
 40
2.0
 40
3.0
 40
3.0
 40
3.0
 40
4.0
 40
4.0
 40
4.0
 40
5.0
 40
5.0
 40
5.0
 40
6.0
 40
6.0
 40
6.0
 40
7.0
 40
7.0
 40
7.0
 40
8.0
 40
8.0
 40
8.0
 40
9.0
 40
9.0
 40
9.0
 40
9.0
 10
125.2395561752873
 20
-97.44063972249124
 10
124.8726535061082
 20
-97.30662550811502
 10
124.6857570760334
 20
-96.90096551472685
 10
124.8197712904096
 20
-96.53750794103298
 10
124.8197712904096
 20
-96.53750794103298
 10
124.8197712904096
 20
-96.53750794103298
 10
124.8197712904096
 20
-96.53750794103298
 10
124.9503404093006
 20
-96.17060527185389
 10
125.3560004026888
 20
-95.98026374629383
 10
125.7229030718679
 20
-96.11427796067005
 10
125.7229030718679
 20
-96.11427796067005
 10
125.7229030718679
 20
-96.11427796067005
 10
125.7229030718679
 20
-96.11427796067005
 10
126.089805741047
 20
-96.24829217504627
 10
126.2767021711218
 20
-96.65395216843443
 10
126.1461330522308
 20
-97.0174097421283
 10
126.1461330522308
 20
-97.0174097421283
 10
126.1461330522308
 20
-97.0174097421283
 10
126.1461330522308
 20
-97.0174097421283
 10
126.0403686208337
 20
-97.30662550811502
 10
125.7687228418217
 20
-97.4830143969598
 10
125.479507075835
 20
-97.4830143969598
 10
125.479507075835
 20
-97.4830143969598
 10
125.479507075835
 20
-97.4830143969598
 10
125.479507075835
 20
-97.4830143969598
 10
125.4018201726426
 20
-97.4830143969598
 10
125.320688173965
 20
-97.46888950547029
 10
125.2395561752873
 20
-97.44063972249124
 97
        0
 97
        0
 92
        1
 93
        1
 72
     4
 94
        3
 73
     0
 74
     1
 95
       32
 96
       28
 40
0.0
 40
0.0
 40
0.0
 40
0.0
 40
1.0
 40
1.0
 40
1.0
 40
2.0
 40
2.0
 40
2.0
 40
3.0
 40
3.0
 40
3.0
 40
4.0
 40
4.0
 40
4.0
 40
5.0
 40
5.0
 40
5.0
 40
6.0
 40
6.0
 40
6.0
 40
7.0
 40
7.0
 40
7.0
 40
8.0
 40
8.0
 40
8.0
 40
9.0
 40
9.0
 40
9.0
 40
9.0
 10
168.9591959213019
 20
-93.27793084766385
 10
168.7652370454823
 20
-92.94272305694905
 10
168.8816812728838
 20
-92.50881328058183
 10
169.2168890635986
 20
-92.31485440476227
 10
169.2168890635986
 20
-92.31485440476227
 10
169.2168890635986
 20
-92.31485440476227
 10
169.2168890635986
 20
-92.31485440476227
 10
169.5555419497986
 20
-92.12072327416844
 10
169.9858343759063
 20
-92.23372240608464
 10
170.1797932517259
 20
-92.57237529228469
 10
170.1797932517259
 20
-92.57237529228469
 10
170.1797932517259
 20
-92.57237529228469
 10
170.1797932517259
 20
-92.57237529228469
 10
170.3775417325792
 20
-92.91102817848476
 10
170.2610975051778
 20
-93.34149285936671
 10
169.9224446189777
 20
-93.53545173518629
 10
169.9224446189777
 20
-93.53545173518629
 10
169.9224446189777
 20
-93.53545173518629
 10
169.9224446189777
 20
-93.53545173518629
 10
169.8128905825468
 20
-93.60245884237439
 10
169.6930012596601
 20
-93.63070862535344
 10
169.5731119367734
 20
-93.63070862535344
 10
169.5731119367734
 20
-93.63070862535344
 10
169.5731119367734
 20
-93.63070862535344
 10
169.5731119367734
 20
-93.63070862535344
 10
169.326098590481
 20
-93.63070862535344
 10
169.0897650401928
 20
-93.50375685672198
 10
168.9591959213019
 20
-93.27793084766385
 97
        0
 97
        0
 92
        1
 93
        1
 72
     4
 94
        3
 73
     0
 74
     1
 95
       38
 96
       34
 40
0.0
 40
0.0
 40
0.0
 40
0.0
 40
1.0
 40
1.0
 40
1.0
 40
2.0
 40
2.0
 40
2.0
 40
3.0
 40
3.0
 40
3.0
 40
4.0
 40
4.0
 40
4.0
 40
5.0
 40
5.0
 40
5.0
 40
6.0
 40
6.0
 40
6.0
 40
7.0
 40
7.0
 40
7.0
 40
8.0
 40
8.0
 40
8.0
 40
9.0
 40
9.0
 40
9.0
 40
10.0
 40
10.0
 40
10.0
 40
11.0
 40
11.0
 40
11.0
 40
11.0
 10
126.9293755108024
 20
-93.53545173518629
 10
126.5907226246023
 20
-93.3378755091072
 10
126.4742783972009
 20
-92.90741082822524
 10
126.67185462328
 20
-92.56875794202517
 10
126.67185462328
 20
-92.56875794202517
 10
126.67185462328
 20
-92.56875794202517
 10
126.67185462328
 20
-92.56875794202517
 10
126.8658134990995
 20
-92.23372240608464
 10
127.2997232754667
 20
-92.1172781786832
 10
127.6349310661816
 20
-92.31123705450275
 10
127.6349310661816
 20
-92.31123705450275
 10
127.6349310661816
 20
-92.31123705450275
 10
127.6349310661816
 20
-92.31123705450275
 10
127.9735839523816
 20
-92.50881328058183
 10
128.0864108295235
 20
-92.9392779614638
 10
127.892451953704
 20
-93.27793084766385
 10
127.892451953704
 20
-93.27793084766385
 10
127.892451953704
 20
-93.27793084766385
 10
127.892451953704
 20
-93.27793084766385
 10
127.892451953704
 20
-93.27793084766385
 10
127.892451953704
 20
-93.27793084766385
 10
127.892451953704
 20
-93.27793084766385
 10
127.892451953704
 20
-93.27793084766385
 10
127.892451953704
 20
-93.27793084766385
 10
127.892451953704
 20
-93.27793084766385
 10
127.761882834813
 20
-93.50375685672198
 10
127.5255492845249
 20
-93.63070862535344
 10
127.282153288492
 20
-93.63070862535344
 10
127.282153288492
 20
-93.63070862535344
 10
127.282153288492
 20
-93.63070862535344
 10
127.282153288492
 20
-93.63070862535344
 10
127.1622639656053
 20
-93.63070862535344
 10
127.0387572924591
 20
-93.59901374688914
 10
126.9293755108024
 20
-93.53545173518629
 97
        0
 97
        0
 92
        1
 93
        1
 72
     4
 94
        3
 73
     0
 74
     1
 95
       38
 96
       34
 40
0.0
 40
0.0
 40
0.0
 40
0.0
 40
1.0
 40
1.0
 40
1.0
 40
2.0
 40
2.0
 40
2.0
 40
3.0
 40
3.0
 40
3.0
 40
4.0
 40
4.0
 40
4.0
 40
5.0
 40
5.0
 40
5.0
 40
6.0
 40
6.0
 40
6.0
 40
7.0
 40
7.0
 40
7.0
 40
8.0
 40
8.0
 40
8.0
 40
9.0
 40
9.0
 40
9.0
 40
10.0
 40
10.0
 40
10.0
 40
11.0
 40
11.0
 40
11.0
 40
11.0
 10
166.5886257179015
 20
-89.89484708114851
 10
166.5886257179015
 20
-89.89484708114851
 10
166.5886257179015
 20
-89.89484708114851
 10
166.5886257179015
 20
-89.89484708114851
 10
166.5886257179015
 20
-89.89484708114851
 10
166.5886257179015
 20
-89.89484708114851
 10
166.5886257179015
 20
-89.89484708114851
 10
166.3347221806386
 20
-89.59495151915752
 10
166.3733072500733
 20
-89.15036194678602
 10
166.6733750668386
 20
-88.89990350500837
 10
166.6733750668386
 20
-88.89990350500837
 10
166.6733750668386
 20
-88.89990350500837
 10
166.6733750668386
 20
-88.89990350500837
 10
166.9730983740554
 20
-88.6494450632307
 10
167.4175156916526
 20
-88.68820238743976
 10
167.6683186429788
 20
-88.98809794943077
 10
167.6683186429788
 20
-88.98809794943077
 10
167.6683186429788
 20
-88.98809794943077
 10
167.6683186429788
 20
-88.98809794943077
 10
167.9187770847564
 20
-89.28454841593651
 10
167.8798475057731
 20
-89.73241082901899
 10
167.5801241985564
 20
-89.98304152557091
 10
167.5801241985564
 20
-89.98304152557091
 10
167.5801241985564
 20
-89.98304152557091
 10
167.5801241985564
 20
-89.98304152557091
 10
167.4495550796654
 20
-90.09225105245334
 10
167.2872910823101
 20
-90.14530552292618
 10
167.1284721804401
 20
-90.14530552292618
 10
167.1284721804401
 20
-90.14530552292618
 10
167.1284721804401
 20
-90.14530552292618
 10
167.1284721804401
 20
-90.14530552292618
 10
166.9272786041015
 20
-90.14530552292618
 10
166.7260850277629
 20
-90.06055617398903
 10
166.5886257179015
 20
-89.89484708114851
 97
        0
 97
        0
 92
        1
 93
        1
 72
     4
 94
        3
 73
     0
 74
     1
 95
       32
 96
       28
 40
0.0
 40
0.0
 40
0.0
 40
0.0
 40
1.0
 40
1.0
 40
1.0
 40
2.0
 40
2.0
 40
2.0
 40
3.0
 40
3.0
 40
3.0
 40
4.0
 40
4.0
 40
4.0
 40
5.0
 40
5.0
 40
5.0
 40
6.0
 40
6.0
 40
6.0
 40
7.0
 40
7.0
 40
7.0
 40
8.0
 40
8.0
 40
8.0
 40
9.0
 40
9.0
 40
9.0
 40
9.0
 10
129.271868185998
 20
-89.9794241753114
 10
128.971972624007
 20
-89.72896573353374
 10
128.933215299798
 20
-89.28454841593651
 10
129.1871188370609
 20
-88.9846528539455
 10
129.1871188370609
 20
-88.9846528539455
 10
129.1871188370609
 20
-88.9846528539455
 10
129.1871188370609
 20
-88.9846528539455
 10
129.4341321833533
 20
-88.68820238743976
 10
129.88216685121
 20
-88.6494450632307
 10
130.1784450629415
 20
-88.89990350500837
 10
130.1784450629415
 20
-88.89990350500837
 10
130.1784450629415
 20
-88.89990350500837
 10
130.1784450629415
 20
-88.89990350500837
 10
130.4783406249325
 20
-89.15036194678602
 10
130.5170979491416
 20
-89.59495151915752
 10
130.2666395073639
 20
-89.89484708114851
 10
130.2666395073639
 20
-89.89484708114851
 10
130.2666395073639
 20
-89.89484708114851
 10
130.2666395073639
 20
-89.89484708114851
 10
130.1255628472429
 20
-90.06055617398903
 10
129.9279866211639
 20
-90.14530552292618
 10
129.7269652995995
 20
-90.14530552292618
 10
129.7269652995995
 20
-90.14530552292618
 10
129.7269652995995
 20
-90.14530552292618
 10
129.7269652995995
 20
-90.14530552292618
 10
129.5647013022443
 20
-90.14530552292618
 10
129.402437304889
 20
-90.09225105245334
 10
129.271868185998
 20
-89.9794241753114
 97
        0
 97
        0
 92
        1
 93
        1
 72
     4
 94
        3
 73
     0
 74
     1
 95
       38
 96
       34
 40
0.0
 40
0.0
 40
0.0
 40
0.0
 40
1.0
 40
1.0
 40
1.0
 40
2.0
 40
2.0
 40
2.0
 40
3.0
 40
3.0
 40
3.0
 40
4.0
 40
4.0
 40
4.0
 40
5.0
 40
5.0
 40
5.0
 40
6.0
 40
6.0
 40
6.0
 40
7.0
 40
7.0
 40
7.0
 40
8.0
 40
8.0
 40
8.0
 40
9.0
 40
9.0
 40
9.0
 40
10.0
 40
10.0
 40
10.0
 40
11.0
 40
11.0
 40
11.0
 40
11.0
 10
163.6640841604729
 20
-86.97375061920518
 10
163.6640841604729
 20
-86.97375061920518
 10
163.6640841604729
 20
-86.97375061920518
 10
163.6640841604729
 20
-86.97375061920518
 10
163.6640841604729
 20
-86.97375061920518
 10
163.6640841604729
 20
-86.97375061920518
 10
163.6640841604729
 20
-86.97375061920518
 10
163.3678059487414
 20
-86.72329217742751
 10
163.3288763697581
 20
-86.27887485983028
 10
163.5793348115357
 20
-85.97897929783929
 10
163.5793348115357
 20
-85.97897929783929
 10
163.5793348115357
 20
-85.97897929783929
 10
163.5793348115357
 20
-85.97897929783929
 10
163.8297932533134
 20
-85.6790837358483
 10
164.2745550804592
 20
-85.64032641163924
 10
164.5742783876759
 20
-85.89078485341689
 10
164.5742783876759
 20
-85.89078485341689
 10
164.5742783876759
 20
-85.89422994890214
 10
164.5742783876759
 20
-85.89422994890214
 10
164.8705565994074
 20
-86.14124329519456
 10
164.9094861783907
 20
-86.5892779630513
 10
164.659027736613
 20
-86.88555617478278
 10
164.659027736613
 20
-86.88555617478278
 10
164.659027736613
 20
-86.88555617478278
 10
164.659027736613
 20
-86.88555617478278
 10
164.5177788217178
 20
-87.05143752239756
 10
164.320374850413
 20
-87.13963196681996
 10
164.1191812740744
 20
-87.13963196681996
 10
164.1191812740744
 20
-87.13963196681996
 10
164.1191812740744
 20
-87.13963196681996
 10
164.1191812740744
 20
-87.13963196681996
 10
163.9569172767191
 20
-87.13963196681996
 10
163.7980983748491
 20
-87.08313240086186
 10
163.6640841604729
 20
-86.97375061920518
 97
        0
 97
        0
 92
        1
 93
        1
 72
     4
 94
        3
 73
     0
 74
     1
 95
       32
 96
       28
 40
0.0
 40
0.0
 40
0.0
 40
0.0
 40
1.0
 40
1.0
 40
1.0
 40
2.0
 40
2.0
 40
2.0
 40
3.0
 40
3.0
 40
3.0
 40
4.0
 40
4.0
 40
4.0
 40
5.0
 40
5.0
 40
5.0
 40
6.0
 40
6.0
 40
6.0
 40
7.0
 40
7.0
 40
7.0
 40
8.0
 40
8.0
 40
8.0
 40
9.0
 40
9.0
 40
9.0
 40
9.0
 10
132.1927923931671
 20
-86.88555617478278
 10
131.9423339513894
 20
-86.58566061279178
 10
131.9810912755985
 20
-86.14124329519456
 10
132.2809868375895
 20
-85.89078485341689
 10
132.2809868375895
 20
-85.89078485341689
 10
132.2809868375895
 20
-85.89078485341689
 10
132.2809868375895
 20
-85.89078485341689
 10
132.5774373040952
 20
-85.64032641163924
 10
133.0252997171777
 20
-85.6790837358483
 10
133.2759304137296
 20
-85.97897929783929
 10
133.2759304137296
 20
-85.97897929783929
 10
133.2759304137296
 20
-85.97897929783929
 10
133.2759304137296
 20
-85.97897929783929
 10
133.5263888555073
 20
-86.27525750957078
 10
133.487459276524
 20
-86.71984708194226
 10
133.1877359693072
 20
-86.97030552371993
 10
133.1877359693072
 20
-86.97030552371993
 10
133.1877359693072
 20
-86.97030552371993
 10
133.1877359693072
 20
-86.97030552371993
 10
133.0571668504163
 20
-87.08313240086186
 10
132.894902853061
 20
-87.13601461656044
 10
132.736083951191
 20
-87.13601461656044
 10
132.736083951191
 20
-87.13601461656044
 10
132.736083951191
 20
-87.13601461656044
 10
132.736083951191
 20
-87.13601461656044
 10
132.5350626296267
 20
-87.13601461656044
 10
132.3338690532881
 20
-87.05143752239756
 10
132.1927923931671
 20
-86.88555617478278
 97
        0
 97
        0
 92
        1
 93
        1
 72
     4
 94
        3
 73
     0
 74
     1
 95
       32
 96
       28
 40
0.0
 40
0.0
 40
0.0
 40
0.0
 40
1.0
 40
1.0
 40
1.0
 40
2.0
 40
2.0
 40
2.0
 40
3.0
 40
3.0
 40
3.0
 40
4.0
 40
4.0
 40
4.0
 40
5.0
 40
5.0
 40
5.0
 40
6.0
 40
6.0
 40
6.0
 40
7.0
 40
7.0
 40
7.0
 40
8.0
 40
8.0
 40
8.0
 40
9.0
 40
9.0
 40
9.0
 40
9.0
 10
160.2810003939575
 20
-84.59956306554525
 10
159.9457926032427
 20
-84.4056041897257
 10
159.8293483758413
 20
-83.97169441335848
 10
160.0233072516608
 20
-83.63648662264366
 10
160.0233072516608
 20
-83.63648662264366
 10
160.0233072516608
 20
-83.63648662264366
 10
160.0233072516608
 20
-83.63648662264366
 10
160.2210557325142
 20
-83.29783373644361
 10
160.6513481586219
 20
-83.18138950904216
 10
160.990001044822
 20
-83.37896573512124
 10
160.990001044822
 20
-83.37896573512124
 10
160.990001044822
 20
-83.37896573512124
 10
160.990001044822
 20
-83.37896573512124
 10
161.3252088355368
 20
-83.5729246109408
 10
161.4416530629382
 20
-84.00338929182277
 10
161.2476941871186
 20
-84.34204217802282
 10
161.2476941871186
 20
-84.34204217802282
 10
161.2476941871186
 20
-84.34204217802282
 10
161.2476941871186
 20
-84.34204217802282
 10
161.1136799727424
 20
-84.56786818708096
 10
160.8773464224543
 20
-84.69481995571242
 10
160.6337781716471
 20
-84.69481995571242
 10
160.6337781716471
 20
-84.69481995571242
 10
160.6337781716471
 20
-84.69481995571242
 10
160.6337781716471
 20
-84.69481995571242
 10
160.5138888487604
 20
-84.69481995571242
 10
160.3939995258737
 20
-84.66312507724811
 10
160.2810003939575
 20
-84.59956306554525
 97
        0
 97
        0
 92
        1
 93
        1
 72
     4
 94
        3
 73
     0
 74
     1
 95
       32
 96
       28
 40
0.0
 40
0.0
 40
0.0
 40
0.0
 40
1.0
 40
1.0
 40
1.0
 40
2.0
 40
2.0
 40
2.0
 40
3.0
 40
3.0
 40
3.0
 40
4.0
 40
4.0
 40
4.0
 40
5.0
 40
5.0
 40
5.0
 40
6.0
 40
6.0
 40
6.0
 40
7.0
 40
7.0
 40
7.0
 40
8.0
 40
8.0
 40
8.0
 40
9.0
 40
9.0
 40
9.0
 40
9.0
 10
135.607743292921
 20
-84.34204217802282
 10
135.4136121623272
 20
-84.00338929182277
 10
135.5266112942434
 20
-83.5729246109408
 10
135.8652641804434
 20
-83.375520639636
 10
135.8652641804434
 20
-83.375520639636
 10
135.8652641804434
 20
-83.37896573512124
 10
135.8652641804434
 20
-83.37896573512124
 10
136.200299716384
 20
-83.18138950904216
 10
136.6343817475255
 20
-83.29783373644361
 10
136.828340623345
 20
-83.63304152715841
 10
136.828340623345
 20
-83.63304152715841
 10
136.828340623345
 20
-83.63304152715841
 10
136.828340623345
 20
-83.63304152715841
 10
137.0259168494241
 20
-83.97169441335848
 10
136.9094726220226
 20
-84.40198683946618
 10
136.5708197358226
 20
-84.59956306554525
 10
136.5708197358226
 20
-84.59956306554525
 10
136.5708197358226
 20
-84.59956306554525
 10
136.5708197358226
 20
-84.59956306554525
 10
136.4614379541659
 20
-84.66312507724811
 10
136.3379312810197
 20
-84.69481995571242
 10
136.218041958133
 20
-84.69481995571242
 10
136.218041958133
 20
-84.69481995571242
 10
136.218041958133
 20
-84.69481995571242
 10
136.218041958133
 20
-84.69481995571242
 10
135.9746459621001
 20
-84.69481995571242
 10
135.738312411812
 20
-84.56786818708096
 10
135.607743292921
 20
-84.34204217802282
 97
        0
 97
        0
 92
        1
 93
        1
 72
     4
 94
        3
 73
     0
 74
     1
 95
       38
 96
       34
 40
0.0
 40
0.0
 40
0.0
 40
0.0
 40
1.0
 40
1.0
 40
1.0
 40
2.0
 40
2.0
 40
2.0
 40
3.0
 40
3.0
 40
3.0
 40
4.0
 40
4.0
 40
4.0
 40
5.0
 40
5.0
 40
5.0
 40
6.0
 40
6.0
 40
6.0
 40
7.0
 40
7.0
 40
7.0
 40
8.0
 40
8.0
 40
8.0
 40
9.0
 40
9.0
 40
9.0
 40
10.0
 40
10.0
 40
10.0
 40
11.0
 40
11.0
 40
11.0
 40
11.0
 10
156.5379041492336
 20
-82.84979906858686
 10
156.5379041492336
 20
-82.84979906858686
 10
156.5379041492336
 20
-82.84979906858686
 10
156.5379041492336
 20
-82.84979906858686
 10
156.5379041492336
 20
-82.84979906858686
 10
156.5379041492336
 20
-82.84979906858686
 10
156.5379041492336
 20
-82.84979906858686
 10
156.1747910850883
 20
-82.71578485421064
 10
155.9842773047539
 20
-82.31356995630773
 10
156.1182915191302
 20
-81.94666728712862
 10
156.1182915191302
 20
-81.94666728712862
 10
156.1182915191302
 20
-81.94666728712862
 10
156.1182915191302
 20
-81.94666728712862
 10
156.2523057335064
 20
-81.57976461794951
 10
156.6577934721203
 20
-81.39286818787471
 10
157.0212510458141
 20
-81.52343730676567
 10
157.0212510458141
 20
-81.52343730676567
 10
157.0212510458141
 20
-81.52343730676567
 10
157.0212510458141
 20
-81.52343730676567
 10
157.3881537149933
 20
-81.6574515211419
 10
157.5786674953276
 20
-82.06311151453006
 10
157.4446532809513
 20
-82.43001418370918
 10
157.4446532809513
 20
-82.43001418370918
 10
157.4446532809513
 20
-82.43001418370918
 10
157.4446532809513
 20
-82.43001418370918
 10
157.3388888495542
 20
-82.71578485421064
 10
157.0670708157679
 20
-82.89561883854068
 10
156.7814724000407
 20
-82.89561883854068
 10
156.7814724000407
 20
-82.89561883854068
 10
156.7814724000407
 20
-82.89561883854068
 10
156.7814724000407
 20
-82.89561883854068
 10
156.7001681465889
 20
-82.89561883854068
 10
156.6192084026855
 20
-82.88149394705115
 10
156.5379041492336
 20
-82.84979906858686
 97
        0
 97
        0
 92
        1
 93
        1
 72
     4
 94
        3
 73
     0
 74
     1
 95
       32
 96
       28
 40
0.0
 40
0.0
 40
0.0
 40
0.0
 40
1.0
 40
1.0
 40
1.0
 40
2.0
 40
2.0
 40
2.0
 40
3.0
 40
3.0
 40
3.0
 40
4.0
 40
4.0
 40
4.0
 40
5.0
 40
5.0
 40
5.0
 40
6.0
 40
6.0
 40
6.0
 40
7.0
 40
7.0
 40
7.0
 40
8.0
 40
8.0
 40
8.0
 40
9.0
 40
9.0
 40
9.0
 40
9.0
 10
139.410611944314
 20
-82.43001418370918
 10
139.2765977299378
 20
-82.06311151453006
 10
139.4671115102721
 20
-81.6574515211419
 10
139.8340141794512
 20
-81.52343730676567
 10
139.8340141794512
 20
-81.52343730676567
 10
139.8340141794512
 20
-81.52343730676567
 10
139.8340141794512
 20
-81.52343730676567
 10
140.1972994983708
 20
-81.3892508376152
 10
140.6031317465333
 20
-81.57976461794951
 10
140.7371459609095
 20
-81.94666728712862
 10
140.7371459609095
 20
-81.94666728712862
 10
140.7371459609095
 20
-81.94666728712862
 10
140.7371459609095
 20
-81.94666728712862
 10
140.8711601752857
 20
-82.31012486082247
 10
140.6806463949514
 20
-82.71578485421064
 10
140.3173610760318
 20
-82.84979906858686
 10
140.3173610760318
 20
-82.84979906858686
 10
140.3173610760318
 20
-82.84979906858686
 10
140.3173610760318
 20
-82.84979906858686
 10
140.2362290773542
 20
-82.87804885156591
 10
140.1550970786765
 20
-82.89217374305544
 10
140.0739650799989
 20
-82.89217374305544
 10
140.0739650799989
 20
-82.89217374305544
 10
140.0739650799989
 20
-82.89217374305544
 10
140.0739650799989
 20
-82.89217374305544
 10
139.7845770592379
 20
-82.89217374305544
 10
139.5165486304855
 20
-82.71578485421064
 10
139.410611944314
 20
-82.43001418370918
 97
        0
 97
        0
 92
        1
 93
        1
 72
     4
 94
        3
 73
     0
 74
     1
 95
       38
 96
       34
 40
0.0
 40
0.0
 40
0.0
 40
0.0
 40
1.0
 40
1.0
 40
1.0
 40
2.0
 40
2.0
 40
2.0
 40
3.0
 40
3.0
 40
3.0
 40
4.0
 40
4.0
 40
4.0
 40
5.0
 40
5.0
 40
5.0
 40
6.0
 40
6.0
 40
6.0
 40
7.0
 40
7.0
 40
7.0
 40
8.0
 40
8.0
 40
8.0
 40
9.0
 40
9.0
 40
9.0
 40
10.0
 40
10.0
 40
10.0
 40
11.0
 40
11.0
 40
11.0
 40
11.0
 10
152.5481390677658
 20
-81.78440328977335
 10
152.5481390677658
 20
-81.78440328977335
 10
152.5481390677658
 20
-81.78440328977335
 10
152.5481390677658
 20
-81.78440328977335
 10
152.5481390677658
 20
-81.78440328977335
 10
152.5481390677658
 20
-81.78440328977335
 10
152.5481390677658
 20
-81.78440328977335
 10
152.1636664116119
 20
-81.71739618258525
 10
151.9094183648004
 20
-81.35049351340614
 10
151.9765977267628
 20
-80.96602085725225
 10
151.9765977267628
 20
-80.96602085725225
 10
151.9765977267628
 20
-80.96602085725225
 10
151.9765977267628
 20
-80.96602085725225
 10
152.0437770887252
 20
-80.5813759463241
 10
152.4068901528705
 20
-80.32747240906119
 10
152.7913628090244
 20
-80.3944795162493
 10
152.7913628090244
 20
-80.3944795162493
 10
152.7913628090244
 20
-80.3944795162493
 10
152.7913628090244
 20
-80.3944795162493
 10
153.1761799747268
 20
-80.46148662343741
 10
153.433528607475
 20
-80.82838929261652
 10
153.3666937550611
 20
-81.20941685328515
 10
153.3666937550611
 20
-81.20941685328515
 10
153.3666937550611
 20
-81.20941685328515
 10
153.3666937550611
 20
-81.20941685328515
 10
153.3064045840692
 20
-81.55151483497046
 10
153.0066812768525
 20
-81.79491083100336
 10
152.6714734861377
 20
-81.79491083100336
 10
152.6714734861377
 20
-81.79491083100336
 10
152.6714734861377
 20
-81.79491083100336
 10
152.6714734861377
 20
-81.79491083100336
 10
152.6328884167029
 20
-81.79491083100336
 10
152.5905137422343
 20
-81.79146573551812
 10
152.5481390677658
 20
-81.78440328977335
 97
        0
 97
        0
 92
        1
 93
        1
 72
     4
 94
        3
 73
     0
 74
     1
 95
       38
 96
       34
 40
0.0
 40
0.0
 40
0.0
 40
0.0
 40
1.0
 40
1.0
 40
1.0
 40
2.0
 40
2.0
 40
2.0
 40
3.0
 40
3.0
 40
3.0
 40
4.0
 40
4.0
 40
4.0
 40
5.0
 40
5.0
 40
5.0
 40
6.0
 40
6.0
 40
6.0
 40
7.0
 40
7.0
 40
7.0
 40
8.0
 40
8.0
 40
8.0
 40
9.0
 40
9.0
 40
9.0
 40
10.0
 40
10.0
 40
10.0
 40
11.0
 40
11.0
 40
11.0
 40
11.0
 10
143.492361075238
 20
-81.20941685328515
 10
143.4253539680499
 20
-80.824771942357
 10
143.6792575053128
 20
-80.46148662343741
 10
144.0637301614667
 20
-80.3944795162493
 10
144.0637301614667
 20
-80.3944795162493
 10
144.0637301614667
 20
-80.3944795162493
 10
144.0637301614667
 20
-80.3944795162493
 10
144.4483750723949
 20
-80.32747240906119
 10
144.815277741574
 20
-80.5813759463241
 10
144.8822848487621
 20
-80.96602085725225
 10
144.8822848487621
 20
-80.96602085725225
 10
144.8822848487621
 20
-80.96602085725225
 10
144.8822848487621
 20
-80.96602085725225
 10
144.9456746056907
 20
-81.35049351340614
 10
144.6917710684278
 20
-81.71739618258525
 10
144.3072984122739
 20
-81.7809581942881
 10
144.3072984122739
 20
-81.7809581942881
 10
144.3072984122739
 20
-81.7809581942881
 10
144.3072984122739
 20
-81.7809581942881
 10
144.3072984122739
 20
-81.7809581942881
 10
144.3072984122739
 20
-81.7809581942881
 10
144.3072984122739
 20
-81.78440328977335
 10
144.3072984122739
 20
-81.78440328977335
 10
144.3072984122739
 20
-81.78440328977335
 10
144.3072984122739
 20
-81.78440328977335
 10
144.2649237378053
 20
-81.79146573551812
 10
144.225994158822
 20
-81.79491083100336
 10
144.1872368346129
 20
-81.79491083100336
 10
144.1872368346129
 20
-81.79491083100336
 10
144.1872368346129
 20
-81.79491083100336
 10
144.1872368346129
 20
-81.79491083100336
 10
143.8485839484129
 20
-81.79491083100336
 10
143.5523057366814
 20
-81.55151483497046
 10
143.492361075238
 20
-81.20941685328515
 97
        0
 97
        0
 75
     2
 76
     1
 98
        0
  0
SPLINE
  5
62
330
1F
100
AcDbEntity
  8
Laag 1
370
     0
100
AcDbSpline
210
0.0
220
0.0
230
1.0
 70
    11
 71
     3
 72
    26
 73
    22
 74
     0
 42
0.0000000001
 43
0.0000000001
 12
1.0
 22
0.0
 32
0.0
 13
1.0
 23
0.0
 33
0.0
 40
0.0
 40
0.0
 40
0.0
 40
0.0
 40
1.0
 40
1.0
 40
1.0
 40
2.0
 40
2.0
 40
2.0
 40
3.0
 40
3.0
 40
3.0
 40
4.0
 40
4.0
 40
4.0
 40
5.0
 40
5.0
 40
5.0
 40
6.0
 40
6.0
 40
6.0
 40
7.0
 40
7.0
 40
7.0
 40
7.0
 10
148.4276326126327
 20
-81.42818041659852
 30
0.0
 10
148.2407361825579
 20
-81.42818041659852
 30
0.0
 10
148.0572848479683
 20
-81.35049351340614
 30
0.0
 10
147.9267157290774
 20
-81.21992439451516
 30
0.0
 10
147.7961466101864
 20
-81.0893552756242
 30
0.0
 10
147.7220770572535
 20
-80.90607619580891
 30
0.0
 10
147.7220770572535
 20
-80.72262486121934
 30
0.0
 10
147.7220770572535
 20
-80.53555617637028
 30
0.0
 10
147.7961466101864
 20
-80.35210484178073
 30
0.0
 10
147.9267157290774
 20
-80.22153572288975
 30
0.0
 10
148.1878539668593
 20
-79.96056973988209
 30
0.0
 10
148.6641384176951
 20
-79.96056973988209
 30
0.0
 10
148.9249321459285
 20
-80.22153572288975
 30
0.0
 10
149.0555012648195
 20
-80.35210484178073
 30
0.0
 10
149.1295708177523
 20
-80.53555617637028
 30
0.0
 10
149.1295708177523
 20
-80.72262486121934
 30
0.0
 10
149.1295708177523
 20
-80.90607619580891
 30
0.0
 10
149.0555012648195
 20
-81.0893552756242
 30
0.0
 10
148.9249321459285
 20
-81.21992439451516
 30
0.0
 10
148.7947075365861
 20
-81.35049351340614
 30
0.0
 10
148.6110839472222
 20
-81.42818041659852
 30
0.0
 10
148.4276326126327
 20
-81.42818041659852
 30
0.0
  0
HATCH
  5
63
330
1F
100
AcDbEntity
  8
Laag 1
 62
   179
420
  1907995
100
AcDbHatch
 10
0.0
 20
0.0
 30
0.0
210
0.0
220
0.0
230
1.0
  2
SOLID
 70
     1
 71
     0
 91
        1
 92
        1
 93
        1
 72
     4
 94
        3
 73
     0
 74
     1
 95
       26
 96
       22
 40
0.0
 40
0.0
 40
0.0
 40
0.0
 40
1.0
 40
1.0
 40
1.0
 40
2.0
 40
2.0
 40
2.0
 40
3.0
 40
3.0
 40
3.0
 40
4.0
 40
4.0
 40
4.0
 40
5.0
 40
5.0
 40
5.0
 40
6.0
 40
6.0
 40
6.0
 40
7.0
 40
7.0
 40
7.0
 40
7.0
 10
148.4276326126327
 20
-81.42818041659852
 10
148.2407361825579
 20
-81.42818041659852
 10
148.0572848479683
 20
-81.35049351340614
 10
147.9267157290774
 20
-81.21992439451516
 10
147.7961466101864
 20
-81.0893552756242
 10
147.7220770572535
 20
-80.90607619580891
 10
147.7220770572535
 20
-80.72262486121934
 10
147.7220770572535
 20
-80.53555617637028
 10
147.7961466101864
 20
-80.35210484178073
 10
147.9267157290774
 20
-80.22153572288975
 10
148.1878539668593
 20
-79.96056973988209
 10
148.6641384176951
 20
-79.96056973988209
 10
148.9249321459285
 20
-80.22153572288975
 10
149.0555012648195
 20
-80.35210484178073
 10
149.1295708177523
 20
-80.53555617637028
 10
149.1295708177523
 20
-80.72262486121934
 10
149.1295708177523
 20
-80.90607619580891
 10
149.0555012648195
 20
-81.0893552756242
 10
148.9249321459285
 20
-81.21992439451516
 10
148.7947075365861
 20
-81.35049351340614
 10
148.6110839472222
 20
-81.42818041659852
 10
148.4276326126327
 20
-81.42818041659852
 97
        0
 97
        0
 75
     2
 76
     1
 98
        0
  0
SPLINE
  5
64
330
1F
100
AcDbEntity
  8
Laag 1
370
     0
100
AcDbSpline
210
0.0
220
0.0
230
1.0
 70
    11
 71
     3
 72
    26
 73
    22
 74
     0
 42
0.0000000001
 43
0.0000000001
 12
1.0
 22
0.0
 32
0.0
 13
1.0
 23
0.0
 33
0.0
 40
0.0
 40
0.0
 40
0.0
 40
0.0
 40
1.0
 40
1.0
 40
1.0
 40
2.0
 40
2.0
 40
2.0
 40
3.0
 40
3.0
 40
3.0
 40
4.0
 40
4.0
 40
4.0
 40
5.0
 40
5.0
 40
5.0
 40
6.0
 40
6.0
 40
6.0
 40
7.0
 40
7.0
 40
7.0
 40
7.0
 10
172.836306380402
 20
-105.8366819295936
 30
0.0
 10
172.6530273005868
 20
-105.8366819295936
 30
0.0
 10
172.4694037112229
 20
-105.7626123766607
 30
0.0
 10
172.338834592332
 20
-105.6320432577698
 30
0.0
 10
172.208265473441
 20
-105.5018186484273
 30
0.0
 10
172.1307508250229
 20
-105.3181950590635
 30
0.0
 10
172.1307508250229
 20
-105.1311263742144
 30
0.0
 10
172.1307508250229
 20
-104.9478472943992
 30
0.0
 10
172.208265473441
 20
-104.7643959598096
 30
0.0
 10
172.338834592332
 20
-104.6338268409186
 30
0.0
 10
172.6034179255992
 20
-104.3726886031367
 30
0.0
 10
173.0726399306902
 20
-104.3692435076514
 30
0.0
 10
173.3372232639574
 20
-104.6338268409186
 30
0.0
 10
173.4677923828483
 20
-104.7643959598096
 30
0.0
 10
173.5418619357812
 20
-104.9478472943992
 30
0.0
 10
173.5418619357812
 20
-105.1311263742144
 30
0.0
 10
173.5418619357812
 20
-105.3181950590635
 30
0.0
 10
173.4677923828483
 20
-105.4980290433936
 30
0.0
 10
173.3372232639574
 20
-105.6320432577698
 30
0.0
 10
173.2066541450664
 20
-105.7626123766607
 30
0.0
 10
173.0233750652511
 20
-105.8366819295936
 30
0.0
 10
172.836306380402
 20
-105.8366819295936
 30
0.0
  0
HATCH
  5
65
330
1F
100
AcDbEntity
  8
Laag 1
 62
   179
420
  1907995
100
AcDbHatch
 10
0.0
 20
0.0
 30
0.0
210
0.0
220
0.0
230
1.0
  2
SOLID
 70
     1
 71
     0
 91
        1
 92
        1
 93
        1
 72
     4
 94
        3
 73
     0
 74
     1
 95
       26
 96
       22
 40
0.0
 40
0.0
 40
0.0
 40
0.0
 40
1.0
 40
1.0
 40
1.0
 40
2.0
 40
2.0
 40
2.0
 40
3.0
 40
3.0
 40
3.0
 40
4.0
 40
4.0
 40
4.0
 40
5.0
 40
5.0
 40
5.0
 40
6.0
 40
6.0
 40
6.0
 40
7.0
 40
7.0
 40
7.0
 40
7.0
 10
172.836306380402
 20
-105.8366819295936
 10
172.6530273005868
 20
-105.8366819295936
 10
172.4694037112229
 20
-105.7626123766607
 10
172.338834592332
 20
-105.6320432577698
 10
172.208265473441
 20
-105.5018186484273
 10
172.1307508250229
 20
-105.3181950590635
 10
172.1307508250229
 20
-105.1311263742144
 10
172.1307508250229
 20
-104.9478472943992
 10
172.208265473441
 20
-104.7643959598096
 10
172.338834592332
 20
-104.6338268409186
 10
172.6034179255992
 20
-104.3726886031367
 10
173.0726399306902
 20
-104.3692435076514
 10
173.3372232639574
 20
-104.6338268409186
 10
173.4677923828483
 20
-104.7643959598096
 10
173.5418619357812
 20
-104.9478472943992
 10
173.5418619357812
 20
-105.1311263742144
 10
173.5418619357812
 20
-105.3181950590635
 10
173.4677923828483
 20
-105.4980290433936
 10
173.3372232639574
 20
-105.6320432577698
 10
173.2066541450664
 20
-105.7626123766607
 10
173.0233750652511
 20
-105.8366819295936
 10
172.836306380402
 20
-105.8366819295936
 97
        0
 97
        0
 75
     2
 76
     1
 98
        0
  0
SPLINE
  5
66
330
1F
100
AcDbEntity
  8
Laag 1
370
     0
100
AcDbSpline
210
0.0
220
0.0
230
1.0
 70
    11
 71
     3
 72
    26
 73
    22
 74
     0
 42
0.0000000001
 43
0.0000000001
 12
1.0
 22
0.0
 32
0.0
 13
1.0
 23
0.0
 33
0.0
 40
0.0
 40
0.0
 40
0.0
 40
0.0
 40
1.0
 40
1.0
 40
1.0
 40
2.0
 40
2.0
 40
2.0
 40
3.0
 40
3.0
 40
3.0
 40
4.0
 40
4.0
 40
4.0
 40
5.0
 40
5.0
 40
5.0
 40
6.0
 40
6.0
 40
6.0
 40
7.0
 40
7.0
 40
7.0
 40
7.0
 10
148.4241875171474
 20
-130.2489730476225
 30
0.0
 10
148.2407361825579
 20
-130.2489730476225
 30
0.0
 10
148.0572848479683
 20
-130.1749034946896
 30
0.0
 10
147.9267157290774
 20
-130.0443343757987
 30
0.0
 10
147.7961466101864
 20
-129.9137652569077
 30
0.0
 10
147.7186319617683
 20
-129.7304861770924
 30
0.0
 10
147.7186319617683
 20
-129.5434174922433
 30
0.0
 10
147.7186319617683
 20
-129.360138412428
 30
0.0
 10
147.7961466101864
 20
-129.1765148230642
 30
0.0
 10
147.9267157290774
 20
-129.0459457041732
 30
0.0
 10
148.1912990623445
 20
-128.7813623709061
 30
0.0
 10
148.6641384176951
 20
-128.7851519759398
 30
0.0
 10
148.9249321459285
 20
-129.0459457041732
 30
0.0
 10
149.0555012648195
 20
-129.1765148230642
 30
0.0
 10
149.1295708177523
 20
-129.360138412428
 30
0.0
 10
149.1295708177523
 20
-129.5434174922433
 30
0.0
 10
149.1295708177523
 20
-129.7304861770924
 30
0.0
 10
149.0555012648195
 20
-129.9103201614224
 30
0.0
 10
148.9249321459285
 20
-130.0443343757987
 30
0.0
 10
148.7947075365861
 20
-130.1749034946896
 30
0.0
 10
148.6110839472222
 20
-130.2489730476225
 30
0.0
 10
148.4241875171474
 20
-130.2489730476225
 30
0.0
  0
HATCH
  5
67
330
1F
100
AcDbEntity
  8
Laag 1
 62
   179
420
  1907995
100
AcDbHatch
 10
0.0
 20
0.0
 30
0.0
210
0.0
220
0.0
230
1.0
  2
SOLID
 70
     1
 71
     0
 91
        1
 92
        1
 93
        1
 72
     4
 94
        3
 73
     0
 74
     1
 95
       26
 96
       22
 40
0.0
 40
0.0
 40
0.0
 40
0.0
 40
1.0
 40
1.0
 40
1.0
 40
2.0
 40
2.0
 40
2.0
 40
3.0
 40
3.0
 40
3.0
 40
4.0
 40
4.0
 40
4.0
 40
5.0
 40
5.0
 40
5.0
 40
6.0
 40
6.0
 40
6.0
 40
7.0
 40
7.0
 40
7.0
 40
7.0
 10
148.4241875171474
 20
-130.2489730476225
 10
148.2407361825579
 20
-130.2489730476225
 10
148.0572848479683
 20
-130.1749034946896
 10
147.9267157290774
 20
-130.0443343757987
 10
147.7961466101864
 20
-129.9137652569077
 10
147.7186319617683
 20
-129.7304861770924
 10
147.7186319617683
 20
-129.5434174922433
 10
147.7186319617683
 20
-129.360138412428
 10
147.7961466101864
 20
-129.1765148230642
 10
147.9267157290774
 20
-129.0459457041732
 10
148.1912990623445
 20
-128.7813623709061
 10
148.6641384176951
 20
-128.7851519759398
 10
148.9249321459285
 20
-129.0459457041732
 10
149.0555012648195
 20
-129.1765148230642
 10
149.1295708177523
 20
-129.360138412428
 10
149.1295708177523
 20
-129.5434174922433
 10
149.1295708177523
 20
-129.7304861770924
 10
149.0555012648195
 20
-129.9103201614224
 10
148.9249321459285
 20
-130.0443343757987
 10
148.7947075365861
 20
-130.1749034946896
 10
148.6110839472222
 20
-130.2489730476225
 10
148.4241875171474
 20
-130.2489730476225
 97
        0
 97
        0
 75
     2
 76
     1
 98
        0
  0
SPLINE
  5
68
330
1F
100
AcDbEntity
  8
Laag 1
370
     0
100
AcDbSpline
210
0.0
220
0.0
230
1.0
 70
    11
 71
     3
 72
    26
 73
    22
 74
     0
 42
0.0000000001
 43
0.0000000001
 12
1.0
 22
0.0
 32
0.0
 13
1.0
 23
0.0
 33
0.0
 40
0.0
 40
0.0
 40
0.0
 40
0.0
 40
1.0
 40
1.0
 40
1.0
 40
2.0
 40
2.0
 40
2.0
 40
3.0
 40
3.0
 40
3.0
 40
4.0
 40
4.0
 40
4.0
 40
5.0
 40
5.0
 40
5.0
 40
6.0
 40
6.0
 40
6.0
 40
7.0
 40
7.0
 40
7.0
 40
7.0
 10
124.0155137493781
 20
-105.8366819295936
 30
0.0
 10
123.828445064529
 20
-105.8366819295936
 30
0.0
 10
123.648611080199
 20
-105.7626123766607
 30
0.0
 10
123.5144246110485
 20
-105.6320432577698
 30
0.0
 10
123.3840277469318
 20
-105.5018186484273
 30
0.0
 10
123.3099581939989
 20
-105.3181950590635
 30
0.0
 10
123.3099581939989
 20
-105.1311263742144
 30
0.0
 10
123.3099581939989
 20
-104.9478472943992
 30
0.0
 10
123.3840277469318
 20
-104.7643959598096
 30
0.0
 10
123.5144246110485
 20
-104.6338268409186
 30
0.0
 10
123.7755628488304
 20
-104.3726886031367
 30
0.0
 10
124.2518472996662
 20
-104.3726886031367
 30
0.0
 10
124.5128132826739
 20
-104.6338268409186
 30
0.0
 10
124.6433824015648
 20
-104.7643959598096
 30
0.0
 10
124.7210693047572
 20
-104.9478472943992
 30
0.0
 10
124.7210693047572
 20
-105.1311263742144
 30
0.0
 10
124.7210693047572
 20
-105.3181950590635
 30
0.0
 10
124.6433824015648
 20
-105.4980290433936
 30
0.0
 10
124.5128132826739
 20
-105.6320432577698
 30
0.0
 10
124.3787990682977
 20
-105.7626123766607
 30
0.0
 10
124.1989650839676
 20
-105.8366819295936
 30
0.0
 10
124.0155137493781
 20
-105.8366819295936
 30
0.0
  0
HATCH
  5
69
330
1F
100
AcDbEntity
  8
Laag 1
 62
   179
420
  1907995
100
AcDbHatch
 10
0.0
 20
0.0
 30
0.0
210
0.0
220
0.0
230
1.0
  2
SOLID
 70
     1
 71
     0
 91
        1
 92
        1
 93
        1
 72
     4
 94
        3
 73
     0
 74
     1
 95
       26
 96
       22
 40
0.0
 40
0.0
 40
0.0
 40
0.0
 40
1.0
 40
1.0
 40
1.0
 40
2.0
 40
2.0
 40
2.0
 40
3.0
 40
3.0
 40
3.0
 40
4.0
 40
4.0
 40
4.0
 40
5.0
 40
5.0
 40
5.0
 40
6.0
 40
6.0
 40
6.0
 40
7.0
 40
7.0
 40
7.0
 40
7.0
 10
124.0155137493781
 20
-105.8366819295936
 10
123.828445064529
 20
-105.8366819295936
 10
123.648611080199
 20
-105.7626123766607
 10
123.5144246110485
 20
-105.6320432577698
 10
123.3840277469318
 20
-105.5018186484273
 10
123.3099581939989
 20
-105.3181950590635
 10
123.3099581939989
 20
-105.1311263742144
 10
123.3099581939989
 20
-104.9478472943992
 10
123.3840277469318
 20
-104.7643959598096
 10
123.5144246110485
 20
-104.6338268409186
 10
123.7755628488304
 20
-104.3726886031367
 10
124.2518472996662
 20
-104.3726886031367
 10
124.5128132826739
 20
-104.6338268409186
 10
124.6433824015648
 20
-104.7643959598096
 10
124.7210693047572
 20
-104.9478472943992
 10
124.7210693047572
 20
-105.1311263742144
 10
124.7210693047572
 20
-105.3181950590635
 10
124.6433824015648
 20
-105.4980290433936
 10
124.5128132826739
 20
-105.6320432577698
 10
124.3787990682977
 20
-105.7626123766607
 10
124.1989650839676
 20
-105.8366819295936
 10
124.0155137493781
 20
-105.8366819295936
 97
        0
 97
        0
 75
     2
 76
     1
 98
        0
  0
ENDSEC
  0
SECTION
  2
OBJECTS
  0
DICTIONARY
  5
C
330
0
100
AcDbDictionary
281
     1
  3
ACAD_GROUP
350
D
  3
ACAD_LAYOUT
350
1A
  3
ACAD_MATERIAL
350
3B
  3
ACAD_MLEADERSTYLE
350
6B
  3
ACAD_MLINESTYLE
350
17
  3
ACAD_PLOTSETTINGS
350
19
  3
ACAD_PLOTSTYLENAME
350
E
  3
ACAD_TABLESTYLE
350
6A
  3
ACAD_VISUALSTYLE
350
2A
  0
SUN
  5
3F
330
29
100
AcDbSun
 90
        1
290
     0
 63
     7
421
 16777215
 40
1.0
291
     1
 91
  2455826
 92
 54000000
292
     0
 70
     2
 71
   256
280
     1
  0
DICTIONARY
  5
D
102
{ACAD_REACTORS
330
C
102
}
330
C
100
AcDbDictionary
281
     1
  0
DICTIONARY
  5
1A
102
{ACAD_REACTORS
330
C
102
}
330
C
100
AcDbDictionary
281
     1
  3
Layout1
350
1E
  3
Layout2
350
26
  3
Model
350
22
  0
DICTIONARY
  5
3B
102
{ACAD_REACTORS
330
C
102
}
330
C
100
AcDbDictionary
281
     1
  3
ByBlock
350
3D
  3
ByLayer
350
3C
  3
Global
350
3E
  0
DICTIONARY
  5
6B
102
{ACAD_REACTORS
330
C
102
}
330
C
100
AcDbDictionary
281
     1
  0
DICTIONARY
  5
17
102
{ACAD_REACTORS
330
C
102
}
330
C
100
AcDbDictionary
281
     1
  3
Standard
350
18
  0
DICTIONARY
  5
19
102
{ACAD_REACTORS
330
C
102
}
330
C
100
AcDbDictionary
281
     1
  0
ACDBDICTIONARYWDFLT
  5
E
102
{ACAD_REACTORS
330
C
102
}
330
C
100
AcDbDictionary
281
     1
  3
Normal
350
F
100
AcDbDictionaryWithDefault
340
F
  0
DICTIONARY
  5
6A
102
{ACAD_REACTORS
330
C
102
}
330
C
100
AcDbDictionary
281
     1
  0
DICTIONARY
  5
2A
102
{ACAD_REACTORS
330
C
102
}
330
C
100
AcDbDictionary
281
     1
  3
2dWireframe
350
2F
  3
3D Hidden
350
31
  3
3dWireframe
350
30
  3
Basic
350
32
  3
Brighten
350
36
  3
ColorChange
350
3A
  3
Conceptual
350
34
  3
Dim
350
35
  3
Facepattern
350
39
  3
Flat
350
2B
  3
FlatWithEdges
350
2C
  3
Gouraud
350
2D
  3
GouraudWithEdges
350
2E
  3
Linepattern
350
38
  3
Realistic
350
33
  3
Thicken
350
37
  0
LAYOUT
  5
1E
102
{ACAD_REACTORS
330
1A
102
}
330
1A
100
AcDbPlotSettings
  1

  2
none_device
  4

  6

 40
0.0
 41
0.0
 42
0.0
 43
0.0
 44
0.0
 45
0.0
 46
0.0
 47
0.0
 48
0.0
 49
0.0
140
0.0
141
0.0
142
1.0
143
1.0
 70
   688
 72
     0
 73
     0
 74
     5
  7

 75
    16
 76
     0
 77
     2
 78
   300
147
1.0
148
0.0
149
0.0
100
AcDbLayout
  1
Layout1
 70
     1
 71
     1
 10
0.0
 20
0.0
 11
12.0
 21
9.0
 12
0.0
 22
0.0
 32
0.0
 14
1.000000000000000E+20
 24
1.000000000000000E+20
 34
1.000000000000000E+20
 15
-1.000000000000000E+20
 25
-1.000000000000000E+20
 35
-1.000000000000000E+20
146
0.0
 13
0.0
 23
0.0
 33
0.0
 16
1.0
 26
0.0
 36
0.0
 17
0.0
 27
1.0
 37
0.0
 76
     0
330
1B
  0
LAYOUT
  5
26
102
{ACAD_REACTORS
330
1A
102
}
330
1A
100
AcDbPlotSettings
  1

  2
none_device
  4

  6

 40
0.0
 41
0.0
 42
0.0
 43
0.0
 44
0.0
 45
0.0
 46
0.0
 47
0.0
 48
0.0
 49
0.0
140
0.0
141
0.0
142
1.0
143
1.0
 70
   688
 72
     0
 73
     0
 74
     5
  7

 75
    16
 76
     0
 77
     2
 78
   300
147
1.0
148
0.0
149
0.0
100
AcDbLayout
  1
Layout2
 70
     1
 71
     2
 10
0.0
 20
0.0
 11
0.0
 21
0.0
 12
0.0
 22
0.0
 32
0.0
 14
0.0
 24
0.0
 34
0.0
 15
0.0
 25
0.0
 35
0.0
146
0.0
 13
0.0
 23
0.0
 33
0.0
 16
1.0
 26
0.0
 36
0.0
 17
0.0
 27
1.0
 37
0.0
 76
     0
330
23
  0
LAYOUT
  5
22
102
{ACAD_REACTORS
330
1A
102
}
330
1A
100
AcDbPlotSettings
  1

  2
none_device
  4

  6

 40
0.0
 41
0.0
 42
0.0
 43
0.0
 44
0.0
 45
0.0
 46
0.0
 47
0.0
 48
0.0
 49
0.0
140
0.0
141
0.0
142
1.0
143
1.0
 70
  1712
 72
     0
 73
     0
 74
     0
  7

 75
     0
 76
     0
 77
     2
 78
   300
147
1.0
148
0.0
149
0.0
100
AcDbLayout
  1
Model
 70
     1
 71
     0
 10
0.0
 20
0.0
 11
12.0
 21
9.0
 12
0.0
 22
0.0
 32
0.0
 14
1.000000000000000E+20
 24
1.000000000000000E+20
 34
1.000000000000000E+20
 15
-1.000000000000000E+20
 25
-1.000000000000000E+20
 35
-1.000000000000000E+20
146
0.0
 13
0.0
 23
0.0
 33
0.0
 16
1.0
 26
0.0
 36
0.0
 17
0.0
 27
1.0
 37
0.0
 76
     0
330
1F
331
29
  0
MATERIAL
  5
3D
102
{ACAD_REACTORS
330
3B
102
}
330
3B
100
AcDbMaterial
  1
ByBlock
 72
     1
 94
      127
  0
MATERIAL
  5
3C
102
{ACAD_REACTORS
330
3B
102
}
330
3B
100
AcDbMaterial
  1
ByLayer
 72
     1
 94
      127
  0
MATERIAL
  5
3E
102
{ACAD_REACTORS
330
3B
102
}
330
3B
100
AcDbMaterial
  1
Global
 72
     1
 94
      127
  0
MLINESTYLE
  5
18
102
{ACAD_REACTORS
330
17
102
}
330
17
100
AcDbMlineStyle
  2
Standard
 70
     0
  3

 62
   256
 51
90.0
 52
90.0
 71
     2
 49
0.5
 62
   256
  6
BYLAYER
 49
-0.5
 62
   256
  6
BYLAYER
  0
ACDBPLACEHOLDER
  5
F
102
{ACAD_REACTORS
330
E
102
}
330
E
  0
VISUALSTYLE
  5
2F
102
{ACAD_REACTORS
330
2A
102
}
330
2A
100
AcDbVisualStyle
  2
2dWireframe
 70
     4
177
     2
291
     0
 71
     0
176
     1
 72
     2
176
     1
 73
     0
176
     1
 90
        0
176
     1
 40
-0.6
176
     1
 41
-30.0
176
     1
 62
     5
 63
     7
421
 16777215
176
     1
 74
     1
176
     1
 91
        4
176
     1
 64
     7
176
     1
 65
   257
176
     1
 75
     1
176
     1
175
     1
176
     1
 42
1.0
176
     1
 92
        0
176
     1
 66
   257
176
     1
 43
1.0
176
     1
 76
     1
176
     1
 77
     6
176
     1
 78
     2
176
     1
 67
     7
176
     1
 79
     5
176
     1
170
     0
176
     1
171
     0
176
     1
290
     0
176
     1
 93
        1
176
     1
 44
0.0
176
     1
173
     0
176
     1
  0
VISUALSTYLE
  5
31
102
{ACAD_REACTORS
330
2A
102
}
330
2A
100
AcDbVisualStyle
  2
3D Hidden
 70
     6
177
     2
291
     0
 71
     1
176
     1
 72
     2
176
     1
 73
     2
176
     1
 90
        0
176
     1
 40
-0.6
176
     1
 41
-30.0
176
     1
 62
     5
 63
     7
421
 16777215
176
     1
 74
     2
176
     1
 91
        2
176
     1
 64
     7
176
     1
 65
   257
176
     1
 75
     2
176
     1
175
     1
176
     1
 42
40.0
176
     1
 92
        0
176
     1
 66
   257
176
     1
 43
1.0
176
     1
 76
     1
176
     1
 77
     6
176
     1
 78
     2
176
     1
 67
     7
176
     1
 79
     3
176
     1
170
     0
176
     1
171
     0
176
     1
290
     0
176
     1
 93
        1
176
     1
 44
0.0
176
     1
173
     0
176
     1
  0
VISUALSTYLE
  5
30
102
{ACAD_REACTORS
330
2A
102
}
330
2A
100
AcDbVisualStyle
  2
3dWireframe
 70
     5
177
     2
291
     0
 71
     0
176
     1
 72
     2
176
     1
 73
     0
176
     1
 90
        0
176
     1
 40
-0.6
176
     1
 41
-30.0
176
     1
 62
     5
 63
     7
421
 16777215
176
     1
 74
     1
176
     1
 91
        4
176
     1
 64
     7
176
     1
 65
   257
176
     1
 75
     1
176
     1
175
     1
176
     1
 42
1.0
176
     1
 92
        0
176
     1
 66
   257
176
     1
 43
1.0
176
     1
 76
     1
176
     1
 77
     6
176
     1
 78
     2
176
     1
 67
     7
176
     1
 79
     5
176
     1
170
     0
176
     1
171
     0
176
     1
290
     0
176
     1
 93
        1
176
     1
 44
0.0
176
     1
173
     0
176
     1
  0
VISUALSTYLE
  5
32
102
{ACAD_REACTORS
330
2A
102
}
330
2A
100
AcDbVisualStyle
  2
Basic
 70
     7
177
     2
291
     1
 71
     1
176
     1
 72
     0
176
     1
 73
     1
176
     1
 90
        0
176
     1
 40
-0.6
176
     1
 41
-30.0
176
     1
 62
     5
 63
     7
421
 16777215
176
     1
 74
     0
176
     1
 91
        4
176
     1
 64
     7
176
     1
 65
   257
176
     1
 75
     1
176
     1
175
     1
176
     1
 42
1.0
176
     1
 92
        8
176
     1
 66
     7
176
     1
 43
1.0
176
     1
 76
     1
176
     1
 77
     6
176
     1
 78
     2
176
     1
 67
     7
176
     1
 79
     5
176
     1
170
     0
176
     1
171
     0
176
     1
290
     0
176
     1
 93
        1
176
     1
 44
0.0
176
     1
173
     0
176
     1
  0
VISUALSTYLE
  5
36
102
{ACAD_REACTORS
330
2A
102
}
330
2A
100
AcDbVisualStyle
  2
Brighten
 70
    12
177
     2
291
     1
 71
     2
176
     1
 72
     2
176
     1
 73
     0
176
     1
 90
        0
176
     1
 40
-0.6
176
     1
 41
-30.0
176
     1
 62
     5
 63
     7
421
 16777215
176
     1
 74
     1
176
     1
 91
        4
176
     1
 64
     7
176
     1
 65
   257
176
     1
 75
     1
176
     1
175
     1
176
     1
 42
1.0
176
     1
 92
        8
176
     1
 66
     7
176
     1
 43
1.0
176
     1
 76
     1
176
     1
 77
     6
176
     1
 78
     2
176
     1
 67
     7
176
     1
 79
     5
176
     1
170
     0
176
     1
171
     0
176
     1
290
     0
176
     1
 93
        1
176
     1
 44
50.0
176
     1
173
     0
176
     1
  0
VISUALSTYLE
  5
3A
102
{ACAD_REACTORS
330
2A
102
}
330
2A
100
AcDbVisualStyle
  2
ColorChange
 70
    16
177
     2
291
     1
 71
     2
176
     1
 72
     2
176
     1
 73
     3
176
     1
 90
        0
176
     1
 40
-0.6
176
     1
 41
-30.0
176
     1
 62
     5
 63
     8
421
  8421504
176
     1
 74
     1
176
     1
 91
        4
176
     1
 64
     7
176
     1
 65
   257
176
     1
 75
     1
176
     1
175
     1
176
     1
 42
1.0
176
     1
 92
        8
176
     1
 66
     8
424
  8421504
176
     1
 43
1.0
176
     1
 76
     1
176
     1
 77
     6
176
     1
 78
     2
176
     1
 67
     7
176
     1
 79
     5
176
     1
170
     0
176
     1
171
     0
176
     1
290
     0
176
     1
 93
        1
176
     1
 44
0.0
176
     1
173
     0
176
     1
  0
VISUALSTYLE
  5
34
102
{ACAD_REACTORS
330
2A
102
}
330
2A
100
AcDbVisualStyle
  2
Conceptual
 70
     9
177
     2
291
     0
 71
     3
176
     1
 72
     2
176
     1
 73
     0
176
     1
 90
        0
176
     1
 40
-0.6
176
     1
 41
-30.0
176
     1
 62
     5
 63
     7
421
 16777215
176
     1
 74
     2
176
     1
 91
        2
176
     1
 64
     7
176
     1
 65
   257
176
     1
 75
     1
176
     1
175
     1
176
     1
 42
40.0
176
     1
 92
        8
176
     1
 66
     7
176
     1
 43
1.0
176
     1
 76
     1
176
     1
 77
     6
176
     1
 78
     2
176
     1
 67
     7
176
     1
 79
     3
176
     1
170
     0
176
     1
171
     0
176
     1
290
     0
176
     1
 93
        1
176
     1
 44
0.0
176
     1
173
     0
176
     1
  0
VISUALSTYLE
  5
35
102
{ACAD_REACTORS
330
2A
102
}
330
2A
100
AcDbVisualStyle
  2
Dim
 70
    11
177
     2
291
     1
 71
     2
176
     1
 72
     2
176
     1
 73
     0
176
     1
 90
        0
176
     1
 40
-0.6
176
     1
 41
-30.0
176
     1
 62
     5
 63
     7
421
 16777215
176
     1
 74
     1
176
     1
 91
        4
176
     1
 64
     7
176
     1
 65
   257
176
     1
 75
     1
176
     1
175
     1
176
     1
 42
1.0
176
     1
 92
        8
176
     1
 66
     7
176
     1
 43
1.0
176
     1
 76
     1
176
     1
 77
     6
176
     1
 78
     2
176
     1
 67
     7
176
     1
 79
     5
176
     1
170
     0
176
     1
171
     0
176
     1
290
     0
176
     1
 93
        1
176
     1
 44
-50.0
176
     1
173
     0
176
     1
  0
VISUALSTYLE
  5
39
102
{ACAD_REACTORS
330
2A
102
}
330
2A
100
AcDbVisualStyle
  2
Facepattern
 70
    15
177
     2
291
     1
 71
     2
176
     1
 72
     2
176
     1
 73
     0
176
     1
 90
        0
176
     1
 40
-0.6
176
     1
 41
-30.0
176
     1
 62
     5
 63
     7
421
 16777215
176
     1
 74
     1
176
     1
 91
        4
176
     1
 64
     7
176
     1
 65
   257
176
     1
 75
     1
176
     1
175
     1
176
     1
 42
1.0
176
     1
 92
        8
176
     1
 66
     7
176
     1
 43
1.0
176
     1
 76
     1
176
     1
 77
     6
176
     1
 78
     2
176
     1
 67
     7
176
     1
 79
     5
176
     1
170
     0
176
     1
171
     0
176
     1
290
     0
176
     1
 93
        1
176
     1
 44
0.0
176
     1
173
     0
176
     1
  0
VISUALSTYLE
  5
2B
102
{ACAD_REACTORS
330
2A
102
}
330
2A
100
AcDbVisualStyle
  2
Flat
 70
     0
177
     2
291
     1
 71
     2
176
     1
 72
     1
176
     1
 73
     1
176
     1
 90
        2
176
     1
 40
-0.6
176
     1
 41
30.0
176
     1
 62
     5
 63
     7
421
 16777215
176
     1
 74
     0
176
     1
 91
        4
176
     1
 64
     7
176
     1
 65
   257
176
     1
 75
     1
176
     1
175
     1
176
     1
 42
1.0
176
     1
 92
        8
176
     1
 66
     7
176
     1
 43
1.0
176
     1
 76
     1
176
     1
 77
     6
176
     1
 78
     2
176
     1
 67
     7
176
     1
 79
     5
176
     1
170
     0
176
     1
171
     0
176
     1
290
     0
176
     1
 93
       13
176
     1
 44
0.0
176
     1
173
     0
176
     1
  0
VISUALSTYLE
  5
2C
102
{ACAD_REACTORS
330
2A
102
}
330
2A
100
AcDbVisualStyle
  2
FlatWithEdges
 70
     1
177
     2
291
     1
 71
     2
176
     1
 72
     1
176
     1
 73
     1
176
     1
 90
        2
176
     1
 40
-0.6
176
     1
 41
30.0
176
     1
 62
     5
 63
     7
421
 16777215
176
     1
 74
     1
176
     1
 91
        4
176
     1
 64
     7
176
     1
 65
   257
176
     1
 75
     1
176
     1
175
     1
176
     1
 42
1.0
176
     1
 92
        0
176
     1
 66
   257
176
     1
 43
1.0
176
     1
 76
     1
176
     1
 77
     6
176
     1
 78
     2
176
     1
 67
     7
176
     1
 79
     5
176
     1
170
     0
176
     1
171
     0
176
     1
290
     0
176
     1
 93
       13
176
     1
 44
0.0
176
     1
173
     0
176
     1
  0
VISUALSTYLE
  5
2D
102
{ACAD_REACTORS
330
2A
102
}
330
2A
100
AcDbVisualStyle
  2
Gouraud
 70
     2
177
     2
291
     1
 71
     2
176
     1
 72
     2
176
     1
 73
     1
176
     1
 90
        2
176
     1
 40
-0.6
176
     1
 41
30.0
176
     1
 62
     5
 63
     7
421
 16777215
176
     1
 74
     0
176
     1
 91
        4
176
     1
 64
     7
176
     1
 65
   257
176
     1
 75
     1
176
     1
175
     1
176
     1
 42
1.0
176
     1
 92
        0
176
     1
 66
     7
176
     1
 43
1.0
176
     1
 76
     1
176
     1
 77
     6
176
     1
 78
     2
176
     1
 67
     7
176
     1
 79
     5
176
     1
170
     0
176
     1
171
     0
176
     1
290
     0
176
     1
 93
       13
176
     1
 44
0.0
176
     1
173
     0
176
     1
  0
VISUALSTYLE
  5
2E
102
{ACAD_REACTORS
330
2A
102
}
330
2A
100
AcDbVisualStyle
  2
GouraudWithEdges
 70
     3
177
     2
291
     1
 71
     2
176
     1
 72
     2
176
     1
 73
     1
176
     1
 90
        2
176
     1
 40
-0.6
176
     1
 41
30.0
176
     1
 62
     5
 63
     7
421
 16777215
176
     1
 74
     1
176
     1
 91
        4
176
     1
 64
     7
176
     1
 65
   257
176
     1
 75
     1
176
     1
175
     1
176
     1
 42
1.0
176
     1
 92
        0
176
     1
 66
   257
176
     1
 43
1.0
176
     1
 76
     1
176
     1
 77
     6
176
     1
 78
     2
176
     1
 67
     7
176
     1
 79
     5
176
     1
170
     0
176
     1
171
     0
176
     1
290
     0
176
     1
 93
       13
176
     1
 44
0.0
176
     1
173
     0
176
     1
  0
VISUALSTYLE
  5
38
102
{ACAD_REACTORS
330
2A
102
}
330
2A
100
AcDbVisualStyle
  2
Linepattern
 70
    14
177
     2
291
     1
 71
     2
176
     1
 72
     2
176
     1
 73
     0
176
     1
 90
        0
176
     1
 40
-0.6
176
     1
 41
-30.0
176
     1
 62
     5
 63
     7
421
 16777215
176
     1
 74
     1
176
     1
 91
        4
176
     1
 64
     7
176
     1
 65
   257
176
     1
 75
     7
176
     1
175
     7
176
     1
 42
1.0
176
     1
 92
        8
176
     1
 66
     7
176
     1
 43
1.0
176
     1
 76
     1
176
     1
 77
     6
176
     1
 78
     2
176
     1
 67
     7
176
     1
 79
     5
176
     1
170
     0
176
     1
171
     0
176
     1
290
     0
176
     1
 93
        1
176
     1
 44
0.0
176
     1
173
     0
176
     1
  0
VISUALSTYLE
  5
33
102
{ACAD_REACTORS
330
2A
102
}
330
2A
100
AcDbVisualStyle
  2
Realistic
 70
     8
177
     2
291
     0
 71
     2
176
     1
 72
     2
176
     1
 73
     0
176
     1
 90
        0
176
     1
 40
-0.6
176
     1
 41
-30.0
176
     1
 62
     5
 63
     7
421
 16777215
176
     1
 74
     1
176
     1
 91
        0
176
     1
 64
     7
176
     1
 65
   257
176
     1
 75
     1
176
     1
175
     1
176
     1
 42
1.0
176
     1
 92
        8
176
     1
 66
     8
424
  7895160
176
     1
 43
1.0
176
     1
 76
     1
176
     1
 77
     6
176
     1
 78
     2
176
     1
 67
     7
176
     1
 79
     5
176
     1
170
     0
176
     1
171
     0
176
     1
290
     0
176
     1
 93
       13
176
     1
 44
0.0
176
     1
173
     0
176
     1
  0
VISUALSTYLE
  5
37
102
{ACAD_REACTORS
330
2A
102
}
330
2A
100
AcDbVisualStyle
  2
Thicken
 70
    13
177
     2
291
     1
 71
     2
176
     1
 72
     2
176
     1
 73
     0
176
     1
 90
        0
176
     1
 40
-0.6
176
     1
 41
-30.0
176
     1
 62
     5
 63
     7
421
 16777215
176
     1
 74
     1
176
     1
 91
        4
176
     1
 64
     7
176
     1
 65
   257
176
     1
 75
     1
176
     1
175
     1
176
     1
 42
1.0
176
     1
 92
       12
176
     1
 66
     7
176
     1
 43
1.0
176
     1
 76
     1
176
     1
 77
     6
176
     1
 78
     2
176
     1
 67
     7
176
     1
 79
     5
176
     1
170
     0
176
     1
171
     0
176
     1
290
     0
176
     1
 93
        1
176
     1
 44
0.0
176
     1
173
     0
176
     1
  0
ENDSEC
  0
EOF
